<svg xmlns="http://www.w3.org/2000/svg" xmlns:xlink="http://www.w3.org/1999/xlink" width="120" height="120" viewBox="0 0 120 120">
  <defs>
    <clipPath id="clip-path">
      <rect id="Rectangle_4076" data-name="Rectangle 4076" width="120" height="120" transform="translate(1022 2694)" fill="none" stroke="#707070" stroke-width="1"/>
    </clipPath>
  </defs>
  <g id="Mask_Group_19" data-name="Mask Group 19" transform="translate(-1022 -2694)" clip-path="url(#clip-path)">
    <g id="XMLID_806_" transform="translate(1025 2688.738)" opacity="0.2">
      <g id="XMLID_386_" transform="translate(0 10.262)">
        <path id="XMLID_389_" d="M114.372,70.555A45.174,45.174,0,0,0,79.244,30.943V25.256a7.61,7.61,0,0,0-1.837-14.994H61.292a7.61,7.61,0,0,0-1.837,14.994v5.7A44.941,44.941,0,0,0,37.415,43.083a45.426,45.426,0,0,0-3.8,4.313c-.056,0-.112-.009-.17-.009H17.5a2.238,2.238,0,0,0,0,4.476H30.569a44.868,44.868,0,0,0-3.971,8.6H2.238a2.238,2.238,0,0,0,0,4.476H25.333a45.507,45.507,0,0,0-1.111,8.6h-9.9a2.238,2.238,0,0,0,0,4.476h9.969a45.441,45.441,0,0,0,1.4,8.6h-14.5a2.238,2.238,0,1,0,0,4.476H27.119a45.205,45.205,0,0,0,37.8,28.943q2.218.219,4.436.218a45.32,45.32,0,0,0,24.673-7.292,2.238,2.238,0,1,0-2.443-3.751,40.735,40.735,0,1,1,12-12.013,2.238,2.238,0,1,0,3.754,2.438A45.355,45.355,0,0,0,114.372,70.555ZM58.159,17.872a3.137,3.137,0,0,1,3.133-3.133H77.407a3.133,3.133,0,0,1,0,6.267H61.292A3.137,3.137,0,0,1,58.159,17.872Zm5.773,12.317V25.482H74.768v4.7A45.6,45.6,0,0,0,63.932,30.189Z" transform="translate(0 -10.262)" fill="#de8e51"/>
        <path id="XMLID_391_" d="M438,425.5a2.233,2.233,0,1,0,1.578.654A2.244,2.244,0,0,0,438,425.5Z" transform="translate(-338.192 -332.517)" fill="#de8e51"/>
        <path id="XMLID_394_" d="M189.5,144.609a34.629,34.629,0,1,0,34.629,34.629A34.668,34.668,0,0,0,189.5,144.609Zm0,64.794a30.165,30.165,0,1,1,30.165-30.165A30.2,30.2,0,0,1,189.5,209.4Z" transform="translate(-119.998 -114.329)" fill="#de8e51"/>
        <path id="XMLID_397_" d="M282.98,220.065l-11.056,11.056a6.919,6.919,0,0,0-6.128,0l-4.948-4.948a2.232,2.232,0,0,0-3.157,3.157l4.948,4.948a6.937,6.937,0,1,0,12.442,0l10.732-10.732h0l.324-.324a2.232,2.232,0,0,0-3.157-3.157Zm-14.12,19.749a2.472,2.472,0,1,1,2.472-2.472A2.475,2.475,0,0,1,268.859,239.814Z" transform="translate(-199.453 -172.564)" fill="#de8e51"/>
        <path id="XMLID_398_" d="M401.955,289.86h-2.068a2.232,2.232,0,1,0,0,4.465h2.068a2.232,2.232,0,1,0,0-4.465Z" transform="translate(-308.638 -227.274)" fill="#de8e51"/>
        <path id="XMLID_399_" d="M197.382,289.616h-2.068a2.232,2.232,0,1,0,0,4.465h2.068a2.232,2.232,0,1,0,0-4.465Z" transform="translate(-149.86 -227.084)" fill="#de8e51"/>
        <path id="XMLID_400_" d="M302.355,189.352a2.232,2.232,0,0,0,2.232-2.232v-2.068a2.232,2.232,0,0,0-4.465,0v2.068A2.232,2.232,0,0,0,302.355,189.352Z" transform="translate(-232.943 -144.191)" fill="#de8e51"/>
        <path id="XMLID_424_" d="M302.111,387.393a2.232,2.232,0,0,0-2.232,2.232v2.068a2.232,2.232,0,1,0,4.465,0v-2.068A2.232,2.232,0,0,0,302.111,387.393Z" transform="translate(-232.753 -302.97)" fill="#de8e51"/>
        <path id="XMLID_425_" d="M2.232,351.44a2.232,2.232,0,1,0,1.578,3.81,2.232,2.232,0,0,0-1.578-3.81Z" transform="translate(0 -275.069)" fill="#de8e51"/>
      </g>
    </g>
  </g>
</svg>
