<svg xmlns="http://www.w3.org/2000/svg" xmlns:xlink="http://www.w3.org/1999/xlink" width="161" height="71" viewBox="0 0 161 71">
  <defs>
    <clipPath id="clip-path">
      <rect id="Rectangle_3538" data-name="Rectangle 3538" width="161" height="71" transform="translate(293 2436)" fill="none"/>
    </clipPath>
  </defs>
  <g id="Mask_Group_10" data-name="Mask Group 10" transform="translate(-293 -2436)" clip-path="url(#clip-path)">
    <g id="Group_7845" data-name="Group 7845" transform="translate(304.272 2443.3)">
      <path id="Path_17431" data-name="Path 17431" d="M580.893,558.308a3.092,3.092,0,0,1,.695-2.367,3.007,3.007,0,0,1,2.148-1.167,3.2,3.2,0,0,1,3.525,2.851,3.015,3.015,0,0,1-.684,2.352,3.2,3.2,0,0,1-5.685-1.668Z" transform="translate(-580.872 -517.464)" fill="#606060"/>
      <path id="Path_17432" data-name="Path 17432" d="M605.1,543.745l.357-9.147a4.813,4.813,0,0,1-5.652-1.958,4.714,4.714,0,0,1-.723-3.949,6.239,6.239,0,0,1,2.8-3.617L608.5,520.6l9.637,14.338-2.942,1.987-3.9-5.8-2.491,1.681-.314,8.639Zm4.531-15.091-2.339-3.481-3.514,2.372c-1.329.9-1.685,2.089-.956,3.175.758,1.125,1.968,1.2,3.3.305Z" transform="translate(-585.638 -508.51)" fill="#606060"/>
      <path id="Path_17433" data-name="Path 17433" d="M629.73,529.236l-5.7-16.306,3.348-1.178,2.248,6.43,3.746-8.536,4.092-1.437-4.287,9.9,11.172,5.987-4.276,1.5-9.626-5.068,2.631,7.523Z" transform="translate(-592.264 -505.261)" fill="#606060"/>
      <path id="Path_17434" data-name="Path 17434" d="M656.3,523.051l-2.5-17.082,3.483-.513,2.5,17.083Z" transform="translate(-600.124 -504.538)" fill="#606060"/>
      <path id="Path_17435" data-name="Path 17435" d="M671.931,519.393a9.222,9.222,0,0,1,.49-12.922,9.364,9.364,0,0,1,6.79-2.248,9.576,9.576,0,0,1,4.507,1.265l-.141,3.576a7.978,7.978,0,0,0-4.474-1.512,5.691,5.691,0,0,0-4.17,1.439,5.819,5.819,0,0,0-.274,8.116,5.837,5.837,0,0,0,4.143,1.746,7.375,7.375,0,0,0,4.785-1.318l-.144,3.577a10.134,10.134,0,0,1-11.511-1.72Z" transform="translate(-604.275 -504.212)" fill="#606060"/>
      <path id="Path_17436" data-name="Path 17436" d="M694.886,523.506l4.985-16.528,3.393,1.027-1.867,6.187,7.443,2.257,1.866-6.187,3.369,1.021-4.986,16.528-3.368-1.021,2.186-7.247-7.444-2.257-2.186,7.25Z" transform="translate(-610.971 -504.938)" fill="#606060"/>
      <path id="Path_17437" data-name="Path 17437" d="M731.84,522.515a9.129,9.129,0,0,1,10.73,6.965,9.183,9.183,0,0,1-6.911,10.695,8.473,8.473,0,0,1-6.771-1.28,8.571,8.571,0,0,1-3.957-5.685,8.812,8.812,0,0,1,1.323-6.731A8.7,8.7,0,0,1,731.84,522.515ZM730.695,536.1a5,5,0,0,0,4.053.717,6.114,6.114,0,0,0,4.392-6.8,5.32,5.32,0,0,0-6.388-4.148,6.2,6.2,0,0,0-4.393,6.8A5.094,5.094,0,0,0,730.695,536.1Z" transform="translate(-618.854 -508.952)" fill="#606060"/>
      <path id="Path_17438" data-name="Path 17438" d="M763.148,554.782a3.06,3.06,0,0,1,2.159,1.181,3.009,3.009,0,0,1,.684,2.351,3.2,3.2,0,0,1-3.526,2.851A2.987,2.987,0,0,1,760.318,560a3.091,3.091,0,0,1-.7-2.368,3.2,3.2,0,0,1,3.526-2.849Z" transform="translate(-628.055 -517.466)" fill="#606060"/>
      <path id="Path_17439" data-name="Path 17439" d="M630.137,570.192a2.205,2.205,0,0,0,.819-.184,6.417,6.417,0,0,0,.9-.449c.3-.178.586-.362.862-.548s.5-.343.688-.464V569.6q-.333.248-.731.515a9.688,9.688,0,0,1-.847.51,4.958,4.958,0,0,1-.919.385,3.145,3.145,0,0,1-.92.144c-.1,0-.2,0-.311-.012s-.215-.024-.311-.04a10.855,10.855,0,0,1-.819.815,7.768,7.768,0,0,1-.977.753,5.8,5.8,0,0,1-1.1.561,3.32,3.32,0,0,1-1.2.221,2.584,2.584,0,0,1-1.239-.268,2.443,2.443,0,0,1-.825-.7,2.931,2.931,0,0,1-.478-1,4.364,4.364,0,0,1-.152-1.148,5.662,5.662,0,0,1,.3-1.825,6.908,6.908,0,0,1,.833-1.671,7.753,7.753,0,0,1,1.275-1.445,9.117,9.117,0,0,1,1.607-1.135,11.242,11.242,0,0,1,1.39-.659,4.1,4.1,0,0,1,1.535-.308,2.993,2.993,0,0,1,.8.1,4.217,4.217,0,0,1,.774.3,15.981,15.981,0,0,0,.088-1.684,10.8,10.8,0,0,0-.181-1.864,12.038,12.038,0,0,0-.55-2.031,8.572,8.572,0,0,0-.949-1.861,4.775,4.775,0,0,0-1.375-1.367c-.039-.033-.059-.06-.059-.077a1.032,1.032,0,0,1,.16-.556.6.6,0,0,1,.55-.253,1.164,1.164,0,0,1,.79.379,5.848,5.848,0,0,1,.753.887,8.519,8.519,0,0,1,.609,1.015c.169.335.292.595.369.776a6.262,6.262,0,0,1,.391,1.034q.144.52.289,1.058a14.539,14.539,0,0,1,.246,1.456,12.465,12.465,0,0,1,.087,1.483,20.525,20.525,0,0,1-.108,2.1,16.383,16.383,0,0,1-.355,2.1,11.982,11.982,0,0,1-.681,2.033,9.531,9.531,0,0,1-1.085,1.868Zm.84-5.421a4.949,4.949,0,0,0-.673-.381,1.8,1.8,0,0,0-.761-.157,2.454,2.454,0,0,0-.731.12,6,6,0,0,0-.789.305,6.564,6.564,0,0,0-.745.406c-.228.144-.428.276-.6.4a8.2,8.2,0,0,0-1.072.979,7.853,7.853,0,0,0-.905,1.19,6.743,6.743,0,0,0-.637,1.318,4.094,4.094,0,0,0-.239,1.36,2.725,2.725,0,0,0,.1.692,2.394,2.394,0,0,0,.312.7,1.917,1.917,0,0,0,.52.536,1.3,1.3,0,0,0,.76.215,2.06,2.06,0,0,0,.935-.228,7.13,7.13,0,0,0,.818-.477,6.822,6.822,0,0,0,1.462-1.418,10.67,10.67,0,0,0,1.1-1.763,11.03,11.03,0,0,0,.739-1.914A14.953,14.953,0,0,0,630.976,564.77Z" transform="translate(-591.882 -517.267)" fill="#606060"/>
      <path id="Path_17440" data-name="Path 17440" d="M644.192,570.446a4.068,4.068,0,0,0,.247-.595,1.947,1.947,0,0,0,.116-.609.89.89,0,0,0-.739-.914q-.275.483-.818,1.3t-1.26,1.776q-.717.959-1.542,1.954a21.338,21.338,0,0,1-1.672,1.8,11.508,11.508,0,0,1-1.623,1.305,2.6,2.6,0,0,1-1.368.5.714.714,0,0,1-.673-.308,1.3,1.3,0,0,1-.181-.673,3.3,3.3,0,0,1,.181-1.032,7.977,7.977,0,0,1,.456-1.1,9.41,9.41,0,0,1,.608-1.044c.222-.333.43-.632.623-.9l.985.508c-.107.148-.232.343-.377.582s-.292.491-.442.757a8.1,8.1,0,0,0-.39.791,1.709,1.709,0,0,0-.167.627c0,.149.063.222.188.222a.89.89,0,0,0,.485-.2l.428-.308a21.017,21.017,0,0,0,1.557-1.476q.761-.8,1.456-1.673t1.332-1.757q.637-.881,1.2-1.729-.42.024-.833.038a3.156,3.156,0,0,0-.832.144l.594-1.071c.222-.017.428-.035.615-.052s.379-.027.572-.027a4.841,4.841,0,0,1,1,.1,3.392,3.392,0,0,1,.891.32,1.816,1.816,0,0,1,.651.6,1.528,1.528,0,0,1,.253.874,3.242,3.242,0,0,1-.136.953,6.01,6.01,0,0,1-.37.9l-1.869,3.71-.1.21a.443.443,0,0,0-.044.2.419.419,0,0,0,.044.15.138.138,0,0,0,.13.1,2.923,2.923,0,0,0,.9-.443q.731-.446,1.571-1.019t1.6-1.11l1.022-.719v1.07q-.435.314-1.311.942t-1.868,1.261q-.993.634-1.9,1.111a3.347,3.347,0,0,1-1.382.477.442.442,0,0,1-.448-.268,1.192,1.192,0,0,1-.116-.477,1.364,1.364,0,0,1,.1-.477,4.377,4.377,0,0,1,.217-.489Z" transform="translate(-595.076 -520.749)" fill="#606060"/>
      <path id="Path_17441" data-name="Path 17441" d="M665.767,573.156c-.182.121-.436.3-.76.542s-.689.5-1.094.778-.835.569-1.289.868-.888.573-1.3.818a9.705,9.705,0,0,1-1.158.587,2.445,2.445,0,0,1-.869.222.493.493,0,0,1-.414-.2.669.669,0,0,1-.152-.418,2.182,2.182,0,0,1,.211-.677c.14-.333.3-.68.492-1.045s.371-.724.55-1.071.316-.6.413-.759q-.421.21-.862.4a7.169,7.169,0,0,1-.92.32q-.449.484-1.057,1.059a14.342,14.342,0,0,1-1.317,1.1,8.143,8.143,0,0,1-1.477.868,3.687,3.687,0,0,1-1.521.345,2.26,2.26,0,0,1-1.333-.358,1.294,1.294,0,0,1-.506-1.131,3.611,3.611,0,0,1,.536-1.849q.536-.907,1.043-1.69l.985.508q-.189.276-.406.634c-.145.241-.283.487-.413.745a7.333,7.333,0,0,0-.341.778,2.027,2.027,0,0,0-.145.679q0,.677.768.678a2.253,2.253,0,0,0,.94-.253,7.526,7.526,0,0,0,1.044-.609c.337-.235.658-.477.963-.724s.548-.461.732-.634a2.863,2.863,0,0,1-1.694-.732,2.048,2.048,0,0,1-.652-1.557,2.892,2.892,0,0,1,.667-1.92,5.357,5.357,0,0,1,1.672-1.32,8.707,8.707,0,0,1,2.194-.776,10.562,10.562,0,0,1,2.229-.255,9.28,9.28,0,0,1,1.448.117,9.864,9.864,0,0,1,1.434.341l-.073.979a7.589,7.589,0,0,0-2.809-.536,9.223,9.223,0,0,0-1.737.188,7.762,7.762,0,0,0-1.825.6,4.9,4.9,0,0,0-1.448,1.019,2.031,2.031,0,0,0-.595,1.462,1.265,1.265,0,0,0,.428.993,1.607,1.607,0,0,0,1.109.378,6.286,6.286,0,0,0,1.861-.319,7.232,7.232,0,0,0,1.7-.751q.332-.587.629-1.163t.587-1.189l1.158.1c-.057.1-.171.313-.34.628s-.361.677-.578,1.1l-.682,1.307q-.355.681-.651,1.286t-.492,1.019a2.11,2.11,0,0,0-.2.491.419.419,0,0,0,.044.15.138.138,0,0,0,.13.1,1.468,1.468,0,0,0,.528-.228q.4-.229.92-.563t1.13-.736q.607-.4,1.122-.778t.92-.653q.405-.282.521-.359Z" transform="translate(-599.491 -520.703)" fill="#606060"/>
      <path id="Path_17442" data-name="Path 17442" d="M687.594,570.215a2.957,2.957,0,0,0,1.383-.437,21.949,21.949,0,0,0,1.889-1.209v1.058a15.237,15.237,0,0,1-1.86,1.142,3.527,3.527,0,0,1-1.586.412c-.077,0-.176,0-.3-.012s-.258-.024-.412-.04q-2.259,2.353-4.331,2.351a2.148,2.148,0,0,1-1.44-.437,1.547,1.547,0,0,1-.515-1.247,7.745,7.745,0,0,1,.97-3.15q-.564.445-1.035.8a6.645,6.645,0,0,1-.92.587v-1.07a15.954,15.954,0,0,0,2.26-1.751,5.242,5.242,0,0,0,.826-.927q.9-1.92,1.752-3.848T686,558.56q.262-.562.6-1.327a8.632,8.632,0,0,1,.832-1.464,5.428,5.428,0,0,1,1.129-1.188,2.292,2.292,0,0,1,1.434-.49c.713,0,1.072.326,1.072.979a6,6,0,0,1-.652,2.28,23.1,23.1,0,0,1-1.781,3.156q-.449.693-1.058,1.573t-1.289,1.771q-.68.888-1.39,1.7a13.672,13.672,0,0,1-1.362,1.379l-.811,1.686c-.1.209-.208.444-.333.7s-.244.529-.355.8-.205.546-.283.812a2.614,2.614,0,0,0-.115.724.747.747,0,0,0,.268.569.968.968,0,0,0,.674.24q1.215,0,3.416-1.908a3.39,3.39,0,0,1-.565-1.92,5.3,5.3,0,0,1,.326-1.849,7.036,7.036,0,0,1,.811-1.58,4.587,4.587,0,0,1,1.05-1.11,1.808,1.808,0,0,1,1.044-.412,1.012,1.012,0,0,1,.788.4,1.628,1.628,0,0,1,.34,1.092,6.428,6.428,0,0,1-.52,2.163,11.055,11.055,0,0,1-1.738,2.868Zm2.26-14.817c0-.2-.068-.3-.2-.3a.911.911,0,0,0-.614.378,5.733,5.733,0,0,0-.638.868c-.2.327-.381.657-.55.988s-.282.57-.34.717q-.681,1.518-1.332,3.006t-1.332,3.006q1.188-1.622,2.122-3.046t1.585-2.548a16.779,16.779,0,0,0,.977-1.908A3.442,3.442,0,0,0,689.853,555.4Zm-1.187,10.088c0-.479-.1-.719-.29-.719-.068,0-.2.111-.4.333a5.407,5.407,0,0,0-.608.87,7.445,7.445,0,0,0-.557,1.215,4.014,4.014,0,0,0-.246,1.385,5.111,5.111,0,0,0,.029.542c.019.188.048.389.087.607a11.673,11.673,0,0,0,1.542-2.6A5.2,5.2,0,0,0,688.666,565.485Z" transform="translate(-606.893 -517.29)" fill="#606060"/>
      <path id="Path_17443" data-name="Path 17443" d="M701.313,573.313a17.112,17.112,0,0,1-2.426,2.671,3.442,3.442,0,0,1-2.238.908,2.26,2.26,0,0,1-1.781-.815,3.235,3.235,0,0,1-.71-2.2,5.081,5.081,0,0,1,1.694-3.646,11.3,11.3,0,0,1,5.394-2.908,8.693,8.693,0,0,1,1.876-.216,6.852,6.852,0,0,1,1.289.117,4.119,4.119,0,0,1,1.231.471l-.058,1.019a4.7,4.7,0,0,0-2.491-.705,7.26,7.26,0,0,0-1.672.2,11.108,11.108,0,0,0-1.7.548,9.688,9.688,0,0,0-1.6.843,7.547,7.547,0,0,0-1.325,1.084,5.385,5.385,0,0,0-1.123,1.6,3.918,3.918,0,0,0-.355,1.56,2.236,2.236,0,0,0,.427,1.458,1.405,1.405,0,0,0,1.137.515q1.042,0,2.586-1.686t4-4.912l1.158.1-2.78,5.4a1.1,1.1,0,0,0-.16.431.292.292,0,0,0,.058.163.16.16,0,0,0,.131.084,5.855,5.855,0,0,0,1.52-.816q1.29-.816,3.607-2.5v1.071q-2.608,1.816-4.149,2.815a5.021,5.021,0,0,1-2.324,1,.542.542,0,0,1-.4-.17.61.61,0,0,1-.166-.446,3.31,3.31,0,0,1,.39-1.1Z" transform="translate(-610.779 -520.703)" fill="#606060"/>
      <path id="Path_17444" data-name="Path 17444" d="M720.818,573.156q-1.158.85-2.165,1.535t-1.9,1.175a9.907,9.907,0,0,1-1.715.757,5.329,5.329,0,0,1-1.667.268,2.917,2.917,0,0,1-2.187-.757,3,3,0,0,1-.738-2.182,5.483,5.483,0,0,1,.5-2.247,7,7,0,0,1,1.542-2.143,9.417,9.417,0,0,1,2.622-1.828,6.314,6.314,0,0,1,2.62-.628,2.367,2.367,0,0,1,1.413.373,1.075,1.075,0,0,1,.514.883,2.514,2.514,0,0,1-.29,1.019l-.913,1.843-1.042-.342.884-1.775a1.088,1.088,0,0,0,.188-.51c0-.375-.261-.563-.782-.563a3.826,3.826,0,0,0-1.014.163,7.5,7.5,0,0,0-1.187.458,7.048,7.048,0,0,0-1.2.751,9.968,9.968,0,0,0-1.13,1.019,5.234,5.234,0,0,0-1.477,3.581,1.741,1.741,0,0,0,1.955,1.985,3.891,3.891,0,0,0,1.391-.28,10.364,10.364,0,0,0,1.6-.79q.862-.508,1.9-1.234l2.281-1.6Z" transform="translate(-615.08 -520.703)" fill="#606060"/>
    </g>
  </g>
</svg>
