<svg xmlns="http://www.w3.org/2000/svg" width="25" height="25" viewBox="0 0 25 25">
  <g id="Group_2976" data-name="Group 2976" transform="translate(0.447)">
    <g id="Group_2976-2" data-name="Group 2976" transform="translate(-0.447)">
      <rect id="Rectangle_966" data-name="Rectangle 966" width="25" height="25" fill="none"/>
      <g id="phone-call">
        <path id="Path_15852" data-name="Path 15852" d="M19.2,21.25A15.991,15.991,0,0,1,3.25,5.3,2.052,2.052,0,0,1,5.3,3.25H8.342A2.052,2.052,0,0,1,10.4,5.3a8.685,8.685,0,0,0,.439,2.736,2.057,2.057,0,0,1-.464,2.053L9.306,11.495a9.8,9.8,0,0,0,3.7,3.7L14.5,14.067a1.975,1.975,0,0,1,1.988-.382,9.838,9.838,0,0,0,2.711.429h0a2.054,2.054,0,0,1,2.047,2.054V19.2A2.052,2.052,0,0,1,19.2,21.25ZM5.3,4.75a.551.551,0,0,0-.55.55A14.488,14.488,0,0,0,19.2,19.75a.551.551,0,0,0,.549-.55V16.167a.559.559,0,0,0-.568-.553,10.13,10.13,0,0,1-3.176-.509.532.532,0,0,0-.541.108l-2.309,1.746-.416-.209a11.286,11.286,0,0,1-4.991-4.99l-.21-.417L9.269,9.07a.563.563,0,0,0,.139-.57A10.146,10.146,0,0,1,8.9,5.3a.551.551,0,0,0-.55-.549Z" fill="#1f1e1c"/>
      </g>
    </g>
  </g>
</svg>
