<svg xmlns="http://www.w3.org/2000/svg" width="20" height="20" viewBox="0 0 20 20"><g><g><g><path fill="#f9a46a" d="M16.266 18.15l-6.418-6.395L3.43 18.15a.945.945 0 0 1-.668.273.943.943 0 0 1-.665-.273l-.566-.565a.93.93 0 0 1-.274-.666c0-.25.097-.485.274-.662l6.448-6.43L1.54 3.41a.94.94 0 0 1 0-1.331l.565-.562a.933.933 0 0 1 .666-.276c.254 0 .49.099.668.276l6.41 6.387 6.409-6.387a.943.943 0 0 1 1.334 0l.565.562c.37.367.37.964 0 1.33l-6.441 6.42 6.45 6.429a.928.928 0 0 1 .273.662.93.93 0 0 1-.274.666l-.565.565a.944.944 0 0 1-.665.273.943.943 0 0 1-.668-.273z"/></g><g/></g></g></svg>