<svg xmlns="http://www.w3.org/2000/svg" width="602.999" height="395" viewBox="0 0 602.999 395">
  <g id="Group_8406" data-name="Group 8406" transform="translate(-537.002 -93.874)" opacity="0.1">
    <g id="Group_8404" data-name="Group 8404" transform="translate(537.001 94.199)">
      <text id="_4" data-name="4" transform="translate(0.001 313.675)" fill="#f9a46a" font-size="300" font-family="RobotoSlab-Medium, Roboto Slab" font-weight="500" letter-spacing="0.05em"><tspan x="0" y="0">4</tspan></text>
    </g>
    <g id="Group_8405" data-name="Group 8405" transform="translate(968.061 94.199)">
      <text id="_4-2" data-name="4" transform="translate(-0.06 313.675)" fill="#f9a46a" font-size="300" font-family="RobotoSlab-Medium, Roboto Slab" font-weight="500" letter-spacing="0.05em"><tspan x="0" y="0">4</tspan></text>
    </g>
    <g id="Group_8152" data-name="Group 8152" transform="translate(709.748 175.729)">
      <g id="Group_7842" data-name="Group 7842" transform="translate(7.555 24.957)">
        <g id="Group_7803" data-name="Group 7803" transform="translate(82.649 151.802)">
          <path id="Path_17558" data-name="Path 17558" d="M1978.3-1316.671l-1.625-2.054-24.938,31.608-24.922-31.624-1.524,1.932A77.441,77.441,0,0,1,1908.358-1301l43.368,54.9,43.357-54.87A77.353,77.353,0,0,1,1978.3-1316.671Z" transform="translate(-1908.358 1318.74)" fill="#f9a46a" stroke="rgba(0,0,0,0)" stroke-width="1"/>
        </g>
        <g id="Group_7804" data-name="Group 7804" transform="translate(39.206 63.308)">
          <path id="Path_17559" data-name="Path 17559" d="M1988.878-1331.572l-70.586,89.188-16.238,20.517a67.083,67.083,0,0,0,52.618-25.466l34.206-43.249L2023.2-1247.2a67.083,67.083,0,0,0,52.519,25.471h.065l-16.244-20.561Z" transform="translate(-1902.054 1331.572)" fill="#f9a46a" stroke="rgba(0,0,0,0)" stroke-width="1"/>
        </g>
        <g id="Group_7805" data-name="Group 7805" transform="translate(0 0)">
          <path id="Path_17560" data-name="Path 17560" d="M1975.8-1236.5c-13.13,0-49.844-23.241-49.844-44.046,0-31.274,59.786-60.2,59.786-60.2s-89.362,14.764-89.362,63.238c0,31.774,46.373,75.2,53.107,75.2Z" transform="translate(-1896.375 1340.748)" fill="#f9a46a" stroke="rgba(0,0,0,0)" stroke-width="1"/>
        </g>
        <g id="Group_7806" data-name="Group 7806" transform="translate(162.679 0)">
          <path id="Path_17561" data-name="Path 17561" d="M1919.958-1340.748s59.788,28.924,59.788,60.2c0,20.8-36.719,44.046-49.848,44.046l26.314,34.193c6.743,0,53.111-43.425,53.111-75.2C2009.324-1325.984,1919.958-1340.748,1919.958-1340.748Z" transform="translate(-1919.958 1340.748)" fill="#f9a46a" stroke="rgba(0,0,0,0)" stroke-width="1"/>
        </g>
      </g>
      <rect id="Rectangle_3528" data-name="Rectangle 3528" width="267" height="267" transform="translate(0.254 0.145)" fill="none"/>
    </g>
  </g>
</svg>
