<svg xmlns="http://www.w3.org/2000/svg" width="36" height="36" viewBox="0 0 36 36"><g><g><g/><g><g><g><path fill="#fff" d="M21.086 17.968a3.122 3.122 0 0 1-3.119 3.118 3.122 3.122 0 0 1-3.117-3.118 3.121 3.121 0 0 1 3.117-3.118 3.121 3.121 0 0 1 3.119 3.118zm1.133 0a4.256 4.256 0 0 0-4.252-4.252 4.257 4.257 0 0 0-4.251 4.252 4.256 4.256 0 0 0 4.251 4.251 4.256 4.256 0 0 0 4.252-4.251z"/></g></g><g><g><path fill="#fff" d="M24.721 9.334c1.072 0 1.945.872 1.945 1.944v13.444a1.947 1.947 0 0 1-1.945 1.944H11.277a1.947 1.947 0 0 1-1.944-1.944V11.278c0-1.072.872-1.944 1.944-1.944zM28 24.722V11.278A3.282 3.282 0 0 0 24.72 8H11.277A3.281 3.281 0 0 0 8 11.278v13.444A3.281 3.281 0 0 0 11.277 28h13.444A3.282 3.282 0 0 0 28 24.722z"/></g></g><g><path fill="#fff" d="M23.279 11.908a.777.777 0 1 1 1.553 0 .777.777 0 0 1-1.553 0z"/></g></g></g></g></svg>