<svg xmlns="http://www.w3.org/2000/svg" width="240" height="65" viewBox="0 0 240 65"><g><g><g/><g><g><g><g><g><path fill="#b41f28" d="M47.397 42.698l-.398-.504-6.114 7.75-6.11-7.754-.375.474a18.923 18.923 0 0 1-4.152 3.876L40.882 60l10.631-13.452a18.961 18.961 0 0 1-4.116-3.85z"/></g></g><g><g><path fill="#b41f28" d="M40.884 20.506L23.579 42.374l-3.981 5.03c5.029 0 9.781-2.3 12.9-6.244l8.386-10.604 8.415 10.637a16.45 16.45 0 0 0 12.877 6.243h.015l-3.981-5.04z"/></g></g><g><g><path fill="#b41f28" d="M29.473 30.557c-3.22 0-12.221-5.698-12.221-10.797C17.252 12.091 31.91 5 31.91 5S10 8.62 10 20.505c0 7.791 11.37 18.437 13.021 18.437z"/></g></g><g><g><path fill="#b41f28" d="M49.854 5s14.659 7.091 14.659 14.76c0 5.1-9.002 10.797-12.221 10.797l6.452 8.385c1.651 0 13.02-10.646 13.02-18.437C71.764 8.62 49.854 5 49.854 5z"/></g></g></g></g><g><g><g><path fill="#fff" d="M88.077 30.237l1.909-6.035.236-.775h.083l.221.706 1.966 6.104zm4.844-11.475h-5.26l-6.007 17.11-1.412.206v2.838h7.544v-2.838l-1.315-.248.581-2.188h6.478l.609 2.188-1.315.248v2.838h7.53v-2.838l-1.412-.207z"/></g><g><path fill="#fff" d="M102.899 21.614l2.076.443v13.579l-2.076.443v2.837h9.024V36.08l-2.09-.443V22.472h5.039l.138 1.8h3.572v-5.51h-15.683z"/></g><g><path fill="#fff" d="M132.985 27.56c-.513.54-1.262.81-2.25.81h-2.851v-5.898h2.851c.988 0 1.737.282 2.25.844.512.563.768 1.283.768 2.16 0 .85-.256 1.543-.768 2.083zm1.93-7.954c-1.181-.562-2.574-.844-4.18-.844h-9.8v2.852l2.09.443v13.58l-2.09.441v2.838h9.039v-2.838l-2.09-.442v-3.544h2.851c1.606 0 2.999-.277 4.18-.83 1.181-.554 2.093-1.329 2.734-2.326.642-.997.962-2.159.962-3.488 0-1.329-.32-2.494-.962-3.495-.641-1-1.553-1.784-2.734-2.347z"/></g><g><path fill="#fff" d="M155.626 28.992c0 1.31-.189 2.454-.567 3.432-.379.98-.928 1.74-1.647 2.284-.72.545-1.588.817-2.603.817-1.07 0-1.954-.27-2.65-.81-.697-.54-1.214-1.3-1.551-2.284-.337-.982-.505-2.129-.505-3.439v-.347c0-1.31.166-2.449.498-3.418.332-.969.842-1.722 1.53-2.257.687-.535 1.571-.803 2.651-.803 1.024 0 1.896.272 2.615.817.721.545 1.272 1.304 1.655 2.277.383.974.574 2.102.574 3.384zm2.042-7.586a9.535 9.535 0 0 0-3.08-2.159c-1.172-.517-2.441-.776-3.806-.776-1.394 0-2.672.26-3.835.776a9.12 9.12 0 0 0-3.024 2.16 9.8 9.8 0 0 0-1.98 3.238c-.466 1.237-.699 2.58-.699 4.028v.32c0 1.457.233 2.806.699 4.047a9.722 9.722 0 0 0 1.987 3.246 9.092 9.092 0 0 0 3.038 2.153c1.167.512 2.448.768 3.841.768 1.357 0 2.621-.256 3.793-.768a9.387 9.387 0 0 0 3.073-2.153 9.953 9.953 0 0 0 2.049-3.246c.489-1.24.733-2.59.733-4.048v-.319c0-1.449-.244-2.79-.733-4.028a9.936 9.936 0 0 0-2.056-3.239z"/></g><g><path fill="#fff" d="M162.36 24.7h3.667l.125-2.173h3.114v13.109l-2.104.443v2.837h9.067V36.08l-2.104-.443V22.527h3.142l.11 2.174h3.71v-5.939H162.36z"/></g><g><path fill="#fff" d="M195.56 35.165h-5.633v-4.803h6.436V26.64h-6.436v-4.14h5.37l.111 2.077h3.668v-5.814h-16.098v2.852l2.09.443v13.579l-2.09.443v2.837h16.32v-5.924h-3.627z"/></g><g><path fill="#fff" d="M230.56 21.614v-2.852h-9.4l-4.734 13.275h-.083l-4.872-13.275h-9.509v2.852l2.076.443v13.579l-2.076.443v2.837H211V36.08l-2.34-.443v-3.295l-.332-8.637.097-.014 5.786 15.226h3.82l5.703-15.406.083.014-.11 9.482v2.63l-2.174.443v2.837h9.025V36.08l-2.09-.443v-13.58z"/></g></g><g><g><path fill="#fff" d="M83.807 49.091v1.446h-1.432c-.554 0-.884-.267-.884-.723 0-.449.33-.723.884-.723zm-3.095.688c0 .681.4 1.193 1.095 1.354l-1.565 2.162h.933l1.48-2.077h1.152v2.077h.771v-4.912H82.34c-1.01 0-1.628.554-1.628 1.396z"/></g><g><path fill="#fff" d="M91.955 48.383h-.99l-2.013 2.007v-2.007h-.772v4.912h.772v-2.358l2.316 2.358h1.052l-2.638-2.667z"/></g><g><path fill="#fff" d="M95.382 53.295v-4.912h.772v4.912z"/></g><g><path fill="#fff" d="M100.936 52.151c-.344-.344-.519-.786-.519-1.312s.168-.96.512-1.305c.344-.344.779-.52 1.291-.52.484 0 .926.127 1.326.386v-.778a2.659 2.659 0 0 0-1.333-.33c-.744 0-1.361.238-1.852.722-.491.477-.737 1.088-.737 1.825 0 .737.246 1.347.737 1.831.498.477 1.115.716 1.852.716.555 0 1.032-.134 1.439-.393v-.779c-.379.302-.849.45-1.404.45-.526 0-.961-.169-1.312-.513z"/></g><g><path fill="#fff" d="M110.313 50.32h-2.561v-1.937h-.772v4.912h.772v-2.267h2.561v2.267h.772v-4.912h-.772z"/></g><g><path fill="#fff" d="M118.237 52.144c-.33.344-.737.52-1.221.52-.484 0-.892-.176-1.221-.52-.33-.35-.491-.786-.491-1.305 0-.52.161-.955.491-1.299.329-.35.737-.526 1.221-.526.484 0 .891.176 1.221.526.329.344.498.78.498 1.3 0 .518-.169.953-.498 1.304zm-1.221-3.852c-.723 0-1.319.245-1.797.736-.47.485-.708 1.088-.708 1.811 0 .722.238 1.326.708 1.817.478.484 1.074.73 1.797.73.722 0 1.319-.246 1.796-.73.477-.49.716-1.095.716-1.817 0-.723-.239-1.326-.716-1.81-.477-.492-1.074-.737-1.796-.737z"/></g><g><path fill="#fff" d="M139.827 52.586h-2.386c.246-.4.414-.877.513-1.432.098-.554.147-1.24.147-2.063h1.726zm.772-4.203h-3.249v.68c0 .906-.063 1.63-.182 2.155-.12.526-.309.982-.569 1.368h-.47v1.761h.73v-1.052h3.719v1.052h.73v-1.76h-.709z"/></g><g><path fill="#fff" d="M145.119 50.067c-.021.898-.063 1.445-.196 1.894-.119.45-.344.646-.688.646a.915.915 0 0 1-.259-.028v.702c.07.021.168.035.301.035.611 0 1.011-.246 1.242-.807.232-.569.323-1.263.344-2.365l.021-1.053h1.754v4.204h.772v-4.912h-3.269z"/></g><g><path fill="#fff" d="M155.17 49.091v1.446h-1.432c-.554 0-.884-.267-.884-.723 0-.449.33-.723.884-.723zm-3.095.688c0 .681.4 1.193 1.095 1.354l-1.565 2.162h.933l1.481-2.077h1.151v2.077h.771v-4.912h-2.238c-1.01 0-1.628.554-1.628 1.396z"/></g><g><path fill="#fff" d="M166.024 52.586h-1.502v-1.544h1.502c.61 0 .961.274.961.758 0 .498-.365.786-.961.786zm-1.502-3.495h1.326c.513 0 .815.218.815.632 0 .414-.302.64-.815.64h-1.326zm2.253 1.51c.372-.14.652-.506.652-1.01 0-.759-.568-1.208-1.445-1.208h-2.231v4.912h2.413c.512 0 .912-.127 1.207-.379.302-.253.449-.59.449-1.004 0-.722-.449-1.199-1.045-1.312z"/></g><g><path fill="#fff" d="M172.349 51.393l.898-2.063.898 2.063zm.533-3.038l-2.147 4.94h.821l.526-1.22h2.329l.534 1.22h.827l-2.146-4.94z"/></g><g><path fill="#fff" d="M181.016 52.663c-.526 0-.961-.168-1.312-.512-.343-.344-.519-.786-.519-1.312s.168-.96.512-1.305c.344-.344.779-.52 1.291-.52.484 0 .926.127 1.327.386v-.778a2.66 2.66 0 0 0-1.334-.33c-.743 0-1.361.238-1.852.722-.491.477-.737 1.088-.737 1.825 0 .737.246 1.347.737 1.831.498.477 1.116.716 1.852.716.555 0 1.032-.134 1.439-.393v-.779c-.379.302-.849.45-1.404.45z"/></g><g><path fill="#f9a46a" d="M127.09 50.586a.912.912 0 1 1 1.824 0 .912.912 0 0 1-1.825 0z"/></g></g></g></g></g></g></svg>