<svg xmlns="http://www.w3.org/2000/svg" width="100" height="70" viewBox="0 0 100 70"><g><g><g/><g><g><g><g><g><path fill="#b41f28" d="M54.749 27.308l-.236-.298-3.618 4.586-3.616-4.588-.221.28a11.23 11.23 0 0 1-2.457 2.294l6.293 7.965 6.29-7.96a11.216 11.216 0 0 1-2.435-2.279z"/></g></g><g><g><path fill="#b41f28" d="M50.895 14.176l-10.241 12.94-2.356 2.977a9.732 9.732 0 0 0 7.634-3.695l4.963-6.275 4.979 6.294a9.734 9.734 0 0 0 7.62 3.695h.009l-2.356-2.983z"/></g></g><g><g><path fill="#b41f28" d="M44.142 20.124c-1.905 0-7.232-3.372-7.232-6.39C36.91 9.196 45.584 5 45.584 5s-12.965 2.142-12.965 9.175c0 4.61 6.728 10.91 7.705 10.91z"/></g></g><g><g><path fill="#b41f28" d="M56.203 5s8.674 4.196 8.674 8.734c0 3.018-5.327 6.39-7.232 6.39l3.818 4.961c.978 0 7.705-6.3 7.705-10.91C69.168 7.142 56.203 5 56.203 5z"/></g></g></g><g><g><path fill="#f9a46a" d="M15.317 31.575v-.512H28.27v.512z"/></g><g><path fill="#f9a46a" d="M17.21 28.912a.79.79 0 0 0 .324-.647.66.66 0 0 0-.17-.465.86.86 0 0 0-.399-.258.752.752 0 0 0 .312-.211.554.554 0 0 0 .141-.39.68.68 0 0 0-.29-.574c-.196-.145-.449-.216-.765-.216-.332 0-.639.075-.922.22v.42a2.01 2.01 0 0 1 .897-.212c.382 0 .627.137.627.386 0 .245-.203.391-.556.391h-.415v.419h.361c.427 0 .71.183.71.453 0 .311-.303.51-.797.51-.32 0-.698-.108-.951-.27v.449c.27.166.606.249 1.017.249.37 0 .66-.083.876-.254z"/></g><g><path fill="#f9a46a" d="M19.932 26.766l.532 1.221h-1.063zm.689 1.623l.316.723h.49l-1.271-2.923h-.44l-1.27 2.923h.485l.312-.723z"/></g><g><path fill="#f9a46a" d="M23.767 26.58c.286 0 .548.074.784.227v-.46a1.573 1.573 0 0 0-.789-.196c-.44 0-.805.142-1.096.428-.29.282-.436.644-.436 1.08 0 .436.146.797.436 1.083.295.283.66.424 1.096.424.328 0 .611-.079.852-.233v-.46c-.225.178-.503.265-.831.265-.31 0-.569-.1-.776-.303a1.055 1.055 0 0 1-.308-.776c0-.312.1-.569.303-.773.204-.203.461-.307.765-.307z"/></g><g><path fill="#f9a46a" d="M25.836 26.205v2.907h.457V27.77h1.515v1.34h.457v-2.906h-.457v1.146h-1.515v-1.146z"/></g><g><path fill="#f9a46a" d="M15.317 23.979v-.513H28.27v.513z"/></g></g><g><g><path fill="#f9a46a" d="M74.352 31.575v-.512h11.284v.512z"/></g><g><path fill="#f9a46a" d="M74.352 23.979v-.513h11.284v.513z"/></g><g><path fill="#f9a46a" d="M76.372 28.705H75.01l.628-.598c.232-.22.394-.411.49-.565.095-.157.145-.336.145-.535a.758.758 0 0 0-.29-.619 1.058 1.058 0 0 0-.699-.237c-.332 0-.618.1-.859.303v.478c.253-.24.527-.36.814-.36.345 0 .577.194.577.49a.704.704 0 0 1-.125.397 2.976 2.976 0 0 1-.427.465l-.914.856v.332h2.022z"/></g><g><path fill="#f9a46a" d="M78.156 26.895c.141-.212.324-.316.552-.316.229 0 .415.104.557.311.141.208.211.466.211.769s-.07.56-.211.768c-.142.207-.328.311-.557.311-.228 0-.411-.104-.552-.311a1.348 1.348 0 0 1-.212-.768c0-.303.071-.557.212-.764zm.552 2.271c.37 0 .67-.145.89-.436.223-.295.335-.652.335-1.07 0-.421-.112-.774-.336-1.068a1.054 1.054 0 0 0-.889-.441c-.369 0-.664.146-.888.441-.22.294-.333.647-.333 1.067 0 .419.113.776.333 1.071.224.291.519.436.888.436z"/></g><g><path fill="#f9a46a" d="M81.749 26.895c.142-.212.324-.316.553-.316.228 0 .415.104.556.311.141.208.212.466.212.769s-.071.56-.212.768c-.141.207-.328.311-.556.311-.229 0-.411-.104-.553-.311a1.348 1.348 0 0 1-.212-.768c0-.303.071-.557.212-.764zm.553 2.271c.369 0 .668-.145.888-.436.224-.295.337-.652.337-1.07 0-.421-.113-.774-.337-1.068a1.054 1.054 0 0 0-.888-.441c-.37 0-.665.146-.889.441-.22.294-.332.647-.332 1.067 0 .419.112.776.332 1.071.224.291.519.436.889.436z"/></g><g><path fill="#f9a46a" d="M85.621 29.112v-2.907h-.399l-.685.387v.444l.636-.34v2.416z"/></g></g></g><g><g><g/><g/><g/><g/><g/><g/><g/><g/><g/><g/><g><path fill="#fff" d="M10.637 50.733l1.13-3.572.139-.458h.05l.13.418 1.164 3.612zm2.866-6.791h-3.112L6.836 54.067 6 54.189v1.68h4.465v-1.68l-.779-.147.344-1.294h3.834l.36 1.294-.778.147v1.68h4.456v-1.68l-.835-.122z"/></g><g><path fill="#fff" d="M19.408 45.63l1.228.262v8.035l-1.228.262v1.68h5.34v-1.68l-1.236-.262v-7.79h2.981l.082 1.065h2.113v-3.26h-9.28z"/></g><g><path fill="#fff" d="M37.211 49.148c-.303.319-.746.48-1.331.48h-1.687v-3.49h1.687c.585 0 1.028.166 1.331.5.304.332.455.758.455 1.277 0 .502-.151.913-.455 1.233zm2.761-3.318c-.38-.592-.919-1.055-1.618-1.388-.699-.333-1.523-.5-2.474-.5h-5.799v1.688l1.237.262v8.035l-1.237.262v1.68h5.35v-1.68l-1.238-.262V51.83h1.687c.951 0 1.775-.163 2.474-.491.699-.328 1.238-.786 1.618-1.376.38-.59.569-1.278.569-2.065 0-.786-.19-1.475-.569-2.068z"/></g><g><path fill="#fff" d="M50.61 49.996c0 .775-.112 1.452-.336 2.031-.224.58-.549 1.029-.975 1.351-.426.323-.939.484-1.539.484-.634 0-1.157-.16-1.569-.479-.412-.32-.718-.77-.918-1.352-.199-.58-.299-1.26-.299-2.035v-.205c0-.776.099-1.45.295-2.023.197-.574.5-1.019.906-1.336.406-.316.929-.475 1.568-.475.606 0 1.122.161 1.548.483.426.323.752.772.979 1.348.227.576.34 1.244.34 2.003zm2.859-.189c0-.857-.145-1.652-.434-2.383a5.87 5.87 0 0 0-1.217-1.917 5.648 5.648 0 0 0-1.822-1.278 5.523 5.523 0 0 0-2.253-.459c-.825 0-1.581.153-2.269.459a5.403 5.403 0 0 0-1.79 1.278 5.808 5.808 0 0 0-1.17 1.917 6.695 6.695 0 0 0-.415 2.383v.19c0 .862.138 1.66.414 2.395a5.777 5.777 0 0 0 1.175 1.92 5.381 5.381 0 0 0 1.798 1.274c.691.303 1.45.455 2.274.455.802 0 1.55-.152 2.244-.455a5.541 5.541 0 0 0 1.818-1.274 5.902 5.902 0 0 0 1.213-1.92 6.49 6.49 0 0 0 .434-2.396z"/></g><g><path fill="#fff" d="M54.594 47.456h2.17l.074-1.286h1.844v7.757l-1.245.262v1.68h5.365v-1.68l-1.245-.262V46.17h1.86l.065 1.286h2.195v-3.514H54.594z"/></g><g><path fill="#fff" d="M76.453 52.363h-2.146l-.066 1.286h-3.334v-2.842h3.81v-2.204h-3.81v-2.45h3.179l.065 1.23h2.171v-3.44h-9.526v1.687l1.237.262v8.035l-1.237.262v1.68h9.657z"/></g><g><path fill="#fff" d="M94.952 45.63v-1.688h-5.561l-2.802 7.856h-.05l-2.882-7.856h-5.628v1.688l1.23.262v8.035l-1.23.262v1.68h5.35v-1.68l-1.385-.262v-1.95l-.197-5.11.058-.009 3.424 9.01h2.26l3.375-9.116.05.008-.066 5.611v1.556l-1.286.262v1.68h5.34v-1.68l-1.236-.262v-8.035z"/></g><g><path fill="#fff" d="M22.353 61.89v.855h-.847c-.328 0-.523-.157-.523-.427 0-.266.195-.428.523-.428zm-1.831.407c0 .403.237.706.648.801l-.926 1.28h.552l.876-1.23h.681v1.23h.457V61.47h-1.324c-.598 0-.964.328-.964.826z"/></g><g><path fill="#fff" d="M27.175 61.47h-.585l-1.192 1.188v-1.187h-.457v2.906h.457v-1.395l1.37 1.395h.623l-1.56-1.578z"/></g><g><path fill="#fff" d="M29.203 64.377v-2.906h.457v2.906z"/></g><g><path fill="#fff" d="M32.49 63.7a1.054 1.054 0 0 1-.307-.776 1.042 1.042 0 0 1 1.067-1.08c.286 0 .548.075.785.229v-.461a1.575 1.575 0 0 0-.789-.195c-.44 0-.806.141-1.097.427-.29.283-.436.644-.436 1.08 0 .436.146.797.436 1.084.295.282.661.423 1.097.423.328 0 .61-.079.851-.232v-.461c-.224.178-.502.266-.831.266-.31 0-.568-.1-.776-.304z"/></g><g><path fill="#fff" d="M38.039 62.617h-1.516V61.47h-.456v2.906h.456v-1.341h1.516v1.341h.456v-2.906h-.456z"/></g><g><path fill="#fff" d="M42.728 63.696a.962.962 0 0 1-.723.308.962.962 0 0 1-.722-.308 1.082 1.082 0 0 1-.29-.772c0-.307.095-.565.29-.768a.951.951 0 0 1 .722-.312c.287 0 .528.104.723.312.195.203.294.461.294.768s-.099.565-.294.772zm-.723-2.279c-.427 0-.78.145-1.063.436a1.477 1.477 0 0 0-.419 1.071c0 .428.141.785.419 1.075a1.43 1.43 0 0 0 1.063.432c.428 0 .781-.145 1.063-.432.283-.29.424-.647.424-1.075a1.46 1.46 0 0 0-.424-1.071 1.416 1.416 0 0 0-1.063-.436z"/></g><g><path fill="#fff" d="M55.504 63.958h-1.412c.146-.237.245-.519.304-.847.058-.328.087-.735.087-1.221h1.021zm.457-2.487h-1.923v.402c0 .536-.037.964-.108 1.275a2.36 2.36 0 0 1-.336.81h-.278V65h.432v-.623h2.2V65h.432v-1.042h-.419z"/></g><g><path fill="#fff" d="M58.636 62.467c-.013.532-.038.855-.116 1.121-.071.266-.204.382-.407.382a.522.522 0 0 1-.154-.017v.416c.042.013.1.021.178.021.362 0 .599-.146.736-.478.137-.336.191-.747.203-1.399l.012-.623h1.04v2.487h.455v-2.906h-1.935z"/></g><g><path fill="#fff" d="M64.583 61.89v.855h-.847c-.328 0-.523-.157-.523-.427 0-.266.195-.428.523-.428zm-1.83.407c0 .403.236.706.647.801l-.926 1.28h.552l.876-1.23h.681v1.23h.457V61.47h-1.325c-.598 0-.963.328-.963.826z"/></g><g><path fill="#fff" d="M71.006 63.958h-.888v-.914h.888c.362 0 .57.162.57.449 0 .295-.217.465-.57.465zm-.888-2.068h.785c.303 0 .481.129.481.374s-.178.378-.48.378h-.786zm1.333.893c.22-.083.386-.299.386-.598 0-.449-.336-.714-.856-.714h-1.32v2.906h1.428c.304 0 .54-.075.715-.224a.737.737 0 0 0 .265-.594c0-.427-.265-.71-.618-.776z"/></g><g><path fill="#fff" d="M74.749 63.252l.532-1.221.531 1.221zm.316-1.798l-1.27 2.923h.485l.311-.722h1.379l.315.722h.49l-1.27-2.923z"/></g><g><path fill="#fff" d="M79.102 63.7a1.054 1.054 0 0 1-.307-.776 1.042 1.042 0 0 1 1.067-1.08c.286 0 .548.075.785.229v-.461a1.575 1.575 0 0 0-.789-.195c-.441 0-.806.141-1.097.427-.29.283-.436.644-.436 1.08 0 .436.146.797.436 1.084.295.282.661.423 1.097.423.328 0 .61-.079.851-.232v-.461c-.224.178-.503.266-.831.266-.311 0-.568-.1-.776-.304z"/></g></g><g><path fill="#f9a46a" d="M47.966 62.775a.54.54 0 1 1 1.08 0 .54.54 0 0 1-1.08 0z"/></g></g></g></g></g></svg>