<svg xmlns="http://www.w3.org/2000/svg" width="94" height="18" viewBox="0 0 94 18"><g><g><g><g><g><g><g><path fill="#b41f28" d="M38 9a9 9 0 1 1 18 0 9 9 0 0 1-18 0z"/></g></g></g></g><g><g><g><g><path fill="#fff" d="M51.241 8.202l-.533.035.231.482c.166.345.27.64.325.93.205 1.058-.03 2.06-.66 2.826-.755.915-2.032 1.439-3.503 1.439h-.083c-1.546-.02-2.88-.596-3.66-1.58-.626-.79-.837-1.756-.608-2.794.058-.26.151-.522.295-.823l.227-.478-.528-.038c-.476-.035-.83-.207-1.086-.528-.484-.61-.48-1.587-.448-2.045.232-.036.598-.08.992-.08.556 0 1.007.088 1.306.256.458.258.76.543.873.826l.15.375.355-.19a4.545 4.545 0 0 1 2.162-.533h.002a4.505 4.505 0 0 1 2.06.539l.36.193.148-.38c.111-.284.413-.571.873-.83.3-.168.75-.256 1.306-.256.394 0 .76.044.992.08.033.459.036 1.44-.45 2.049-.258.32-.617.493-1.098.525zm1.88-2.883s-.614-.133-1.324-.133c-.508 0-1.065.068-1.483.303-.565.317-.895.66-1.033 1.014a4.864 4.864 0 0 0-2.226-.583h-.06a4.853 4.853 0 0 0-2.278.576c-.14-.35-.47-.692-1.032-1.007-.417-.235-.975-.303-1.483-.303-.71 0-1.323.133-1.323.133s-.49 3.074 1.84 3.242a4.214 4.214 0 0 0-.322.9c-.584 2.65 1.526 4.775 4.616 4.814h.088c3.041 0 5.03-2.056 4.518-4.694-.07-.362-.2-.697-.354-1.018 2.348-.156 1.855-3.244 1.855-3.244z"/></g></g></g><g><g><g><path fill="#fff" d="M48.143 10.236c0-.011-.004-.023-.004-.035 0-.16.046-.282.14-.372.252-.243.818-.248 1.26-.233-.015.476-.154.634-1.396.64zm0 0zm.265 1.837c.16.296.137.586.044.74-.064.109-.164.16-.304.16h-2.282c-.14 0-.239-.051-.303-.16-.093-.154-.116-.444.043-.74l.373-.695a.557.557 0 0 1 .466-.292h1.125c.182 0 .374.12.466.292zM44.55 9.6c.395-.01.93.002 1.174.237.092.09.136.209.136.37v.028c-1.158-.014-1.296-.174-1.31-.635zm5.151-.361c-.543-.02-1.282-.048-1.673.33a.842.842 0 0 0-.249.632c0 .197.036.398.078.582a.821.821 0 0 0-.286-.06h-1.125a.813.813 0 0 0-.277.056c.034-.171.06-.36.053-.578a.834.834 0 0 0-.246-.623c-.384-.372-1.105-.35-1.586-.337-.076.002-.146.004-.205.004v.362h.011c.044.765.4.97 1.642.988-.05.359-.172.604-.173.607l-.004.005-.372.695c-.348.648-.114 1.433.578 1.433h2.282c.693 0 .927-.785.58-1.433l-.373-.695-.012-.015.005-.001a4.068 4.068 0 0 1-.164-.595c1.282-.011 1.66-.22 1.708-.99h.003l.003-.111c0-.028.004-.05.004-.08H49.9l.003-.17z"/></g></g></g><g><g><g><path fill="#fff" d="M46.618 11.782a.31.31 0 0 0-.39.196l-.18.535.547-.137a.31.31 0 0 0 .023-.594z"/></g></g></g><g><g><g><path fill="#fff" d="M47.562 11.776a.31.31 0 1 0-.151.6l.548.137-.179-.535a.312.312 0 0 0-.218-.202z"/></g></g></g></g></g><g><g><g><g><g><path fill="#b41f28" d="M0 9a9 9 0 1 1 18 0A9 9 0 0 1 0 9z"/></g></g></g></g><g><g><g><g><path fill="#fff" d="M7.92 14.109c-.215 0-.389.121-.389.271 0 .15.174.271.388.271.214 0 .387-.121.387-.271 0-.15-.173-.271-.387-.271z"/></g></g></g><g><g><g><path fill="#fff" d="M10.062 14.109c-.214 0-.387.121-.387.271 0 .15.173.271.387.271.214 0 .388-.121.388-.271 0-.15-.174-.271-.388-.271z"/></g></g></g><g><g><g><path fill="#fff" d="M12.93 7.947c-.228.119-.47.195-.723.229l.02-.52.02-.494c.295-.07.56-.223.777-.453.411-.435.61-1.083.702-1.668l.123.208c.437 1.061.051 2.196-.919 2.698zm-1.982 5.384a3.323 3.323 0 0 0-.566-.371v-2.143c0-.076.024-.124.03-.195.46-.006.914-.06 1.247-.282-.063.351-.15.703-.278 1.056-.228.626-.354 1.275-.433 1.935zm.782-3.88c-.08.586-.48.753-1.258.773.07-.251.174-.461.343-.589.301-.229.692-.214.915-.184zm-1.074 5.516a.7.7 0 0 1-.499.208H7.822a.702.702 0 0 1-.703-.712l-.03-.669s.318-.273.494-.382l.391-.207v-2.388c0-.697-.199-1.201-.59-1.495-.399-.302-.874-.297-1.166-.261l-.064-1.849 1.161-.251a7.943 7.943 0 0 1 3.356-.003l1.18.254-.016.43-.058 1.422c-.288-.04-.784-.053-1.196.258-.39.294-.59.798-.59 1.495v2.382l.391.202c.183.111.514.393.514.393l-.037.672a.703.703 0 0 1-.203.501zm-4.42-5.516c.221-.032.608-.047.913.183.17.128.274.338.344.59-.778-.02-1.178-.187-1.258-.773zm.363 1.932a6.098 6.098 0 0 1-.268-1.026c.331.209.775.259 1.223.265.005.071.03.119.03.195v2.153a3.382 3.382 0 0 0-.55.364c-.079-.662-.205-1.318-.435-1.951zM5.07 7.947C4.1 7.445 3.713 6.31 4.125 5.298l.15-.252c.092.583.291 1.229.7 1.663.218.231.484.384.78.454l.037 1.013a2.196 2.196 0 0 1-.723-.229zM14.211 5.1l-.802-1.364s.174 3.079-1.544 3.079l-1.11-.239a8.356 8.356 0 0 0-3.522.003l-1.099.237v-.001c-1.718 0-1.543-3.079-1.543-3.079L3.788 5.1c-.53 1.289-.025 2.611 1.101 3.194.28.145.594.223.92.259l.023.68.03.459c.04.623.156 1.238.37 1.825.342.942.51 1.938.496 2.941a1.094 1.094 0 0 0 1.094 1.108h2.335c.608 0 1.1-.496 1.093-1.104v-.018c-.01-.993.16-1.98.498-2.914l.013-.035a6.541 6.541 0 0 0 .388-1.951l.04-.991c.327-.036.642-.114.921-.259 1.126-.583 1.632-1.905 1.101-3.194z"/></g></g></g></g></g><g><g><g><g><g><path fill="#b41f28" d="M76 9a9 9 0 1 1 18 0 9 9 0 0 1-18 0z"/></g></g></g></g><g><g><g><g/></g></g><g><g><g/></g></g><g><g><g/></g></g><g><g><g/></g></g><g><g><g><path fill="#fff" d="M83.092 8.731a.49.49 0 1 0 .001.979.49.49 0 0 0 0-.979z"/></g></g></g><g><g><g><path fill="#fff" d="M86.901 8.731a.49.49 0 1 0 0 .98.49.49 0 0 0 0-.98z"/></g></g></g><g><g><g><path fill="#fff" d="M88.058 13.148a.963.963 0 0 1-.614-.233c-.21-.148-.338-.423-.402-.719-.127.508.156 1.143.664 1.44l-.717.246s-.628-.234-.963-.734a2.18 2.18 0 0 1-.38-.995l.401-.402a.682.682 0 0 0 .678-.677v-.02a.683.683 0 0 0-.678-.679L84.99 9.338l-1.037 1.037a.706.706 0 0 0-.699.7c0 .36.318.676.7.676l.38.381c-.042.381-.19.72-.38 1.016-.234.34-.594.614-.91.72l-.742-.254c.508-.318.741-.93.614-1.418-.043.296-.17.571-.38.72a.953.953 0 0 1-.594.232V9.275c0-1.334.89-2.498 2.096-2.879l.952 1.27.952-1.27a3.03 3.03 0 0 1 2.117 2.88zm-3.937-1.82h-.169c-.148 0-.275-.127-.275-.254 0-.085.042-.148.084-.19a.271.271 0 0 1 .191-.085h.17l.867-.868.89.868h.168c.148 0 .254.127.254.254v.021a.257.257 0 0 1-.254.254h-.169l-.127.127-.762.741zm.868 3.281l-1.29-.487c.253-.233.422-.529.528-.826.148-.359.191-.74.17-1.1l.592.592.571-.57c0 .36.064.72.191 1.078.127.318.275.593.53.847zM84.46 3.92c0-.297.233-.55.53-.55a.56.56 0 0 1 .55.55v2.307l-.043.042-.508.7-.487-.7-.042-.042zm1.503 2.031v-2.03a.971.971 0 0 0-.974-.975.966.966 0 0 0-.952.974v2.031a3.455 3.455 0 0 0-2.519 3.324v4.508l1.778.656 1.693.614 1.672-.614 1.82-.656V9.275a3.455 3.455 0 0 0-2.518-3.324z"/></g></g></g></g></g></g></g></svg>