<svg xmlns="http://www.w3.org/2000/svg" xmlns:xlink="http://www.w3.org/1999/xlink" width="26" height="26" viewBox="0 0 26 26"><defs><style>.a{fill:none;stroke:#707070;}.b{fill:#b41f28;}.c{clip-path:url(#a);}.d{fill:#fff;}</style><clipPath id="a"><rect class="a" width="16" height="16" transform="translate(115 1701.999)"/></clipPath></defs><g transform="translate(-110 -1696.999)"><circle class="b" cx="13" cy="13" r="13" transform="translate(110 1696.999)"/><g class="c"><g transform="translate(118.992 1704.332)"><g transform="translate(0 0)"><path class="d" d="M43.937,4.359,37.242.232a1.548,1.548,0,0,0-2.359,1.318V9.766a1.564,1.564,0,0,0,1.545,1.568h.007a1.553,1.553,0,0,0,.8-.241.442.442,0,1,0-.46-.755.678.678,0,0,1-.344.112.687.687,0,0,1-.665-.684V1.551A.664.664,0,0,1,36.779.985l6.694,4.127a.664.664,0,0,1,0,1.133L38.63,9.208a.442.442,0,0,0,.462.754L43.931,7a1.548,1.548,0,0,0,.006-2.639Z" transform="translate(-34.883 0)"/></g></g></g></g></svg>