<svg xmlns="http://www.w3.org/2000/svg" xmlns:xlink="http://www.w3.org/1999/xlink" width="80" height="80" viewBox="0 0 80 80"><defs><style>.a{fill:none;stroke:#707070;}.b{clip-path:url(#a);}.c{opacity:0.4;}.d{fill:#f9a46a;}</style><clipPath id="a"><rect class="a" width="80" height="80" transform="translate(649 1570)"/></clipPath></defs><g class="b" transform="translate(-649 -1570)"><g class="c" transform="translate(662.993 1582)"><g transform="translate(0 0)"><path class="d" d="M4.878,23.007V39.877a.821.821,0,0,0,1.641,0V23.007a4.7,4.7,0,0,0,3.047-1.969,4.683,4.683,0,0,0,7.736,0,4.683,4.683,0,0,0,7.736,0,4.683,4.683,0,0,0,7.736,0,4.683,4.683,0,0,0,7.736,0,4.683,4.683,0,0,0,7.736,0,4.7,4.7,0,0,0,3.047,1.969v3.085a.821.821,0,0,0,1.641,0V23.007A4.7,4.7,0,0,0,56.8,18.392v-2.1h0a.819.819,0,0,0-.087-.371L49.481,1.66A3.016,3.016,0,0,0,46.778,0H11.034a3.017,3.017,0,0,0-2.7,1.66L1.1,15.921a.819.819,0,0,0-.087.371h0v2.1a4.7,4.7,0,0,0,3.868,4.615Zm.82-1.568a3.051,3.051,0,0,1-3.047-3.047V17.113H8.746v1.279A3.051,3.051,0,0,1,5.7,21.439Zm14.008-19.8L16.644,15.472H10.739L15.777,1.641Zm5.66,0L24.28,15.472H18.324L21.387,1.641Zm5.434,0,1.087,13.831H25.926L27.012,1.641Zm5.625,0,3.063,13.831H33.533L32.446,1.641Zm5.61,0,5.038,13.831H41.169L38.106,1.641Zm-28.6,19.8a3.051,3.051,0,0,1-3.047-3.047V17.113h6.095v1.279A3.051,3.051,0,0,1,13.434,21.439Zm7.736,0a3.051,3.051,0,0,1-3.047-3.047V17.113h6.095v1.279A3.051,3.051,0,0,1,21.17,21.439Zm7.736,0a3.051,3.051,0,0,1-3.047-3.047V17.113h6.095v1.279a3.051,3.051,0,0,1-3.047,3.047Zm7.736,0a3.051,3.051,0,0,1-3.047-3.047V17.113h6.095v1.279A3.051,3.051,0,0,1,36.642,21.439Zm7.736,0a3.051,3.051,0,0,1-3.047-3.047V17.113h6.095v1.279A3.051,3.051,0,0,1,44.378,21.439Zm7.736,0a3.051,3.051,0,0,1-3.047-3.047V17.113h6.095v1.279A3.051,3.051,0,0,1,52.114,21.439ZM48.017,2.4l6.628,13.07H48.82L43.782,1.641h3A1.383,1.383,0,0,1,48.017,2.4ZM9.795,2.4a1.383,1.383,0,0,1,1.24-.761h3L8.992,15.472H3.167Z" transform="translate(-0.899 0)"/><path class="d" d="M223.056,252.541a.82.82,0,0,0-.82.82V272.37a.82.82,0,0,0,.82.82H245.6a.82.82,0,0,0,.82-.82V253.361a.82.82,0,0,0-.82-.82Zm.821,1.641h20.9v13.831h-20.9Zm20.9,17.367h-20.9v-1.9h20.9Z" transform="translate(-197.923 -224.945)"/><path class="d" d="M158.406,334.364a.82.82,0,0,0-.821.82v4.42a.821.821,0,0,0,1.641,0v-4.42A.82.82,0,0,0,158.406,334.364Z" transform="translate(-140.345 -297.808)"/><path class="d" d="M54.088,275.748H52.034V254.834a.821.821,0,1,0-1.641,0v20.914H22.417V253.361a.82.82,0,0,0-.821-.82H8.335a.82.82,0,0,0-.821.82v22.387H5.62v-7.13a.821.821,0,1,0-1.641,0v7.13H1.925A1.928,1.928,0,0,0,0,277.675V279a1.928,1.928,0,0,0,1.925,1.925H44.438a.82.82,0,1,0,0-1.641H1.925A.285.285,0,0,1,1.641,279v-1.326a.285.285,0,0,1,.284-.286H54.088a.285.285,0,0,1,.284.286V279a.285.285,0,0,1-.284.284H48.267a.82.82,0,1,0,0,1.641h5.821A1.928,1.928,0,0,0,56.013,279v-1.326A1.928,1.928,0,0,0,54.088,275.748ZM9.156,254.182H20.776v21.566H9.156Z" transform="translate(0 -224.945)"/><path class="d" d="M288.921,293.546,285.164,292a.821.821,0,0,0-.935.225l-1.081,1.261h-1.722a4.141,4.141,0,0,0-4.136,4.136v1.989a.82.82,0,0,0,.82.821h10.5a.82.82,0,0,0,.82-.821v-5.3A.82.82,0,0,0,288.921,293.546Zm-1.133,5.243h-8.858V297.62a2.5,2.5,0,0,1,2.495-2.495h2.1a.82.82,0,0,0,.623-.287l.94-1.1,2.7,1.112Z" transform="translate(-246.954 -260.02)"/></g></g></g></svg>