<svg xmlns="http://www.w3.org/2000/svg" xmlns:xlink="http://www.w3.org/1999/xlink" width="80" height="80" viewBox="0 0 80 80"><defs><style>.a{fill:none;stroke:#707070;}.b{clip-path:url(#a);}.c{opacity:0.4;}.d{fill:#f9a46a;}</style><clipPath id="a"><rect class="a" width="80" height="80" transform="translate(904 1570)"/></clipPath></defs><g class="b" transform="translate(-904 -1570)"><g class="c" transform="translate(915 1581)"><g transform="translate(19.162 14.097)"><path class="d" d="M20.935,15a.935.935,0,1,0,.935.935A.935.935,0,0,0,20.935,15Z" transform="translate(-20 -15)"/></g><g transform="translate(24.775 14.097)"><path class="d" d="M26.935,15a.935.935,0,1,0,.935.935A.935.935,0,0,0,26.935,15Z" transform="translate(-26 -15)"/></g><g transform="translate(19.261 17.42)"><path class="d" d="M23.747,21.776a3.938,3.938,0,0,1-3.543-2.19l-.1-.2,1.673-.837.1.2a2.091,2.091,0,0,0,3.74,0l.1-.2,1.673.837-.1.2A3.939,3.939,0,0,1,23.747,21.776Z" transform="translate(-20.106 -18.552)"/></g><g transform="translate(15.421 5.675)"><path class="d" d="M23.48,24.7A7.489,7.489,0,0,1,16,17.221V13.5A4.7,4.7,0,0,1,19.391,9l2.276-.65A2.926,2.926,0,0,1,24.532,6h.818V7.87h-.818A1.051,1.051,0,0,0,24.4,9.965l4.1.513a2.81,2.81,0,0,1,2.457,2.784v3.959A7.489,7.489,0,0,1,23.48,24.7ZM21.918,10.225,19.9,10.8a2.818,2.818,0,0,0-2.035,2.7v3.723a5.61,5.61,0,1,0,11.221,0V13.262a.936.936,0,0,0-.819-.928l-4.1-.513a2.922,2.922,0,0,1-2.252-1.6Z" transform="translate(-16 -6)"/></g><g transform="translate(11.675 12.227)"><path class="d" d="M16.946,20.48H15.74a3.74,3.74,0,0,1,0-7.48h.935v1.87H15.74a1.87,1.87,0,0,0,0,3.74h1.206Z" transform="translate(-12 -13)"/></g><g transform="translate(29.182 12.227)"><path class="d" d="M31.916,20.48H30.71V18.61h1.206a1.87,1.87,0,0,0,0-3.74h-.935V13h.935a3.74,3.74,0,0,1,0,7.48Z" transform="translate(-30.71 -13)"/></g><g transform="translate(7 22.579)"><path class="d" d="M13.545,52.99H8.87A1.872,1.872,0,0,1,7,51.12V35.95a8.389,8.389,0,0,1,7.032-8.3l4.366-.727.718-2.872,1.814.453-1.015,4.064-5.575.929A6.525,6.525,0,0,0,8.87,35.95V51.12h4.675Z" transform="translate(-7 -24.049)"/></g><g transform="translate(8.87 50.585)"><path class="d" d="M13.675,60.545H12.74A3.744,3.744,0,0,1,9,56.805V54h1.87v2.805a1.872,1.872,0,0,0,1.87,1.87h.935Z" transform="translate(-9 -54)"/></g><g transform="translate(13.545 47.779)"><path class="d" d="M14,51H32.7v1.87H14Z" transform="translate(-14 -51)"/></g><g transform="translate(21.968 29.078)"><path class="d" d="M23,31h1.87V59.987H23Z" transform="translate(-23 -31)"/></g><g transform="translate(25.71 42.162)"><path class="d" d="M27,45h1.87v1.87H27Z" transform="translate(-27 -45)"/></g><g transform="translate(25.71 38.42)"><path class="d" d="M27,41h1.87v1.87H27Z" transform="translate(-27 -41)"/></g><g transform="translate(12.61 32.818)"><path class="d" d="M33.571,61.182H13V36.87h1.87V59.311H31.7V35h4.675v1.87H33.571Z" transform="translate(-13 -35)"/></g><g transform="translate(38.813 6.61)"><path class="d" d="M50.351,22.9H48.48V10.74a1.87,1.87,0,1,0-3.74,0v1.514l-.885.441a1.784,1.784,0,0,0-.463,2.856L44.74,16.9v6H42.87V17.673l-.8-.8a3.654,3.654,0,0,1,.8-5.772V10.74a3.74,3.74,0,1,1,7.48,0Z" transform="translate(-41 -7)"/></g><g transform="translate(24.873 22.563)"><path class="d" d="M37.227,28.678H27.147L26.1,24.5l1.814-.453.69,2.759h8.62Z" transform="translate(-26.103 -24.049)"/></g><g transform="translate(18.601 25.511)"><path class="d" d="M23.7,31.922,19.4,28.7l1.122-1.5L23.7,29.584,26.88,27.2,28,28.7Z" transform="translate(-19.4 -27.2)"/></g><g transform="translate(22.32 26.004)"><path class="d" d="M29.148,36.136l-5.773-4.618,1.169-1.461,3.578,2.862,1.485-5.193,1.8.512Z" transform="translate(-23.375 -27.726)"/></g><g transform="translate(15.584 26.45)"><path class="d" d="M18.3,36.167l-2.128-7.451,1.8-.513L19.33,32.95l3.578-2.862,1.169,1.461Z" transform="translate(-16.175 -28.203)"/></g><g transform="translate(16.357 1)"><path class="d" d="M33.839,14.218l-1.774-.592.467-1.4A7.11,7.11,0,0,0,25.786,2.87H20.247a1.377,1.377,0,0,0-.615,2.608l.592.3-.836,1.673-.592-.3A3.247,3.247,0,0,1,20.247,1h5.539a8.98,8.98,0,0,1,8.519,11.82Z" transform="translate(-17 -1)"/></g><g transform="translate(12.61 2.87)"><path class="d" d="M13.569,9.364A4.243,4.243,0,0,1,17.241,3h.476V4.87h-.476a2.371,2.371,0,0,0-2.052,3.559Z" transform="translate(-13 -3)"/></g><g transform="translate(11.675 6.709)"><path class="d" d="M13.326,14.87a4.178,4.178,0,0,1,.984-6.79l1.948-.973.837,1.673-1.948.973A2.308,2.308,0,0,0,14.6,13.5Z" transform="translate(-12 -7.106)"/></g><g transform="translate(41.618 15.968)"><path class="d" d="M44,17h5.61v1.87H44Z" transform="translate(-44 -17)"/></g><g transform="translate(38.813 27.196)"><path class="d" d="M52.221,38.351H41V29H52.221ZM42.87,36.48h7.48V30.87H42.87Z" transform="translate(-41 -29)"/></g><g transform="translate(35.073 21.587)"><path class="d" d="M52.9,45.441H39.805A2.809,2.809,0,0,1,37,42.636V24.87A1.872,1.872,0,0,1,38.87,23H53.831a1.872,1.872,0,0,1,1.87,1.87V42.636A2.809,2.809,0,0,1,52.9,45.441ZM38.87,24.87V42.636a.936.936,0,0,0,.935.935H52.9a.936.936,0,0,0,.935-.935V24.87Z" transform="translate(-37 -23)"/></g><g transform="translate(36.943 12.227)"><path class="d" d="M53.961,23.286h-1.87V20.48a5.61,5.61,0,1,0-11.221,0v2.805H39V20.48a7.48,7.48,0,1,1,14.961,0Z" transform="translate(-39 -13)"/></g></g></g></svg>