<svg xmlns="http://www.w3.org/2000/svg" width="269.999" height="205.001" viewBox="0 0 269.999 205.001">
  <path id="Union_2292" data-name="Union 2292" d="M228.821,327h-.642l-6.679-6.678L214.821,327h-.642l-6.678-6.678L200.821,327h-.642l-6.679-6.678L186.821,327h-.642l-6.679-6.678L172.821,327h-.642l-6.678-6.678L158.821,327h-.642l-6.679-6.678L144.822,327h-.642l-6.679-6.678L130.821,327h-.642l-6.679-6.678L116.822,327h-.642l-6.679-6.678L102.821,327h-.642L95.5,320.322,88.82,327h-.642L81.5,320.322,74.821,327h-.642L67.5,320.322,60.821,327h-.642L53.5,320.322,46.822,327H46.18L39.5,320.322,32.821,327h-.642L25.5,320.322,18.822,327H18.18L11.5,320.322,4.821,327H4.179L-2.5,320.322-9.178,327h-.642l-6.679-6.678L-23.179,327H-24V122h.82l6.679,6.678L-9.821,122h.642l6.678,6.678L4.179,122h.642l6.679,6.678L18.18,122h.642l6.678,6.678L32.179,122h.642l6.679,6.678L46.18,122h.642l6.679,6.678L60.179,122h.642l6.679,6.678L74.179,122h.642l6.679,6.678L88.178,122h.642l6.679,6.678L102.179,122h.642l6.679,6.678L116.18,122h.642l6.678,6.678L130.179,122h.642l6.679,6.678L144.18,122h.642l6.678,6.678L158.179,122h.642l6.679,6.678L172.179,122h.642l6.679,6.678L186.179,122h.642l6.678,6.678L200.179,122h.642l6.679,6.678L214.178,122h.642l6.679,6.678L228.179,122h.642l6.679,6.678L242.18,122h.642L246,125.178V323.823L242.822,327h-.642l-6.679-6.678L228.821,327Z" transform="translate(24 -122)" fill="#f9a46a" opacity="0.8"/>
</svg>
