<svg xmlns="http://www.w3.org/2000/svg" xmlns:xlink="http://www.w3.org/1999/xlink" width="80" height="80" viewBox="0 0 80 80"><defs><style>.a{fill:none;stroke:#707070;}.b{clip-path:url(#a);}.c{opacity:0.4;}.d{fill:#f9a46a;}</style><clipPath id="a"><rect class="a" width="80" height="80" transform="translate(649 1481)"/></clipPath></defs><g class="b" transform="translate(-649 -1481)"><g class="c" transform="translate(655 1479.738)"><g transform="translate(0 10.262)"><path class="d" d="M56.087,39.829A22.153,22.153,0,0,0,38.86,20.4V17.615a3.732,3.732,0,0,0-.9-7.353h-7.9a3.732,3.732,0,0,0-.9,7.353v2.8a22.039,22.039,0,0,0-10.809,5.945,22.276,22.276,0,0,0-1.864,2.115c-.028,0-.055,0-.083,0H8.579a1.1,1.1,0,1,0,0,2.2h6.411a22,22,0,0,0-1.948,4.219H1.1a1.1,1.1,0,0,0,0,2.2H12.423a22.316,22.316,0,0,0-.545,4.219H7.024a1.1,1.1,0,0,0,0,2.2h4.889a22.284,22.284,0,0,0,.685,4.219H5.488a1.1,1.1,0,1,0,0,2.2H13.3A22.168,22.168,0,0,0,31.833,64.1q1.088.107,2.175.107a22.224,22.224,0,0,0,12.1-3.576,1.1,1.1,0,1,0-1.2-1.84A19.976,19.976,0,1,1,50.794,52.9a1.1,1.1,0,1,0,1.841,1.2A22.242,22.242,0,0,0,56.087,39.829ZM28.52,13.994a1.538,1.538,0,0,1,1.537-1.537h7.9a1.537,1.537,0,0,1,0,3.073h-7.9A1.538,1.538,0,0,1,28.52,13.994Zm2.831,6.04V17.726h5.314v2.3A22.364,22.364,0,0,0,31.351,20.034Z" transform="translate(0 -10.262)"/><path class="d" d="M436.865,425.5a1.1,1.1,0,1,0,.774.321A1.1,1.1,0,0,0,436.865,425.5Z" transform="translate(-387.919 -379.902)"/><path class="d" d="M171.854,144.609a16.982,16.982,0,1,0,16.982,16.982A17,17,0,0,0,171.854,144.609Zm0,31.774a14.792,14.792,0,1,1,14.792-14.792A14.809,14.809,0,0,1,171.854,176.383Z" transform="translate(-137.77 -129.76)"/><path class="d" d="M269.759,219.732l-5.422,5.422a3.393,3.393,0,0,0-3.005,0l-2.427-2.427a1.095,1.095,0,0,0-1.548,1.548l2.427,2.427a3.4,3.4,0,1,0,6.1,0l5.263-5.263h0l.159-.159a1.095,1.095,0,1,0-1.548-1.548Zm-6.924,9.685a1.212,1.212,0,1,1,1.212-1.212A1.214,1.214,0,0,1,262.834,229.417Z" transform="translate(-228.798 -196.438)"/><path class="d" d="M399.764,289.86H398.75a1.095,1.095,0,1,0,0,2.189h1.014a1.095,1.095,0,1,0,0-2.189Z" transform="translate(-354.002 -259.169)"/><path class="d" d="M195.191,289.616h-1.014a1.095,1.095,0,1,0,0,2.189h1.014a1.095,1.095,0,1,0,0-2.189Z" transform="translate(-171.886 -258.951)"/><path class="d" d="M301.218,186.022a1.1,1.1,0,0,0,1.095-1.095v-1.014a1.095,1.095,0,1,0-2.189,0v1.014A1.1,1.1,0,0,0,301.218,186.022Z" transform="translate(-267.179 -163.876)"/><path class="d" d="M300.974,387.393a1.1,1.1,0,0,0-1.095,1.095V389.5a1.095,1.095,0,1,0,2.189,0v-1.014A1.1,1.1,0,0,0,300.974,387.393Z" transform="translate(-266.961 -345.993)"/><path class="d" d="M1.095,351.44a1.095,1.095,0,1,0,.774,1.869,1.095,1.095,0,0,0-.774-1.869Z" transform="translate(0 -313.989)"/></g></g></g></svg>