<svg xmlns="http://www.w3.org/2000/svg" xmlns:xlink="http://www.w3.org/1999/xlink" width="80" height="80" viewBox="0 0 80 80"><defs><style>.a{fill:none;stroke:#707070;}.b{clip-path:url(#a);}.c{opacity:0.4;}.d{fill:#f9a46a;}</style><clipPath id="a"><rect class="a" width="80" height="80" transform="translate(904 1481)"/></clipPath></defs><g class="b" transform="translate(-904 -1481)"><g class="c" transform="translate(917 1494)"><path class="d" d="M53.568,3.628H40a1.067,1.067,0,1,0,0,2.134H52.5V7.9H32.532V6.157a3.626,3.626,0,0,0-4.587-3.5A3.634,3.634,0,0,0,24.45,0H19.635a3.632,3.632,0,0,0-3.628,3.628H1.067A1.067,1.067,0,0,0,0,4.7V8.964a1.067,1.067,0,0,0,1.067,1.067H5.255v.385a1.067,1.067,0,0,0,2.134,0v-.385h8.617v2.464a3.617,3.617,0,0,0,1.061,2.561,3.617,3.617,0,0,0-1.061,2.561V25.3a3.617,3.617,0,0,0,1.086,2.585,3.616,3.616,0,0,0-1.086,2.585v7.683a3.617,3.617,0,0,0,1.086,2.585,3.616,3.616,0,0,0-1.086,2.585v7.683a3.628,3.628,0,0,0,7.206.6,1.067,1.067,0,1,0-2.1-.353,1.494,1.494,0,0,1-2.967-.25V43.324a1.494,1.494,0,0,1,2.967-.25,1.067,1.067,0,0,0,2.1-.353,3.615,3.615,0,0,0-1.032-1.986,3.617,3.617,0,0,0,1.082-2.581V30.47a3.617,3.617,0,0,0-1.086-2.585A3.617,3.617,0,0,0,23.263,25.3V17.617A3.617,3.617,0,0,0,22.2,15.056a3.617,3.617,0,0,0,1.061-2.561V10.031h2.013v3.81a3.617,3.617,0,0,0,1.077,2.577,3.617,3.617,0,0,0-1.077,2.577v7.683a3.628,3.628,0,1,0,7.256,0V18.994a3.617,3.617,0,0,0-1.077-2.577,3.616,3.616,0,0,0,1.077-2.577v-3.81H43.964V11.05a1.067,1.067,0,1,0,2.134,0V10.031h7.47a1.067,1.067,0,0,0,1.067-1.067V4.7A1.067,1.067,0,0,0,53.568,3.628ZM30.4,6.157v7.683a1.494,1.494,0,0,1-2.988,0V6.157a1.494,1.494,0,0,1,2.988,0ZM19.635,2.134H24.45a1.494,1.494,0,1,1,0,2.988H19.635a1.494,1.494,0,0,1,0-2.988Zm1.494,15.482V25.3a1.494,1.494,0,1,1-2.988,0V17.617a1.494,1.494,0,0,1,2.988,0Zm-1.494,11.36a1.5,1.5,0,0,1,1.494,1.494v7.683a1.494,1.494,0,1,1-2.988,0V30.47A1.5,1.5,0,0,1,19.635,28.976Zm1.494-16.482a1.494,1.494,0,1,1-2.988,0V10.031h2.988ZM2.134,7.9V5.762H16.7a3.625,3.625,0,0,0,2.932,1.494H24.45a3.627,3.627,0,0,0,.826-.1V7.9ZM30.4,26.677a1.494,1.494,0,0,1-2.988,0V18.994a1.494,1.494,0,0,1,2.988,0Z"/><path class="d" d="M344.582,141.441a2.035,2.035,0,0,0-1.911-2.028v-1.346a1.067,1.067,0,0,0-2.134,0v1.346a2.035,2.035,0,0,0-1.911,2.028v5.489A25.948,25.948,0,0,0,332,164.277v2.664s0,0,0,.005c0,3.253,4.219,5.8,9.6,5.8s9.6-2.549,9.6-5.8h0v-2.669a25.949,25.949,0,0,0-6.626-17.347Zm-3.822,4.834v-4.734h1.688v4.734Zm.844,24.338c-4.4,0-7.468-1.932-7.47-3.667h0v0c0-1.734,3.069-3.666,7.47-3.666s7.47,1.933,7.47,3.668S346.006,170.613,341.6,170.613Zm7.447-7.372a14.264,14.264,0,0,0-14.893,0,23.81,23.81,0,0,1,6.01-14.832h2.873A23.811,23.811,0,0,1,349.05,163.242Z" transform="translate(-296.572 -122.381)"/><path class="d" d="M410.517,400h-.782a1.067,1.067,0,1,0,0,2.134h.782a1.067,1.067,0,0,0,0-2.134Z" transform="translate(-365.058 -357.316)"/><path class="d" d="M7.39,127.119v-1.052a1.067,1.067,0,0,0-2.134,0v1.052A6.332,6.332,0,0,0,0,133.35v18.034a6.323,6.323,0,0,0,12.645,0V133.35A6.332,6.332,0,0,0,7.39,127.119Zm-5.255,23.2V146.44h8.377v3.877Zm8.377-15.9v3.877H2.134v-3.877Zm-8.377,6.011h8.377v3.877H2.134Zm4.188-11.267a4.2,4.2,0,0,1,4.05,3.121h-8.1A4.2,4.2,0,0,1,6.323,129.162Zm0,26.41a4.2,4.2,0,0,1-4.05-3.121h8.1A4.2,4.2,0,0,1,6.323,155.572Z" transform="translate(0 -111.661)"/><path class="d" d="M325.927,36.134a1.068,1.068,0,1,0-.755-.313A1.076,1.076,0,0,0,325.927,36.134Z" transform="translate(-290.193 -30.372)"/><path class="d" d="M199.067,432a1.068,1.068,0,1,0,.754.313A1.075,1.075,0,0,0,199.067,432Z" transform="translate(-176.872 -385.902)"/></g></g></svg>