<svg xmlns="http://www.w3.org/2000/svg" width="50" height="49" viewBox="0 0 50 49"><defs><mask id="qnn7b" width="2" height="2" x="-1" y="-1"><path fill="#fff" d="M18 26h14v12H18z"/><path d="M28.993 26.847l-.242-.305-3.7 4.69-3.698-4.692-.227.286a11.48 11.48 0 0 1-2.512 2.347l6.436 8.146 6.433-8.142a11.472 11.472 0 0 1-2.49-2.33z"/></mask><filter id="qnn7a" width="46" height="47" x="2" y="10" filterUnits="userSpaceOnUse"><feOffset dy="3" in="SourceGraphic" result="FeOffset2277Out"/><feGaussianBlur in="FeOffset2277Out" result="FeGaussianBlur2278Out" stdDeviation="2.4 2.4"/></filter><mask id="qnn7d" width="2" height="2" x="-1" y="-1"><path fill="#fff" d="M12 13h26v17H12z"/><path d="M25.051 13.408L14.577 26.643l-2.41 3.044a9.954 9.954 0 0 0 7.808-3.779l5.076-6.417 5.092 6.437a9.955 9.955 0 0 0 7.794 3.78h.01l-2.41-3.052z"/></mask><filter id="qnn7c" width="58" height="52" x="-4" y="-3" filterUnits="userSpaceOnUse"><feOffset dy="3" in="SourceGraphic" result="FeOffset2295Out"/><feGaussianBlur in="FeOffset2295Out" result="FeGaussianBlur2296Out" stdDeviation="2.4 2.4"/></filter><mask id="qnn7f" width="2" height="2" x="-1" y="-1"><path fill="#fff" d="M6 4h14v21H6z"/><path d="M18.135 19.482c-1.949 0-7.397-3.449-7.397-6.536 0-4.64 8.871-8.933 8.871-8.933S6.35 6.204 6.35 13.398c0 4.715 6.881 11.158 7.88 11.158z"/></mask><filter id="qnn7e" width="46" height="56" x="-10" y="-12" filterUnits="userSpaceOnUse"><feOffset dy="3" in="SourceGraphic" result="FeOffset2313Out"/><feGaussianBlur in="FeOffset2313Out" result="FeGaussianBlur2314Out" stdDeviation="2.4 2.4"/></filter><mask id="qnn7h" width="2" height="2" x="-1" y="-1"><path fill="#fff" d="M30 4h14v21H30z"/><path d="M30.49 4.013s8.871 4.292 8.871 8.933c0 3.087-5.448 6.536-7.397 6.536l3.905 5.074c1 0 7.881-6.443 7.881-11.158 0-7.194-13.26-9.385-13.26-9.385z"/></mask><filter id="qnn7g" width="46" height="56" x="14" y="-12" filterUnits="userSpaceOnUse"><feOffset dy="3" in="SourceGraphic" result="FeOffset2331Out"/><feGaussianBlur in="FeOffset2331Out" result="FeGaussianBlur2332Out" stdDeviation="2.4 2.4"/></filter></defs><g><g><g><path fill="#f9a46a" d="M23 47a2 2 0 1 1 4 0 2 2 0 0 1-4 0z"/></g><g><g><g><g><g filter="url(#qnn7a)"><path fill="none" d="M28.993 26.847l-.242-.305-3.7 4.69-3.698-4.692-.227.286a11.48 11.48 0 0 1-2.512 2.347l6.436 8.146 6.433-8.142a11.472 11.472 0 0 1-2.49-2.33z" mask="url(&quot;#qnn7b&quot;)"/><path fill-opacity=".39" d="M28.993 26.847l-.242-.305-3.7 4.69-3.698-4.692-.227.286a11.48 11.48 0 0 1-2.512 2.347l6.436 8.146 6.433-8.142a11.472 11.472 0 0 1-2.49-2.33z"/></g><path fill="#b41f28" d="M28.993 26.847l-.242-.305-3.7 4.69-3.698-4.692-.227.286a11.48 11.48 0 0 1-2.512 2.347l6.436 8.146 6.433-8.142a11.472 11.472 0 0 1-2.49-2.33z"/></g></g><g><g><g filter="url(#qnn7c)"><path fill="none" d="M25.051 13.408L14.577 26.643l-2.41 3.044a9.954 9.954 0 0 0 7.808-3.779l5.076-6.417 5.092 6.437a9.955 9.955 0 0 0 7.794 3.78h.01l-2.41-3.052z" mask="url(&quot;#qnn7d&quot;)"/><path fill-opacity=".39" d="M25.051 13.408L14.577 26.643l-2.41 3.044a9.954 9.954 0 0 0 7.808-3.779l5.076-6.417 5.092 6.437a9.955 9.955 0 0 0 7.794 3.78h.01l-2.41-3.052z"/></g><path fill="#b41f28" d="M25.051 13.408L14.577 26.643l-2.41 3.044a9.954 9.954 0 0 0 7.808-3.779l5.076-6.417 5.092 6.437a9.955 9.955 0 0 0 7.794 3.78h.01l-2.41-3.052z"/></g></g><g><g><g filter="url(#qnn7e)"><path fill="none" d="M18.135 19.482c-1.949 0-7.397-3.449-7.397-6.536 0-4.64 8.871-8.933 8.871-8.933S6.35 6.204 6.35 13.398c0 4.715 6.881 11.158 7.88 11.158z" mask="url(&quot;#qnn7f&quot;)"/><path fill-opacity=".39" d="M18.135 19.482c-1.949 0-7.397-3.449-7.397-6.536 0-4.64 8.871-8.933 8.871-8.933S6.35 6.204 6.35 13.398c0 4.715 6.881 11.158 7.88 11.158z"/></g><path fill="#b41f28" d="M18.135 19.482c-1.949 0-7.397-3.449-7.397-6.536 0-4.64 8.871-8.933 8.871-8.933S6.35 6.204 6.35 13.398c0 4.715 6.881 11.158 7.88 11.158z"/></g></g><g><g><g filter="url(#qnn7g)"><path fill="none" d="M30.49 4.013s8.871 4.292 8.871 8.933c0 3.087-5.448 6.536-7.397 6.536l3.905 5.074c1 0 7.881-6.443 7.881-11.158 0-7.194-13.26-9.385-13.26-9.385z" mask="url(&quot;#qnn7h&quot;)"/><path fill-opacity=".39" d="M30.49 4.013s8.871 4.292 8.871 8.933c0 3.087-5.448 6.536-7.397 6.536l3.905 5.074c1 0 7.881-6.443 7.881-11.158 0-7.194-13.26-9.385-13.26-9.385z"/></g><path fill="#b41f28" d="M30.49 4.013s8.871 4.292 8.871 8.933c0 3.087-5.448 6.536-7.397 6.536l3.905 5.074c1 0 7.881-6.443 7.881-11.158 0-7.194-13.26-9.385-13.26-9.385z"/></g></g></g><g/></g></g></g></svg>