<svg xmlns="http://www.w3.org/2000/svg" width="46" height="49" viewBox="0 0 46 49"><defs><mask id="7ainb" width="2" height="2" x="-1" y="-1"><path fill="#fff" d="M6 7h34v24H6z"/><path d="M17.131 26.722h17.352c.43 0 .807-.284.923-.696l3.842-13.438a.959.959 0 0 0-.923-1.223H14.914l-.687-3.087a.96.96 0 0 0-.938-.752H7.463a.96.96 0 1 0 0 1.92h5.055l3.469 15.596a2.881 2.881 0 0 0-1.737 2.64 2.884 2.884 0 0 0 2.881 2.88h17.352a.96.96 0 1 0 0-1.92H17.131a.961.961 0 0 1-.96-.96c0-.53.431-.96.96-.96z"/></mask><filter id="7aina" width="66" height="59" x="-10" y="-9" filterUnits="userSpaceOnUse"><feOffset dy="3" in="SourceGraphic" result="FeOffset2370Out"/><feGaussianBlur in="FeOffset2370Out" result="FeGaussianBlur2371Out" stdDeviation="2.4 2.4"/></filter><mask id="7aind" width="2" height="2" x="-1" y="-1"><path fill="#fff" d="M16 30h6v7h-6z"/><path d="M16.165 33.45a2.892 2.892 0 0 0 2.89 2.89 2.892 2.892 0 0 0 2.888-2.89 2.892 2.892 0 0 0-2.889-2.889 2.892 2.892 0 0 0-2.889 2.89z"/></mask><filter id="7ainc" width="38" height="42" x="0" y="14" filterUnits="userSpaceOnUse"><feOffset dy="3" in="SourceGraphic" result="FeOffset2386Out"/><feGaussianBlur in="FeOffset2386Out" result="FeGaussianBlur2387Out" stdDeviation="2.4 2.4"/></filter><mask id="7ainf" width="2" height="2" x="-1" y="-1"><path fill="#fff" d="M29 30h7v7h-7z"/><path d="M29.655 33.45a2.892 2.892 0 0 0 2.89 2.89 2.892 2.892 0 0 0 2.888-2.89 2.892 2.892 0 0 0-2.889-2.889 2.892 2.892 0 0 0-2.889 2.89z"/></mask><filter id="7aine" width="39" height="42" x="13" y="14" filterUnits="userSpaceOnUse"><feOffset dy="3" in="SourceGraphic" result="FeOffset2402Out"/><feGaussianBlur in="FeOffset2402Out" result="FeGaussianBlur2403Out" stdDeviation="2.4 2.4"/></filter></defs><g><g><g><path fill="#f9a46a" d="M22 47a2 2 0 1 1 4 0 2 2 0 0 1-4 0z"/></g><g><g/><g><g><g filter="url(#7aina)"><path fill="none" d="M17.131 26.722h17.352c.43 0 .807-.284.923-.696l3.842-13.438a.959.959 0 0 0-.923-1.223H14.914l-.687-3.087a.96.96 0 0 0-.938-.752H7.463a.96.96 0 1 0 0 1.92h5.055l3.469 15.596a2.881 2.881 0 0 0-1.737 2.64 2.884 2.884 0 0 0 2.881 2.88h17.352a.96.96 0 1 0 0-1.92H17.131a.961.961 0 0 1-.96-.96c0-.53.431-.96.96-.96z" mask="url(&quot;#7ainb&quot;)"/><path fill-opacity=".39" d="M17.131 26.722h17.352c.43 0 .807-.284.923-.696l3.842-13.438a.959.959 0 0 0-.923-1.223H14.914l-.687-3.087a.96.96 0 0 0-.938-.752H7.463a.96.96 0 1 0 0 1.92h5.055l3.469 15.596a2.881 2.881 0 0 0-1.737 2.64 2.884 2.884 0 0 0 2.881 2.88h17.352a.96.96 0 1 0 0-1.92H17.131a.961.961 0 0 1-.96-.96c0-.53.431-.96.96-.96z"/></g><path fill="#89684f" d="M17.131 26.722h17.352c.43 0 .807-.284.923-.696l3.842-13.438a.959.959 0 0 0-.923-1.223H14.914l-.687-3.087a.96.96 0 0 0-.938-.752H7.463a.96.96 0 1 0 0 1.92h5.055l3.469 15.596a2.881 2.881 0 0 0-1.737 2.64 2.884 2.884 0 0 0 2.881 2.88h17.352a.96.96 0 1 0 0-1.92H17.131a.961.961 0 0 1-.96-.96c0-.53.431-.96.96-.96z"/></g><g><g filter="url(#7ainc)"><path fill="none" d="M16.165 33.45a2.892 2.892 0 0 0 2.89 2.89 2.892 2.892 0 0 0 2.888-2.89 2.892 2.892 0 0 0-2.889-2.889 2.892 2.892 0 0 0-2.889 2.89z" mask="url(&quot;#7aind&quot;)"/><path fill-opacity=".39" d="M16.165 33.45a2.892 2.892 0 0 0 2.89 2.89 2.892 2.892 0 0 0 2.888-2.89 2.892 2.892 0 0 0-2.889-2.889 2.892 2.892 0 0 0-2.889 2.89z"/></g><path fill="#89684f" d="M16.165 33.45a2.892 2.892 0 0 0 2.89 2.89 2.892 2.892 0 0 0 2.888-2.89 2.892 2.892 0 0 0-2.889-2.889 2.892 2.892 0 0 0-2.889 2.89z"/></g><g><g filter="url(#7aine)"><path fill="none" d="M29.655 33.45a2.892 2.892 0 0 0 2.89 2.89 2.892 2.892 0 0 0 2.888-2.89 2.892 2.892 0 0 0-2.889-2.889 2.892 2.892 0 0 0-2.889 2.89z" mask="url(&quot;#7ainf&quot;)"/><path fill-opacity=".39" d="M29.655 33.45a2.892 2.892 0 0 0 2.89 2.89 2.892 2.892 0 0 0 2.888-2.89 2.892 2.892 0 0 0-2.889-2.889 2.892 2.892 0 0 0-2.889 2.89z"/></g><path fill="#89684f" d="M29.655 33.45a2.892 2.892 0 0 0 2.89 2.89 2.892 2.892 0 0 0 2.888-2.89 2.892 2.892 0 0 0-2.889-2.889 2.892 2.892 0 0 0-2.889 2.89z"/></g></g><g><path fill="#fff" d="M27.695 21.339l-.091-.116-1.4 1.775-1.4-1.776-.086.109a4.346 4.346 0 0 1-.951.888l2.436 3.083 2.434-3.082a4.338 4.338 0 0 1-.942-.881z"/></g><g><path fill="#fff" d="M26.203 16.252l-3.963 5.009-.912 1.152c1.152 0 2.24-.527 2.955-1.43l1.92-2.429 1.927 2.436a3.767 3.767 0 0 0 2.95 1.43h.003l-.912-1.154z"/></g><g><path fill="#fff" d="M23.586 18.55c-.738 0-2.8-1.304-2.8-2.473 0-1.756 3.358-3.38 3.358-3.38s-5.018.829-5.018 3.551c0 1.785 2.604 4.223 2.982 4.223z"/></g><g><path fill="#fff" d="M28.261 12.697s3.358 1.624 3.358 3.38c0 1.169-2.062 2.474-2.8 2.474l1.478 1.92c.379 0 2.983-2.438 2.983-4.223 0-2.722-5.019-3.551-5.019-3.551z"/></g></g></g></g></svg>