<svg id="Group_8126" data-name="Group 8126" xmlns="http://www.w3.org/2000/svg" width="24" height="24" viewBox="0 0 24 24">
  <g id="Group_7842" data-name="Group 7842" transform="translate(0.423 2.448)">
    <g id="Group_7803" data-name="Group 7803" transform="translate(7.511 13.796)">
      <path id="Path_17558" data-name="Path 17558" d="M1914.714-1318.552l-.147-.187-2.266,2.873-2.265-2.874-.138.175a7.034,7.034,0,0,1-1.539,1.437l3.942,4.989,3.94-4.987A7.032,7.032,0,0,1,1914.714-1318.552Z" transform="translate(-1908.357 1318.74)" fill="#1f1e1c"/>
    </g>
    <g id="Group_7804" data-name="Group 7804" transform="translate(3.563 5.754)">
      <path id="Path_17559" data-name="Path 17559" d="M1909.945-1331.572l-6.415,8.106-1.476,1.865a6.1,6.1,0,0,0,4.782-2.315l3.109-3.931,3.119,3.943a6.1,6.1,0,0,0,4.773,2.315h.006l-1.476-1.869Z" transform="translate(-1902.054 1331.572)" fill="#1f1e1c"/>
    </g>
    <g id="Group_7805" data-name="Group 7805">
      <path id="Path_17560" data-name="Path 17560" d="M1903.593-1331.274c-1.193,0-4.53-2.112-4.53-4,0-2.843,5.433-5.471,5.433-5.471s-8.121,1.342-8.121,5.747c0,2.888,4.215,6.834,4.826,6.834Z" transform="translate(-1896.375 1340.748)" fill="#1f1e1c"/>
    </g>
    <g id="Group_7806" data-name="Group 7806" transform="translate(14.785)">
      <path id="Path_17561" data-name="Path 17561" d="M1919.959-1340.748s5.433,2.628,5.433,5.471c0,1.891-3.337,4-4.53,4l2.392,3.107c.613,0,4.826-3.946,4.826-6.834C1928.08-1339.406,1919.959-1340.748,1919.959-1340.748Z" transform="translate(-1919.959 1340.748)" fill="#1f1e1c"/>
    </g>
  </g>
  <rect id="Rectangle_3528" data-name="Rectangle 3528" width="24" height="24" fill="none"/>
</svg>
