<svg xmlns="http://www.w3.org/2000/svg" width="100" height="70" viewBox="0 0 100 70">
  <g id="Group_8564" data-name="Group 8564" transform="translate(-138 -18)">
    <rect id="Rectangle_310" data-name="Rectangle 310" width="100" height="70" transform="translate(138 18)" fill="none"/>
    <g id="Group_7813" data-name="Group 7813" transform="translate(-1725.756 1363.748)">
      <g id="Group_7810" data-name="Group 7810">
        <g id="Group_7807" data-name="Group 7807">
          <g id="Group_7803" data-name="Group 7803">
            <path id="Path_17558" data-name="Path 17558" d="M1918.505-1318.44l-.236-.3-3.618,4.586-3.616-4.588-.221.28a11.23,11.23,0,0,1-2.457,2.294l6.293,7.965,6.29-7.961A11.216,11.216,0,0,1,1918.505-1318.44Z" fill="#b41f28"/>
          </g>
          <g id="Group_7804" data-name="Group 7804">
            <path id="Path_17559" data-name="Path 17559" d="M1914.651-1331.572l-10.241,12.94-2.356,2.977a9.732,9.732,0,0,0,7.634-3.695l4.963-6.275,4.979,6.294a9.734,9.734,0,0,0,7.62,3.7h.009l-2.356-2.983Z" fill="#b41f28"/>
          </g>
          <g id="Group_7805" data-name="Group 7805">
            <path id="Path_17560" data-name="Path 17560" d="M1907.9-1325.624c-1.9,0-7.232-3.372-7.232-6.39,0-4.538,8.674-8.734,8.674-8.734s-12.965,2.142-12.965,9.175c0,4.61,6.728,10.91,7.7,10.91Z" fill="#b41f28"/>
          </g>
          <g id="Group_7806" data-name="Group 7806">
            <path id="Path_17561" data-name="Path 17561" d="M1919.959-1340.748s8.674,4.2,8.674,8.734c0,3.018-5.327,6.39-7.232,6.39l3.818,4.961c.978,0,7.7-6.3,7.7-10.91C1932.924-1338.606,1919.959-1340.748,1919.959-1340.748Z" fill="#b41f28"/>
          </g>
        </g>
        <g id="Group_7808" data-name="Group 7808">
          <rect id="Rectangle_2137" data-name="Rectangle 2137" width="12.955" height="0.512" transform="translate(1879.073 -1314.685)" fill="#1f1e1c"/>
          <path id="Path_17563" data-name="Path 17563" d="M1880.966-1316.836a.79.79,0,0,0,.324-.647.66.66,0,0,0-.17-.465.861.861,0,0,0-.4-.258.752.752,0,0,0,.312-.211.554.554,0,0,0,.141-.391.681.681,0,0,0-.291-.573,1.245,1.245,0,0,0-.764-.216,1.993,1.993,0,0,0-.922.22v.42a2.01,2.01,0,0,1,.9-.212c.382,0,.627.137.627.386s-.2.391-.556.391h-.415v.419h.361c.427,0,.71.183.71.453,0,.311-.3.51-.8.51a1.9,1.9,0,0,1-.951-.27v.449a1.9,1.9,0,0,0,1.017.249A1.369,1.369,0,0,0,1880.966-1316.836Z" fill="#1f1e1c"/>
          <path id="Path_17564" data-name="Path 17564" d="M1884.377-1317.359l.316.723h.49l-1.271-2.923h-.44l-1.271,2.923h.486l.312-.723Zm-.689-1.623.532,1.221h-1.063Z" fill="#1f1e1c"/>
          <path id="Path_17565" data-name="Path 17565" d="M1887.523-1319.169a1.412,1.412,0,0,1,.784.228v-.46a1.573,1.573,0,0,0-.789-.2,1.5,1.5,0,0,0-1.1.428,1.445,1.445,0,0,0-.436,1.08,1.458,1.458,0,0,0,.436,1.083,1.521,1.521,0,0,0,1.1.424,1.547,1.547,0,0,0,.852-.233v-.46a1.3,1.3,0,0,1-.831.265,1.062,1.062,0,0,1-.776-.3,1.055,1.055,0,0,1-.308-.776,1.049,1.049,0,0,1,.3-.773A1.046,1.046,0,0,1,1887.523-1319.169Z" fill="#1f1e1c"/>
          <path id="Path_17566" data-name="Path 17566" d="M1889.592-1319.543v2.907h.457v-1.341h1.516v1.341h.457v-2.907h-.457v1.146h-1.516v-1.146Z" fill="#1f1e1c"/>
          <rect id="Rectangle_2138" data-name="Rectangle 2138" width="12.955" height="0.512" transform="translate(1879.073 -1322.282)" fill="#1f1e1c"/>
        </g>
        <g id="Group_7809" data-name="Group 7809">
          <rect id="Rectangle_2139" data-name="Rectangle 2139" width="11.284" height="0.512" transform="translate(1938.108 -1314.685)" fill="#1f1e1c"/>
          <rect id="Rectangle_2140" data-name="Rectangle 2140" width="11.284" height="0.512" transform="translate(1938.108 -1322.282)" fill="#1f1e1c"/>
          <path id="Path_17569" data-name="Path 17569" d="M1940.128-1317.043h-1.362l.628-.6a3.087,3.087,0,0,0,.49-.565,1.016,1.016,0,0,0,.145-.535.758.758,0,0,0-.291-.619,1.058,1.058,0,0,0-.7-.237,1.289,1.289,0,0,0-.859.3v.478a1.17,1.17,0,0,1,.814-.361c.345,0,.577.195.577.49a.7.7,0,0,1-.125.4,2.975,2.975,0,0,1-.427.465l-.914.856v.332h2.022Z" fill="#1f1e1c"/>
          <path id="Path_17570" data-name="Path 17570" d="M1942.464-1316.582a1.06,1.06,0,0,0,.889-.436,1.72,1.72,0,0,0,.336-1.071,1.7,1.7,0,0,0-.336-1.067,1.054,1.054,0,0,0-.889-.441,1.058,1.058,0,0,0-.888.441,1.726,1.726,0,0,0-.333,1.067,1.742,1.742,0,0,0,.333,1.071A1.064,1.064,0,0,0,1942.464-1316.582Zm-.552-2.271a.636.636,0,0,1,.552-.316.649.649,0,0,1,.557.311,1.343,1.343,0,0,1,.211.769,1.339,1.339,0,0,1-.211.768.649.649,0,0,1-.557.311.641.641,0,0,1-.552-.311,1.348,1.348,0,0,1-.212-.768A1.325,1.325,0,0,1,1941.912-1318.853Z" fill="#1f1e1c"/>
          <path id="Path_17571" data-name="Path 17571" d="M1946.058-1316.582a1.06,1.06,0,0,0,.888-.436,1.72,1.72,0,0,0,.337-1.071,1.7,1.7,0,0,0-.337-1.067,1.054,1.054,0,0,0-.888-.441,1.059,1.059,0,0,0-.889.441,1.726,1.726,0,0,0-.332,1.067,1.742,1.742,0,0,0,.332,1.071A1.065,1.065,0,0,0,1946.058-1316.582Zm-.553-2.271a.637.637,0,0,1,.553-.316.648.648,0,0,1,.556.311,1.343,1.343,0,0,1,.212.769,1.34,1.34,0,0,1-.212.768.648.648,0,0,1-.556.311.643.643,0,0,1-.553-.311,1.348,1.348,0,0,1-.212-.768A1.325,1.325,0,0,1,1945.505-1318.853Z" fill="#1f1e1c"/>
          <path id="Path_17572" data-name="Path 17572" d="M1949.377-1316.636v-2.907h-.4l-.685.386v.444l.635-.341v2.417Z" fill="#1f1e1c"/>
        </g>
      </g>
      <g id="Group_7812" data-name="Group 7812">
        <g id="Group_7811" data-name="Group 7811">
          <path id="Path_17573" data-name="Path 17573" d="M1884.739-1283.43c0,.27.195.427.523.427h.847v-.855h-.847C1884.934-1283.858,1884.739-1283.7,1884.739-1283.43Z" fill="none"/>
          <path id="Path_17574" data-name="Path 17574" d="M1899.636-1299.61h-1.687v3.489h1.687a1.75,1.75,0,0,0,1.331-.479,1.717,1.717,0,0,0,.455-1.233,1.822,1.822,0,0,0-.455-1.278A1.708,1.708,0,0,0,1899.636-1299.61Z" fill="none"/>
          <path id="Path_17575" data-name="Path 17575" d="M1913.047-1299.308a2.493,2.493,0,0,0-1.548-.483,2.48,2.48,0,0,0-1.568.475,2.786,2.786,0,0,0-.906,1.336,6.256,6.256,0,0,0-.3,2.023v.205a6.282,6.282,0,0,0,.3,2.035,2.815,2.815,0,0,0,.918,1.352,2.488,2.488,0,0,0,1.569.479,2.473,2.473,0,0,0,1.539-.484,3,3,0,0,0,.975-1.351,5.614,5.614,0,0,0,.336-2.031v-.205a5.439,5.439,0,0,0-.34-2A3.041,3.041,0,0,0,1913.047-1299.308Z" fill="none"/>
          <path id="Path_17576" data-name="Path 17576" d="M1935.14-1283.484c0-.245-.178-.374-.481-.374h-.785v.752h.785C1934.962-1283.106,1935.14-1283.239,1935.14-1283.484Z" fill="none"/>
          <path id="Path_17577" data-name="Path 17577" d="M1905.761-1283.9a.951.951,0,0,0-.722.312,1.066,1.066,0,0,0-.291.768,1.082,1.082,0,0,0,.291.772.962.962,0,0,0,.722.308.962.962,0,0,0,.723-.308,1.085,1.085,0,0,0,.294-.772,1.069,1.069,0,0,0-.294-.768A.952.952,0,0,0,1905.761-1283.9Z" fill="none"/>
          <path id="Path_17578" data-name="Path 17578" d="M1926.969-1283.43c0,.27.195.427.523.427h.847v-.855h-.847C1927.164-1283.858,1926.969-1283.7,1926.969-1283.43Z" fill="none"/>
          <path id="Path_17579" data-name="Path 17579" d="M1918.152-1282.637a2.411,2.411,0,0,1-.3.847h1.412v-2.068h-1.021A7.181,7.181,0,0,1,1918.152-1282.637Z" fill="none"/>
          <path id="Path_17580" data-name="Path 17580" d="M1934.762-1282.7h-.888v.914h.888c.353,0,.569-.17.569-.465S1935.124-1282.7,1934.762-1282.7Z" fill="none"/>
          <path id="Path_17581" data-name="Path 17581" d="M1938.505-1282.5h1.063l-.531-1.221Z" fill="none"/>
          <path id="Path_17582" data-name="Path 17582" d="M1875.711-1299.045h-.049l-.14.459-1.13,3.571h2.613l-1.163-3.612Z" fill="none"/>
          <path id="Path_17583" data-name="Path 17583" d="M1877.259-1301.806h-3.112l-3.555,10.125-.836.122v1.68h4.465v-1.68l-.779-.147.344-1.294h3.834l.36,1.294-.778.147v1.68h4.456v-1.68l-.835-.122Zm-2.866,6.791,1.13-3.572.139-.458h.049l.131.418,1.164,3.612Z" fill="#fff"/>
          <path id="Path_17584" data-name="Path 17584" d="M1883.164-1300.118l1.229.262v8.035l-1.229.262v1.679h5.34v-1.679l-1.237-.262v-7.79h2.981l.082,1.064h2.114v-3.26h-9.281Z" fill="#fff"/>
          <path id="Path_17585" data-name="Path 17585" d="M1903.728-1299.918a3.821,3.821,0,0,0-1.618-1.388,5.7,5.7,0,0,0-2.474-.5h-5.8v1.688l1.237.262v8.035l-1.237.262v1.68h5.349v-1.68l-1.237-.262v-2.1h1.687a5.772,5.772,0,0,0,2.474-.491,3.775,3.775,0,0,0,1.618-1.376,3.736,3.736,0,0,0,.569-2.065A3.755,3.755,0,0,0,1903.728-1299.918Zm-2.761,3.318a1.75,1.75,0,0,1-1.331.479h-1.687v-3.489h1.687a1.708,1.708,0,0,1,1.331.5,1.822,1.822,0,0,1,.455,1.278A1.717,1.717,0,0,1,1900.967-1296.6Z" fill="#fff"/>
          <path id="Path_17586" data-name="Path 17586" d="M1917.225-1295.941a6.428,6.428,0,0,0-.434-2.383,5.871,5.871,0,0,0-1.217-1.917,5.648,5.648,0,0,0-1.822-1.278,5.523,5.523,0,0,0-2.253-.459,5.521,5.521,0,0,0-2.269.459,5.4,5.4,0,0,0-1.79,1.278,5.808,5.808,0,0,0-1.171,1.917,6.7,6.7,0,0,0-.414,2.383v.189a6.76,6.76,0,0,0,.414,2.4,5.777,5.777,0,0,0,1.175,1.92,5.381,5.381,0,0,0,1.8,1.274,5.6,5.6,0,0,0,2.274.455,5.547,5.547,0,0,0,2.244-.455,5.541,5.541,0,0,0,1.818-1.274,5.9,5.9,0,0,0,1.213-1.92,6.49,6.49,0,0,0,.434-2.4Zm-2.859.189a5.614,5.614,0,0,1-.336,2.031,3,3,0,0,1-.975,1.351,2.473,2.473,0,0,1-1.539.484,2.488,2.488,0,0,1-1.569-.479,2.815,2.815,0,0,1-.918-1.352,6.282,6.282,0,0,1-.3-2.035v-.205a6.256,6.256,0,0,1,.3-2.023,2.786,2.786,0,0,1,.906-1.336,2.48,2.48,0,0,1,1.568-.475,2.493,2.493,0,0,1,1.548.483,3.041,3.041,0,0,1,.979,1.348,5.439,5.439,0,0,1,.34,2Z" fill="#fff"/>
          <path id="Path_17587" data-name="Path 17587" d="M1918.35-1298.292h2.171l.074-1.286h1.843v7.757l-1.245.262v1.679h5.365v-1.679l-1.245-.262v-7.757h1.859l.065,1.286h2.2v-3.514H1918.35Z" fill="#fff"/>
          <path id="Path_17588" data-name="Path 17588" d="M1940.209-1293.385h-2.146L1938-1292.1h-3.334v-2.842h3.809v-2.2h-3.809v-2.449h3.178l.066,1.229h2.171v-3.44h-9.526v1.687l1.237.262v8.035l-1.237.262v1.679h9.658Z" fill="#fff"/>
          <path id="Path_17589" data-name="Path 17589" d="M1958.708-1300.118v-1.687h-5.562l-2.8,7.856h-.049l-2.883-7.856h-5.627v1.687l1.229.262v8.035l-1.229.262v1.679h5.349v-1.679l-1.384-.262v-1.95l-.2-5.111.057-.008,3.424,9.01h2.261l3.375-9.117.049.008-.065,5.611v1.556l-1.286.262v1.679h5.341v-1.679l-1.237-.262v-8.035Z" fill="#fff"/>
          <path id="Path_17590" data-name="Path 17590" d="M1884.278-1283.451a.786.786,0,0,0,.648.8l-.926,1.279h.552l.876-1.229h.681v1.229h.457v-2.906h-1.324C1884.644-1284.277,1884.278-1283.949,1884.278-1283.451Zm1.831-.407v.855h-.847c-.328,0-.523-.157-.523-.427s.195-.428.523-.428Z" fill="#fff"/>
          <path id="Path_17591" data-name="Path 17591" d="M1890.931-1284.277h-.586l-1.192,1.188v-1.188h-.457v2.907h.457v-1.4l1.37,1.4h.623l-1.561-1.578Z" fill="#fff"/>
          <rect id="Rectangle_2141" data-name="Rectangle 2141" width="0.457" height="2.907" transform="translate(1892.959 -1284.277)" fill="#fff"/>
          <path id="Path_17592" data-name="Path 17592" d="M1896.246-1282.048a1.054,1.054,0,0,1-.307-.776,1.042,1.042,0,0,1,.3-.772,1.04,1.04,0,0,1,.764-.308,1.411,1.411,0,0,1,.785.229v-.461a1.575,1.575,0,0,0-.789-.2,1.5,1.5,0,0,0-1.1.427,1.447,1.447,0,0,0-.436,1.08,1.462,1.462,0,0,0,.436,1.084,1.526,1.526,0,0,0,1.1.423,1.552,1.552,0,0,0,.851-.232v-.461a1.3,1.3,0,0,1-.831.266A1.06,1.06,0,0,1,1896.246-1282.048Z" fill="#fff"/>
          <path id="Path_17593" data-name="Path 17593" d="M1901.795-1283.131h-1.516v-1.146h-.457v2.907h.457v-1.341h1.516v1.341h.457v-2.907h-.457Z" fill="#fff"/>
          <path id="Path_17594" data-name="Path 17594" d="M1905.761-1284.331a1.419,1.419,0,0,0-1.063.436,1.477,1.477,0,0,0-.419,1.071,1.493,1.493,0,0,0,.419,1.075,1.431,1.431,0,0,0,1.063.432,1.428,1.428,0,0,0,1.063-.432,1.476,1.476,0,0,0,.424-1.075,1.461,1.461,0,0,0-.424-1.071A1.416,1.416,0,0,0,1905.761-1284.331Zm.723,2.279a.962.962,0,0,1-.723.308.962.962,0,0,1-.722-.308,1.082,1.082,0,0,1-.291-.772,1.066,1.066,0,0,1,.291-.768.951.951,0,0,1,.722-.312.952.952,0,0,1,.723.312,1.069,1.069,0,0,1,.294.768A1.085,1.085,0,0,1,1906.484-1282.052Z" fill="#fff"/>
          <path id="Path_17595" data-name="Path 17595" d="M1919.717-1284.277h-1.923v.4a6.006,6.006,0,0,1-.108,1.275,2.36,2.36,0,0,1-.336.81h-.278v1.042h.432v-.623h2.2v.623h.432v-1.042h-.419Zm-.457,2.487h-1.412a2.411,2.411,0,0,0,.3-.847,7.181,7.181,0,0,0,.087-1.221h1.021Z" fill="#fff"/>
          <path id="Path_17596" data-name="Path 17596" d="M1922.392-1283.281a4.48,4.48,0,0,1-.116,1.121c-.071.266-.2.382-.407.382a.522.522,0,0,1-.154-.017v.416a.613.613,0,0,0,.178.021.716.716,0,0,0,.736-.478,3.879,3.879,0,0,0,.2-1.4l.012-.623h1.039v2.487h.456v-2.906H1922.4Z" fill="#fff"/>
          <path id="Path_17597" data-name="Path 17597" d="M1926.508-1283.451a.785.785,0,0,0,.648.8l-.926,1.279h.552l.876-1.229h.681v1.229h.457v-2.906h-1.325C1926.873-1284.277,1926.508-1283.949,1926.508-1283.451Zm1.831-.407v.855h-.847c-.328,0-.523-.157-.523-.427s.195-.428.523-.428Z" fill="#fff"/>
          <path id="Path_17598" data-name="Path 17598" d="M1935.207-1282.965a.614.614,0,0,0,.386-.6c0-.449-.336-.714-.856-.714h-1.32v2.906h1.428a1.064,1.064,0,0,0,.715-.224.737.737,0,0,0,.265-.594A.747.747,0,0,0,1935.207-1282.965Zm-1.333-.893h.785c.3,0,.481.129.481.374s-.178.378-.481.378h-.785Zm.888,2.068h-.888v-.914h.888c.362,0,.569.162.569.449S1935.115-1281.79,1934.762-1281.79Z" fill="#fff"/>
          <path id="Path_17599" data-name="Path 17599" d="M1938.821-1284.294l-1.271,2.923h.486l.311-.722h1.379l.315.722h.49l-1.27-2.923Zm-.316,1.8.532-1.221.531,1.221Z" fill="#fff"/>
          <path id="Path_17600" data-name="Path 17600" d="M1942.858-1282.048a1.054,1.054,0,0,1-.307-.776,1.042,1.042,0,0,1,.3-.772,1.039,1.039,0,0,1,.764-.308,1.41,1.41,0,0,1,.785.229v-.461a1.575,1.575,0,0,0-.789-.2,1.5,1.5,0,0,0-1.1.427,1.447,1.447,0,0,0-.436,1.08,1.462,1.462,0,0,0,.436,1.084,1.527,1.527,0,0,0,1.1.423,1.551,1.551,0,0,0,.851-.232v-.461a1.3,1.3,0,0,1-.831.266A1.06,1.06,0,0,1,1942.858-1282.048Z" fill="#fff"/>
        </g>
        <circle id="Ellipse_436" data-name="Ellipse 436" cx="0.54" cy="0.54" r="0.54" transform="translate(1911.722 -1283.513)" fill="#1f1e1c"/>
      </g>
    </g>
  </g>
</svg>
