<svg xmlns="http://www.w3.org/2000/svg" width="25" height="25" viewBox="0 0 25 25"><g><g><g><g><g/><g><g><path fill="#f9a46a" d="M8.345 4.75a.55.55 0 0 1 .55.549A10.146 10.146 0 0 0 9.408 8.5a.563.563 0 0 1-.139.57l-1.73 2.273.21.417a11.286 11.286 0 0 0 4.991 4.99l.416.209 2.309-1.746a.532.532 0 0 1 .541-.108 10.13 10.13 0 0 0 3.176.509.56.56 0 0 1 .568.553V19.2a.55.55 0 0 1-.549.55C11.241 19.742 4.758 13.259 4.75 5.3c0-.303.247-.55.55-.55zM21.25 19.2v-3.032a2.054 2.054 0 0 0-2.047-2.054h-.004c-.902-.031-1.845-.144-2.711-.429-.714-.249-1.498-.083-1.988.382l-1.494 1.126a9.798 9.798 0 0 1-3.7-3.698l1.064-1.406a2.057 2.057 0 0 0 .464-2.053 8.685 8.685 0 0 1-.439-2.736c0-1.131-.919-2.05-2.053-2.05H5.3c-1.131 0-2.05.919-2.05 2.051.009 8.785 7.164 15.94 15.95 15.949 1.131 0 2.05-.919 2.05-2.05z"/></g></g></g></g></g></g></svg>