<svg xmlns="http://www.w3.org/2000/svg" width="73" height="73" viewBox="0 0 73 73"><defs><clipPath id="xytwa"><path fill="#fff" d="M5 37C5 19.327 19.327 5 37 5c17.673 0 32 14.327 32 32 0 17.673-14.327 32-32 32C19.327 69 5 54.673 5 37z"/></clipPath></defs><g><g><g><g><g><path fill="#de8e51" d="M49.336 33.576l-14.97-9.228a3.42 3.42 0 0 0-3.502-.074 3.42 3.42 0 0 0-1.773 3.022v18.37c0 1.923 1.55 3.496 3.454 3.506h.015c.596 0 1.216-.186 1.795-.54a.988.988 0 1 0-1.03-1.687c-.27.165-.535.25-.77.25-.718-.003-1.487-.619-1.487-1.529v-18.37c0-.546.284-1.03.76-1.296a1.466 1.466 0 0 1 1.502.031L48.3 35.258c.45.277.707.74.706 1.268 0 .528-.26.989-.712 1.265L37.47 44.417a.988.988 0 1 0 1.032 1.686l10.821-6.626a3.438 3.438 0 0 0 1.659-2.947 3.437 3.437 0 0 0-1.646-2.954z"/></g></g></g><g/><g><path fill="none" stroke="#de8e51" stroke-miterlimit="20" stroke-width="4" d="M5 37C5 19.327 19.327 5 37 5c17.673 0 32 14.327 32 32 0 17.673-14.327 32-32 32C19.327 69 5 54.673 5 37z" clip-path="url(&quot;#xytwa&quot;)"/></g></g></g></svg>