<svg xmlns="http://www.w3.org/2000/svg" xmlns:xlink="http://www.w3.org/1999/xlink" width="26" height="26" viewBox="0 0 26 26"><defs><style>.a{fill:none;stroke:#707070;}.b{fill:#b41f28;}.c{clip-path:url(#a);}.d{fill:#fff;}</style><clipPath id="a"><rect class="a" width="26" height="26" transform="translate(306 7197)"/></clipPath></defs><g transform="translate(-306 -7197)"><circle class="b" cx="13" cy="13" r="13" transform="translate(306 7197)"/><g class="c"><g transform="translate(310.5 7201.3)"><g transform="translate(-1)"><path class="d" d="M16.833,19.136a6.649,6.649,0,0,0-5.17-5.83v-.837a1.12,1.12,0,0,0-.27-2.207H9.021a1.12,1.12,0,0,0-.27,2.207v.839a6.614,6.614,0,0,0-3.244,1.784,6.686,6.686,0,0,0-.559.635H2.575a.329.329,0,1,0,0,.659H4.5a6.6,6.6,0,0,0-.585,1.266H.329a.329.329,0,0,0,0,.659h3.4a6.7,6.7,0,0,0-.163,1.266H2.108a.329.329,0,0,0,0,.659H3.575A6.688,6.688,0,0,0,3.781,21.5H1.647a.329.329,0,0,0,0,.659H3.991a6.653,6.653,0,0,0,5.563,4.26q.326.032.653.032a6.67,6.67,0,0,0,3.631-1.073.329.329,0,1,0-.36-.552,6,6,0,1,1,1.766-1.768.329.329,0,1,0,.553.359A6.675,6.675,0,0,0,16.833,19.136ZM8.56,11.382a.462.462,0,0,1,.461-.461h2.372a.461.461,0,0,1,0,.922H9.021A.462.462,0,0,1,8.56,11.382Zm.85,1.813V12.5H11v.692A6.712,6.712,0,0,0,9.409,13.195Z" transform="translate(0 -10.262)"/><path class="d" d="M436.1,425.5a.329.329,0,1,0,.232.1A.33.33,0,0,0,436.1,425.5Z" transform="translate(-421.409 -411.815)"/><path class="d" d="M159.969,144.609a5.1,5.1,0,1,0,5.1,5.1A5.1,5.1,0,0,0,159.969,144.609Zm0,9.536a4.44,4.44,0,1,1,4.44-4.44A4.445,4.445,0,0,1,159.969,154.145Z" transform="translate(-149.739 -140.152)"/><path class="d" d="M260.855,219.507l-1.627,1.627a1.018,1.018,0,0,0-.9,0l-.728-.728a.329.329,0,1,0-.465.465l.728.728a1.021,1.021,0,1,0,1.831,0l1.579-1.579h0l.048-.048a.329.329,0,0,0-.465-.465Zm-2.078,2.907a.364.364,0,1,1,.364-.364A.364.364,0,0,1,258.776,222.414Z" transform="translate(-248.561 -212.516)"/><path class="d" d="M398.288,289.86h-.3a.329.329,0,1,0,0,.657h.3a.329.329,0,0,0,0-.657Z" transform="translate(-384.554 -280.649)"/><path class="d" d="M193.715,289.616h-.3a.329.329,0,1,0,0,.657h.3a.329.329,0,1,0,0-.657Z" transform="translate(-186.721 -280.413)"/><path class="d" d="M300.452,183.78a.329.329,0,0,0,.329-.329v-.3a.329.329,0,1,0-.657,0v.3A.329.329,0,0,0,300.452,183.78Z" transform="translate(-290.236 -177.134)"/><path class="d" d="M300.208,387.393a.329.329,0,0,0-.329.329v.3a.329.329,0,0,0,.657,0v-.3A.329.329,0,0,0,300.208,387.393Z" transform="translate(-290 -374.968)"/><path class="d" d="M.329,351.44A.329.329,0,1,0,.561,352a.329.329,0,0,0-.232-.561Z" transform="translate(0 -340.2)"/></g></g></g></g></svg>