<svg xmlns="http://www.w3.org/2000/svg" width="197" height="197" viewBox="0 0 197 197">
  <g id="Group_8168" data-name="Group 8168" opacity="0.1">
    <g id="Group_381" data-name="Group 381" transform="translate(70.897 3.569)">
      <g id="Group_380" data-name="Group 380">
        <path id="Path_37" data-name="Path 37" d="M210.686,280.975c-.249-.169-.708.306-.736.341C208.831,282.489,211.231,281.351,210.686,280.975Z" transform="translate(-209.649 -280.939)" fill="#1f1e1c"/>
      </g>
    </g>
    <g id="Group_383" data-name="Group 383" transform="translate(80.465 2.823)">
      <g id="Group_382" data-name="Group 382">
        <path id="Path_38" data-name="Path 38" d="M213.771,281.464c.261-.379-.778-1.084-1.109-.59C212.451,281.181,213.519,281.834,213.771,281.464Z" transform="translate(-212.634 -280.705)" fill="#1f1e1c"/>
      </g>
    </g>
    <g id="Group_385" data-name="Group 385" transform="translate(46.991 13.604)">
      <g id="Group_384" data-name="Group 384">
        <path id="Path_39" data-name="Path 39" d="M202.866,285.286c.392-.2.344-1.434-.22-1.16A.592.592,0,0,0,202.866,285.286Z" transform="translate(-202.188 -284.087)" fill="#1f1e1c"/>
      </g>
    </g>
    <g id="Group_387" data-name="Group 387" transform="translate(45.032 15.948)">
      <g id="Group_386" data-name="Group 386">
        <path id="Path_40" data-name="Path 40" d="M202.527,285.4c.2-.293-.606-.835-.883-.433C201.3,285.472,202.387,285.606,202.527,285.4Z" transform="translate(-201.577 -284.822)" fill="#1f1e1c"/>
      </g>
    </g>
    <g id="Group_389" data-name="Group 389" transform="translate(16.614 42.967)">
      <g id="Group_388" data-name="Group 388">
        <path id="Path_41" data-name="Path 41" d="M193.208,294.458c.5.15-.013-1.948-.379-.931C192.577,294.235,192.88,294.363,193.208,294.458Z" transform="translate(-192.736 -293.248)" fill="#1f1e1c"/>
      </g>
    </g>
    <g id="Group_391" data-name="Group 391" transform="translate(21.616 45.952)">
      <g id="Group_390" data-name="Group 390">
        <path id="Path_42" data-name="Path 42" d="M194.547,294.32c-.513.4-.128,1.135.376.928C195.389,295.06,195.258,293.762,194.547,294.32Z" transform="translate(-194.305 -294.182)" fill="#1f1e1c"/>
      </g>
    </g>
    <g id="Group_393" data-name="Group 393" transform="translate(90.701 42.083)">
      <g id="Group_392" data-name="Group 392">
        <path id="Path_43" data-name="Path 43" d="M223.671,293.733a18.846,18.846,0,0,0-2.349-.755,12.009,12.009,0,0,0-4.485.65c-1.543.893-1.269,3.9.3,4.756,1.607.877,5.26-.306,6.956-.319.765-.006,1.511.5,2.311.564.4.032.953-.258,1.358-.258,3.777.029,7.191,2.241,9.292,1.444,1.093-.414,2.107-3.379,1.431-4.08-.6-.628-1.141.37-1.97.175.194.045-.354-.937-.147-.778-1.266-.988-4.711-.873-6.793-.915-.781-.016-1.4-.606-1.925-.638C226.244,293.5,224.946,293.979,223.671,293.733Z" transform="translate(-215.81 -292.971)" fill="#1f1e1c"/>
      </g>
    </g>
    <g id="Group_395" data-name="Group 395" transform="translate(40.426 54.086)">
      <g id="Group_394" data-name="Group 394">
        <path id="Path_44" data-name="Path 44" d="M200.2,297.088c-.446.972,1.639.982,1.661.287,0-.013-.006-.022-.006-.035l-.571-.571A.931.931,0,0,0,200.2,297.088Z" transform="translate(-200.139 -296.724)" fill="#1f1e1c"/>
      </g>
    </g>
    <g id="Group_397" data-name="Group 397" transform="translate(43.469 56.163)">
      <g id="Group_396" data-name="Group 396">
        <path id="Path_45" data-name="Path 45" d="M202.412,298.364l-1.052-.991C200.563,297.874,201.71,298.259,202.412,298.364Z" transform="translate(-201.089 -297.373)" fill="#1f1e1c"/>
      </g>
    </g>
    <g id="Group_399" data-name="Group 399" transform="translate(40.73 57.038)">
      <g id="Group_398" data-name="Group 398">
        <path id="Path_46" data-name="Path 46" d="M200.9,297.706c-.319.118-1.033.481-.44.886C201.091,299.019,201.942,297.313,200.9,297.706Z" transform="translate(-200.234 -297.647)" fill="#1f1e1c"/>
      </g>
    </g>
    <g id="Group_401" data-name="Group 401" transform="translate(58.059 53.744)">
      <g id="Group_400" data-name="Group 400">
        <path id="Path_47" data-name="Path 47" d="M205.9,296.764c-.21.182-.433.711-.045.81C206.827,297.813,206.655,296.12,205.9,296.764Z" transform="translate(-205.642 -296.617)" fill="#1f1e1c"/>
      </g>
    </g>
    <g id="Group_403" data-name="Group 403" transform="translate(44.815 58.392)">
      <g id="Group_402" data-name="Group 402">
        <path id="Path_48" data-name="Path 48" d="M203,298.256c-.325-.421-.5-.019-.775.147C199.992,299.786,203.775,299.241,203,298.256Z" transform="translate(-201.509 -298.07)" fill="#1f1e1c"/>
      </g>
    </g>
    <g id="Group_405" data-name="Group 405" transform="translate(47.158 58.294)">
      <g id="Group_404" data-name="Group 404">
        <path id="Path_49" data-name="Path 49" d="M203.955,298.039a11.786,11.786,0,0,1-1.709.526C202.065,299.8,205.909,298.122,203.955,298.039Z" transform="translate(-202.24 -298.039)" fill="#1f1e1c"/>
      </g>
    </g>
    <g id="Group_407" data-name="Group 407" transform="translate(120.286 48.431)">
      <g id="Group_406" data-name="Group 406">
        <path id="Path_50" data-name="Path 50" d="M226.163,295.92c-.459.325-.5-1.1-1-.01a5.449,5.449,0,0,0,.469,3.516c.555.74,2.942,1.09,4.154,1.82,1.151.7,1.623,1.756,2.445,2.34.44.309,1.042.242,1.5.52,1.53.912,2.71,2.381,3.991,3.051.7.367,1.67.376,2.349.759.889.5.995,1.17,1.61,1.1,3.124-.37.064-3.127-.539-3.908-.182-.23-.025-.72-.185-.966-.351-.532-1.524-1.167-1.951-1.836a9.366,9.366,0,0,0-2.062-2.413c-.188-.124-.762.121-1.007-.01-2.863-1.559-6.474-5.543-9.337-4.845C225.564,295.286,226.883,295.407,226.163,295.92Z" transform="translate(-225.043 -294.953)" fill="#1f1e1c"/>
      </g>
    </g>
    <g id="Group_409" data-name="Group 409" transform="translate(66.707 59.718)">
      <g id="Group_408" data-name="Group 408">
        <path id="Path_51" data-name="Path 51" d="M210.049,300.193c1.014-.45.5-.191.857-.765.768-1.227-.223-.915-.574-.893C207.773,298.695,207.68,301.242,210.049,300.193Z" transform="translate(-208.34 -298.484)" fill="#1f1e1c"/>
      </g>
    </g>
    <g id="Group_411" data-name="Group 411" transform="translate(39.932 84.853)">
      <g id="Group_410" data-name="Group 410">
        <path id="Path_52" data-name="Path 52" d="M200.164,326.871c.545.692,3.813.351,4.447-.845a51.3,51.3,0,0,0,.446-6.1c.022-.618-.379-1.192-.367-1.935.07-4,2.808-8.017,1.61-10.529-.411-.867-2.748-1.648-3.739-.695-.179.172-.105.131-.121.424-.194,4.061-2.579,8.827-2.451,13.5C200.027,321.914,200.074,326.759,200.164,326.871Z" transform="translate(-199.983 -306.329)" fill="#1f1e1c"/>
      </g>
    </g>
    <g id="Group_413" data-name="Group 413" transform="translate(142.255 67.473)">
      <g id="Group_412" data-name="Group 412">
        <path id="Path_53" data-name="Path 53" d="M242.859,315.788c-1.033-2.926-2.965-6.041-4.013-8.46-.909-2.1-4.074-6.554-5.228-6.427-3.714.414-.367,6.264.465,7.73.325.574.838,1.173,1.141,1.788.771,1.581.931,3.3,1.46,4.536.2.462.736.724.835,1.243.061.316-.3.781-.2,1.042.1.245.826.838,1.065,1.4.685,1.607.765,3.819,1.463,4.533a4.913,4.913,0,0,0,3.934.66c2.164-1.03.392-3.092-.446-5.531C243.037,317.442,243.066,316.381,242.859,315.788Z" transform="translate(-231.902 -300.898)" fill="#1f1e1c"/>
      </g>
    </g>
    <g id="Group_415" data-name="Group 415" transform="translate(41.621 112.051)">
      <g id="Group_414" data-name="Group 414">
        <path id="Path_54" data-name="Path 54" d="M208.129,332.011c.306.838,2.021,3.7,1.9,3.65a20.281,20.281,0,0,0,1.823-.947c1.906-2.365-2.05-6.334-3.079-8.84-1.562-3.809-2.142-12.958-7.042-10.692-2.461,1.138-.615,3.334.475,6.726a20.563,20.563,0,0,0,1.887,4.654c1.374,2,3.169,2.471,4.013,4.253C208.247,331.118,207.88,331.322,208.129,332.011Z" transform="translate(-200.508 -314.826)" fill="#1f1e1c"/>
      </g>
    </g>
    <g id="Group_417" data-name="Group 417" transform="translate(149.09 97.082)">
      <g id="Group_416" data-name="Group 416">
        <path id="Path_55" data-name="Path 55" d="M240.568,315.54c.083-.663,1.489-4.192.861-4.973-.784-.975-3.915.045-4.176.191-1.779.992-1.081,3.025-1.329,5.665-.051.551-.72,1.817-.842,2.968-.08.768.195,1.7.1,2.588-.281,2.362-1.326,4.638-1.106,5.821.322,1.712,2.531,3.87,4.112,2.63.373-.293.306-2.279.249-1.852.379-2.735.851-4.676,1.422-7.287A56.282,56.282,0,0,0,240.568,315.54Z" transform="translate(-234.042 -310.15)" fill="#1f1e1c"/>
      </g>
    </g>
    <g id="Group_419" data-name="Group 419" transform="translate(55.33 136.416)">
      <g id="Group_418" data-name="Group 418">
        <path id="Path_56" data-name="Path 56" d="M204.791,324.826c.092.7,1.639,1.53,2.413,2.152,1.084.867,1.8,1.747,2.448,2.34,1.307,1.186,5,4.491,6.63,5.359,1.164.622,5.279,2.55,6.165,1.836a3.616,3.616,0,0,0,.064-2.818c-.274-.558-1.82-1.062-2.534-1.728-.446-.418.054-.51-.873-1.435-.453-.456-1.422-.714-2.266-1.374q-2.845-2.247-5.477-4.574c-1.782-1.572-2.461-2.429-4-2.05C206.851,322.662,204.622,323.557,204.791,324.826Z" transform="translate(-204.782 -322.445)" fill="#1f1e1c"/>
      </g>
    </g>
    <g id="Group_421" data-name="Group 421" transform="translate(134.414 123.759)">
      <g id="Group_420" data-name="Group 420">
        <path id="Path_57" data-name="Path 57" d="M233.474,334.837a31.234,31.234,0,0,0,8.868-10.3c.147-.274,0-.848.166-1.234.287-.657,1-1,1.138-1.419.765-2.407-.606-4.176-2.987-3.044a17.725,17.725,0,0,0-3.2,3.213c-.867,1.2-1.466,3.159-2.557,4.495-.6.736-1.705,1.23-2.062,1.8-.459.72-.163,1.7-.567,2.311-.335.51-1.725.826-2.136,1.409a10.525,10.525,0,0,0-.685,2.735C229.99,336.963,232.193,335.8,233.474,334.837Z" transform="translate(-229.454 -318.487)" fill="#1f1e1c"/>
      </g>
    </g>
    <g id="Group_423" data-name="Group 423" transform="translate(80.215 150.71)">
      <g id="Group_422" data-name="Group 422">
        <path id="Path_58" data-name="Path 58" d="M235.122,332.929c.676-1.237-1.266-3.5-2.129-3.809-.918-.331-2.974,0-5.056-.242-1.03-.118-2.075-.771-2.968-.838-2.426-.185-3.551-.163-5.674-.325-2.027-.159-3.9-1.23-5.324-.6a2.019,2.019,0,0,0-1.412,2.072c.3,2.043,3.711,2.541,5.61,3.146a29.359,29.359,0,0,0,6.86,1.3C227.235,333.7,234.5,334.067,235.122,332.929Z" transform="translate(-212.54 -326.919)" fill="#1f1e1c"/>
      </g>
    </g>
    <g id="Group_425" data-name="Group 425" transform="translate(113.252 145.243)">
      <g id="Group_424" data-name="Group 424">
        <path id="Path_59" data-name="Path 59" d="M231.353,326.886c-1.25.654-2.786.826-3.726,1.508-.822.6-1.211,1.766-1.951,2.375-1.186.979-3.028,1.052-2.805,2.139.338,1.638,2.789.077,4.565-.268,2.8-.542,6.321-.921,8.33-2.582.679-.564,2.219-3.111,1.852-3.962-.647-1.5-3.6-.724-4.476-.351C232.507,326.016,232.039,326.526,231.353,326.886Z" transform="translate(-222.852 -325.209)" fill="#1f1e1c"/>
      </g>
    </g>
    <g id="Group_427" data-name="Group 427" transform="translate(94.266 192.603)">
      <g id="Group_426" data-name="Group 426">
        <path id="Path_60" data-name="Path 60" d="M240.94,341.054a14.82,14.82,0,0,0-4.415,1.036c-1.929.555-3.841-.4-4.476-.354-.249.019-1.409.858-2.056.791-1.081-.108.01.287-1.32.453-.791.1-.3-.679-1.186-.979-.845-.284-2.279.768-3.06.781a2.52,2.52,0,0,1-1.54-.711c-.163-.277.434-.185.545-.3.7-.736-.676-1.83-1.336-1.75-.178.022-.347,1.221-.746,1.345-1.052.322-.127.657-.628.921-1.591.832-1.639-.15-1.619-.1-.092-.268,3.153-2.7.249-1.852a26.3,26.3,0,0,1-2.413,2.063c-.223,1.524,1.441,1.259,2.458,1.339.756.06,1.278.692,1.728.673,1-.038,1.744-.81,2.483-.669.054.009.054.577.112.58,1.189.054,2.531-.274,3.749-.312a32.025,32.025,0,0,0,7.654-.851c.465-.137.995-.653,1.476-.682.7-.035,1.352.52,1.887.443.991-.134.284-.386,1.441-.873C240.217,341.921,243.685,340.981,240.94,341.054Z" transform="translate(-216.92 -340.014)" fill="#1f1e1c"/>
      </g>
    </g>
    <g id="Group_429" data-name="Group 429" transform="translate(124.609 188.362)">
      <g id="Group_428" data-name="Group 428">
        <path id="Path_61" data-name="Path 61" d="M227.717,339.323c.255-.746-.615-.784-1.077-.4C225.789,339.639,227.564,339.772,227.717,339.323Z" transform="translate(-226.41 -338.683)" fill="#1f1e1c"/>
      </g>
    </g>
    <g id="Group_431" data-name="Group 431" transform="translate(118.637 189.58)">
      <g id="Group_430" data-name="Group 430">
        <path id="Path_62" data-name="Path 62" d="M227.5,339.1c.064.092-2.356-.092-2.008-.019l.038.191c-1.562.746-.991,2.066-.214,2.047C225.371,341.318,227.437,339,227.5,339.1Z" transform="translate(-224.545 -339.065)" fill="#1f1e1c"/>
      </g>
    </g>
    <g id="Group_433" data-name="Group 433">
      <g id="Group_432" data-name="Group 432">
        <path id="Path_63" data-name="Path 63" d="M384.484,376.047c-.343-3.609.086-6.367-.8-9.505-1.538-5.455-1.9-11.278-3.9-17.373-.317-.957-1.2-1.8-1.528-2.726-.231-.656-.045-1.5-.407-2.137-.266-.467-.814-.589-1-1.017-1.413-3.305-2.144-6.984-4.172-10.276-.884-1.446-2.08-2.195-2.717-3.711-2.519-5.967-5.024-8.725-8.847-12.609A21.223,21.223,0,0,1,358,313.054c-.487-.861-1.346-1.334-1.57-1.917-.186-.47.311-.915-.032-1.2s-1.035.349-1.359.256c-.8-.23-1.919-1.98-2.922-2.665-1.451-.982-3.461-1.417-4.483-2.368-.375-.349-.324-.864-.647-1.289-1.154-1.507-3.435-2.473-5.13-3.654a92.929,92.929,0,0,0-16.913-9.47c-3.031-1.283-6.364-1.82-9.482-3.235-3.214-1.453-6.652-1.945-9.994-2.732-1.279-.3-2.535-1.289-4.1-1.437-1.054-.1-2.208.278-3.384.24-2.355-.086-4.791-.637-7.014-.886-1.907-.211-3.957-.829-5.393-.79-1.778.051-3.224,1.072-4.169,1.395-3.124,1.069-6.508-.269-9.014.3-.2.048-.51.825-.824.96-.211.09-.458-.362-1.048-.2a3.405,3.405,0,0,1-3.063-.227c-.872-.464-1.923-.4-2.128-.6-.407-.381.365-.518-.147-.777-.75-.371-.631.579-1.013-.01-.481-.749.388-2.572-.554-2.911-.333-.122-1.2.5-1.285.646-.237.409.522.8.455,1.321-.151,1.075-2.432,1.779-3.368,2.451-.811.579-.807,1.353-1.532,1.5-.679.131-.99-.5-1.471-.326-.641.23-1.794,2.406-2.74,2.531-.449.061-1.215-.854-1.778-.87-.048,0-.715.521-.9.576a29.143,29.143,0,0,0-4.291,1.817c-.24.109-1.07.1-1.163.221-.474.624.532,2.457-.651,2.94-.481.2-.535-.614-1.051-.2-.147.122-.308,1.318-.747,1.35-.811.061-1-1.213-1.041-1.213-1.23.077.042.8-.942,1.389a4.259,4.259,0,0,1-1.984.173c.128.045-.045-.518-.109-.582-.936-.941-.91.9-1.567,1.3-.205.128-1.064-.243-1.436-.131-.266.083-.542.784-1.019,1-.535.237-.743.016-.971.182-.25.179-.205.9-.6,1.12-.532.3-.923-.093-1.166.221-.224.282.038,1.27-.324,1.472.106-.061-1.865.029-2.019-.022-1.355-.432-1.086-1.584-2.281-1.379-.558.1.493.617-.01,1.008-.551.429-.6-.547-.968.186-.163.307.5,1.113.1,1.59-.385.454-1.442.08-2.336.441a18.323,18.323,0,0,0-4.188,3.411c-.026.4.766.6.731.666-.144.272-.577-.08-.936.378-.26.336-.074.7-.24.851-.615.569-1.6.115-1.214,1.037a7.631,7.631,0,0,1,1.9.445c.061-.01,1.6-1.347,1.993-1.18,1.182.486-.439,1.206-.676,1.734-.57,1.257.971-.368-.17,1.241-.7.985-.356-.1-.266-.352.634-1.795-.42-.717-1.548-.714-.932,0-2.211-1.824-2.935-1.657-.628.144-.029.32-.4,1.081a9.171,9.171,0,0,0-1.647,1.923c-.247.55.01,1.027-.173,1.241-.4.47-2.038-.413-1.372,1.264.058.134,2.628.374,2.669,1.309-.019-.454-.683,1.069-1.41,1.072-.083,0-1.516-1.776-2.7-1.5-.417.093-.522.723-1.176,1.225-.625.483-1.5.55-1.833.953-.144.173.221.582.308.694-.231.182-1.461,2.08-2.044,1.849-.42-.17.2-1.28-.57-.9-1.586.784.612,1.507.644,1.286-.157,1.033-1.919.154-1.3,1.654-.106-.256,2.807-.451,1.548.713-.112.1-1.439-.534-1.509-.518-.24.058-.285.7-.436.886-.558.691-.926.317-.98,1.19-.038.637.923,1,.913,1.638-.01,1.12-1.955,1.318-2.307,1.648-.583.544-1.163,2.646-1.391,3.279-.984,2.771-3.268,5.852-4.71,9.144-.58,1.328-.532,2.873-1.051,4.022-.349.777-1.064,1.318-1.573,2.31-.785,1.533-.711,3.561-1.378,5.5-1.089,3.174-2.951,7.413-3.672,10.35-.484,1.977-.045,4.146-.41,6.319-.189,1.1-.881,2.054-1.006,3.206a54.323,54.323,0,0,0-.368,6.511c.157,5.983-.128,12.193.865,18.349,1.093,6.748,3.752,13.815,5.787,19.83.34,1,.413,2.163.785,3.072.333.822,1.109,1.523,1.455,2.339.378.9.343,1.916.708,2.684.984,2.06,2.906,3.6,3.711,5.733.356.944.247,1.9.516,2.723.939,2.835,3.422,6.069,5.005,8.306a59.788,59.788,0,0,0,7.11,7.707c2.474,2.448,4.7,5.836,7.421,7.247,1.628.838,3.788,3.57,5.39,5.013.49.445.888.314,1.154.787.346.608.253,3.411,1.993,3.042.256-.054-.01-1.315.128-1.433.84-.739,1.644,1.286,2.547,1.734.365.179,1.154-.262,1.593-.1.33.122.477.784.807,1.053.965.793,2.813,1.6,3.666,2.326.516.442.929,1.4,1.535,1.721.356.186,1-.173,1.4-.064.455.125.984.861,1.618,1.1.564.218,1.224.1,1.666.291,1.054.47,1.913,1.481,3.012,2.044.936.483,2.265.528,3.406.966.109.042.167.48.3.547,1.285.6,3.115.512,4.419.973.936.33,1.673,1,2.432,1.149,2.06.4,4.3.045,6.325.409,1.045.186,1.894.947,2.826,1.075,1.115.151,2.233-.384,3.381-.24.551.07.952.512,1.509.518s1.112-.269,1.75-.333c.673-.064,1.349.3,1.862.253.3-.026.785-.582,1.285-.646.461-.058,1.045.416,1.474.323a11.516,11.516,0,0,0,2.541-1.484,2.655,2.655,0,0,0-.147-.778c-.317-.787.763-.915.558-1.315-.26-.5-.827.17-1.439-.128-.968-.473-.41-1.337-1.388-.944-.477.189-.888,2.08-.74.339.138-1.664-3.98.163-4,.157a4.178,4.178,0,0,1,.01-1.008c-.4-.723-3.313-1.558-4.65-1.133-.333.109-.99,1.011-1.445.877-.17-.045.157-.733.013-1.008-.221-.406-1.429-.522-1.429-1.136,0-.413.987-.477,1.1-.611.048-.064.08-.141.125-.208l-2.583.49-.378-1.98-1.692.323c.452,1.2.75,2.1.4,1.955a26.023,26.023,0,0,0-7.325-1.427c-2.189-.122-6.075-2.508-8.972-3.731-1.118-.477-2.477-.589-3.249-1.2-.394-.31-.465-.835-.8-1.056-.795-.518-2.717-.937-3.557-1.74-.269-.256-.33-.806-.574-.9-.766-.294-.57.461-.974.186-.144-.1-.032-.63-.147-.778-.423-.541-2.426-1.673-3.044-2.24-1.686-1.532-4.813-2.163-6.409-4.015a20.55,20.55,0,0,0-1.923-1.648c-.779-.784-1.16-1.955-1.916-2.655-.26-.243-.817-.362-1.122-.6-1.006-.778-1.891-1.955-2.692-2.505-1.109-.758-2.118-.922-2.974-1.852-.7-.761-1.5-2.38-2.72-3.708-.843-.925-2.477-1.657-2.922-2.665a20.039,20.039,0,0,0-2.945-4.876,35.739,35.739,0,0,1-3.756-4.924,32.921,32.921,0,0,1-2.711-4.716c-.247-.678-.141-1.4-.407-2.137-.7-1.945-1.961-3.839-2.618-6.344-.228-.861,0-2.054-.359-2.95-.244-.617-1.131-1.2-1.378-1.955s0-1.6-.247-2.367c-.359-1.117-1.048-1.529-1.1-2.608a30.2,30.2,0,0,0-.923-4.853c-.365-1.683.228-3.731-.375-5.161s-.2-2.083-.352-3.961c-.144-1.766-.823-3.59-.766-5.087.07-1.692.33-4.162.365-5.5.026-.966-.368-1.99-.359-2.953.038-3.116.6-6.367.792-9.608.074-1.165.8-1.833,1.041-3.011.34-1.677.276-3.286.67-4.959.362-1.516,1.157-2.947,1.561-4.521.365-1.424.122-2.966.586-4.335.336-1.011,1.253-1.878,1.66-2.931.452-1.181.452-2.582.926-3.6.144-.31.679-.47.859-.768,1.4-2.281,1.785-5.177,3.176-6.639.388-.41,1.166-.525,1.445-.877.532-.672.638-3.174,1.474-3.9.522-.454,1.038-.032,1.288-.646.477-1.168-.981-.608-.682-1.481.317-.941,1.394.5.98-1.193-.147-.6-.58.294-1.013-.006-1.077-.765.215-1.51.135-1.437.4-.355.5-.4.24-.851.362.624-1.089-.086-.461-.313,1.022-.371,3.938,1.683,5.508.365.343-.285-.2-.9.061-1.82.01-.054.542-.141.7-.537.215-.534-.144-.781.01-1.008.125-.189.791-.032.971-.186.545-.448.487-2.224,1.115-2.624.692-.441,1.644.045,2.14-.406.455-.416-.336-.246-.029-1.2.317-.985,1.753-1,2.929-1.561,1.567-.742,1.42-2.947,2.439-3.078.577-.074.429,1.024,1.032,1.213.112.035.263-.045.433-.16l-.131-.691,1.984-.374-.24-1.261,1.083-.2.237,1.26.362-.07-.378-1.977,3.246-.618-.013-.067a.5.5,0,0,1-.362-.234c-.449-.617.458-.275.436-.889-.016-.528-.724-.518-.57-.9s1.461-1.062,1.407-1.072c.766.125-.115.947.574.9.269-.019.378-.659.474-.694.433-.15.343.355.657.282.807-.2.92-1.222,2.461-1.878.455-.192,2.032-.861,2.375-.246l0,.035,1.567-.3-.006-.035c-.029-.189,1.484-1.046,1.6-1.11.532-.275,1.7.093,1.567-1.3-.038-.4-.891.182-1.24-.166-.263-.256.295-.525.276-.656-.192-1.437-.868-1.993-.093-2.6.711-.557,1.506.55,3.262.189.916-.192.782-.64,1.17-.64-.013.125,1.445.9,1.314.973a2.814,2.814,0,0,0-.016-1.469,2.164,2.164,0,0,1,2.794-.87c-.17-.115.679,2.726,1.5,1.526.516-.755-1.029-2.553-1.061-2.412.208-.877,1.23-.4,2.064-.794.449-.214-.131-.633.474-.694a3.546,3.546,0,0,1,2.4.953c.388,1.261,1.436-.816,1.907-.563.673.358-.272.95-.481,1.7h0l1.628-.307a.842.842,0,0,1,.24-.451c.439-.394.5-.067.4.33l.474-.09-.1-.541,3.073-.582c-.147-.179-.266-.33-.263-.4.074-1.117,1.987-1.389,3.791-2.326.16-.083.285-.608.474-.7,1.224-.563,2.951-.665,3.39-1.245.33-.432-.606-.985.167-1.238.628-.2,2.15.921,2.791.88,1.243-.077,2.352-.995,3.583-1.283,1.926-.451,3.945.118,6.056.061,2.317-.064,4.214-.077,5.822-.1,3.615-.051,6.53.976,9.7,1.181.42.026.856-.294,1.557-.294,1.49,0,4.031.995,5.928,1.491.634.166,1.035-.266,1.4-.064a27.015,27.015,0,0,0,6.771,2.742c1.384.32,2.852.1,3.723.5.436.2.4.736.8,1.056,1.416,1.13,3.669,1.28,5.646,2.15,1.544.675,2.733,2.255,4.2,3.023.292.15.689-.106,1.006.01,1.506.55,2.852,2.047,4.169,2.835.868.518,1.839.57,2.438,1.145,1.452,1.421,3.7,1.606,5.246,3.235.215.224.131.56.343.736,1.176.995,2.612,1.145,3.631,2.131.929.905,1.759,2.563,2.916,3.673.5.486,1.025.649,1.423,1.139.436.534.433,1.187.913,1.638,1.125,1.046,2.426,1.225,3.243,2.2.189.224.026.726.186.973.336.521,1.166.717,1.615,1.1a24.113,24.113,0,0,1,4.614,5.164c.458.8.474,1.984.942,2.838.974,1.779,3.355,2.812,4.076,4.46.465,1.078.141,2.019.554,2.915.609,1.341,2.342,2.08,2.983,4.06a44.755,44.755,0,0,0,2.538,6.965c.279.5.84.707,1.032,1.212.391,1.034.167,2.732.545,3.923.606,1.913,1.131,4.377,1.644,6.53.673,2.806.253,4.8.516,6.946.33,2.723,1.137,4.876,1.368,7.183.154,1.577.49,3.967.522,5.938.019,1.145-.615,2.252-.455,2.905.112.474.657.336.57.9-.173,1.187-1.81,1.7-2.048,3.008-.077.435.407,1.309.407,2.137,0,.509-.368,1.091-.327,1.465.144,1.267,1.083,1.955.945,2.844-.07.474-.753.765-.75,1.347,0,.112.458.883.413,1.129-.221,1.3-2.249,3.148-1.987,4.4.125.569,1.019.771.846,1.248-.032.1-1.073-.269-1.24-.166.051-.032-.756,1.638-.413,2.089.042.054.509-.131.586-.109,1.041.269-.747.63-.859.768-.362.429.167,1.318-.183,2.246-.5,1.325-1.314,1.248-1.266,2.854.048,1.824-.2,1.443-.958,2.4-1.586,1.993-.949,4.841-1.544,6.732-.064.211-.711.256-.894.573-.477.816-.157,2.08-.458,2.9-.436,1.19-1.224.89-2.147,1.411a6.847,6.847,0,0,0-1.307,2.662c-.231.246-.846-.1-1.17.221-.282.281-.131,1.219-.445,1.9a19.527,19.527,0,0,1-2.012,3.2c-.324.4-1.009.611-1.41,1.075-1.16,1.353-1.955,4.22-3.743,5.74-.324.272-.83.326-1.093.608-.163.173-2.817,3.414-2.791,3.347-.353.944.756.163.147.777-.452.451-1.182.371-1.676.723-1.022.723-2.932,2.771-3.143,3.609.208-.813,1.041.2,1.048.2.218.777-1.737.07-2.179.214-1.263.416-1.045,2.713-2.288,3.855-.5.458-1.58.349-2.262.829-.077.054.032.528-.083.621a19.35,19.35,0,0,1-6.136,3.778c-3.993,1.264-7.639,4.124-10.619,5.634-1.445.736-2.938,1.257-2.97,2.374-.029,1.049.833.493.381.931.128-.125-1.807-.982-1.948.371-.074.733,1.019.317,1.391.944.125.214-.16.218-.362.24a3.438,3.438,0,0,1,.269,1.389c-.173.208-.868-.013-1.557.3-.234.1-.6.621-.862.765-.493.269-1.186.09-1.554.294-.782.429-1.057,1.075-1.57,1.3a18.072,18.072,0,0,0-2.259.832c-.577.019-.7-.429-1.064-.4-.215.054-2.038.419-3.1.784-1.288.445-4.361,2.365-1.573,2.31.814-.016,2.749-1.469,3.32-1.632.33-.1.965.208,1.24.163,1.029-.16,1.32-1.037,1.6-1.107.346-.086,1.144.358,1.471.323,2.307-.243,4.685-2.678,7.646-3.26a35.8,35.8,0,0,0,8.687-3.055c1.666-.778,2.711-2.224,3.909-2.752.333-.147.484.125.817.048a18.288,18.288,0,0,0,4.919-2.745,28.135,28.135,0,0,0,4.432-4.262c1.253-1.347,2.743-2.505,4.114-3.8,1.455-1.372,3.5-1.942,4.65-3.094.442-.441.5-1.283.875-1.776.7-.922,1.589-1.849,2.317-2.652,3.185-3.5,6.9-8.507,9.908-12.545a20.291,20.291,0,0,0,2.724-4.738c.122-.477-.211-.832-.026-1.2.292-.582,1.384-1.161,1.846-1.961a43.59,43.59,0,0,0,2.781-6.562c.3-.867,1.057-1.619,1.346-2.47.506-1.485.827-3.571,1.605-5.337.6-1.369,1.6-2.55,1.7-3.74a21.3,21.3,0,0,1,.868-4.994c.349-.966,1.291-1.657,1.346-2.47.019-.326-.551-.71-.612-1.091-.179-1.078.529-2.361.574-3.327a35.562,35.562,0,0,1,1.2-7.471,9.861,9.861,0,0,0,.151-3.449C383.808,380.687,384.724,378.559,384.484,376.047ZM225.252,302.8c-.49.72-.852-.342-.849-.243C224.4,302.023,225.531,302.4,225.252,302.8Zm12.888.979c-1.077-1.008,1.208-1.142,1.564-1.305.022-.01.2-1.049.788-1.155-.016,0,.506-.509.74-.342.285.208,1.013,2.489,1.221,2.185A24,24,0,0,1,238.14,303.779Zm21.492-14.135c-.253-.176.724-.848,1.022-1C261.7,288.105,259.9,289.83,259.632,289.644Zm6.511,1.382c-.051-.176.227-.214.352-.269C268.12,290.06,266.425,291.922,266.143,291.026Zm80.289,17.379c-.314.022-2.535-1.187-2.192-2a13.722,13.722,0,0,1,3.028.029c1.2.937-.891.995-.631.925C344.971,307.817,350.585,308.1,346.432,308.406Zm2.342,2.774c-.317-.1.128-1.43.128-1.43C349.873,308.553,349.562,311.432,348.774,311.179Zm1.166-.221c.055-.435.878-.333.974-.182C351.248,311.3,349.889,311.413,349.941,310.959ZM331.778,460.285c-.314.221-.9-.163-.538-.7C331.685,458.928,332.134,460.032,331.778,460.285Zm46.556-86.9a5.287,5.287,0,0,1,.522-1.507C380.594,371.146,378.962,374.816,378.334,373.389Zm0-4.226c.074-.544,1.5.371.929.63A.709.709,0,0,1,378.338,369.162Zm1.448-.877c-.349.809-2.051-.659-1.657-1.3C378.687,366.081,380.03,367.707,379.786,368.286Z" transform="translate(-187.524 -279.819)" fill="#1f1e1c"/>
      </g>
    </g>
    <g id="Group_435" data-name="Group 435" transform="translate(45.25 54.664)">
      <g id="Group_434" data-name="Group 434">
        <path id="Path_64" data-name="Path 64" d="M211.791,296.9c-1.97.041.475.934.787.924a12.162,12.162,0,0,1,.845,2.375c-.08.325-1,.128-1.32.45-.354.357.245.717-.4,1.077-.7.4-1.441-.166-1.779.14-.5.446-.2,1.227-.252,1.849-.128,1.575-2.55,2.582-2.592,4.3-.006.309.52.555.376.931-.223.6-1.084,1.062-1.326,1.457-.807,1.31-1.23,3.328-2.129,4.613a13.179,13.179,0,0,0-1.3,2.652c-.481,1.03-1.148.9-1.058,1.8.188,2.091,2.547,2.177,3.532,1.734a10.916,10.916,0,0,0,2.075-2.8c.956-2.614,2.659-3.774,3.886-5.948a13.93,13.93,0,0,1,3.752-4.523,6.519,6.519,0,0,0,1.53-2.493c.026-.242-.386-.092-.536-.7-.309-1.275,1.39-.558.057-1.817-.848-.8-1.581.587-1.935.367-.424-.261-.829-2.735-.4-3.13a10.593,10.593,0,0,0,1.042.2c2.18.092,1.109-.2.94-1.38-.1-.708.787-.733.166-1.237-.386-.312-2.047.414-2.553.287C212.505,297.852,212.075,296.89,211.791,296.9Z" transform="translate(-201.639 -296.896)" fill="#1f1e1c"/>
      </g>
    </g>
    <g id="Group_437" data-name="Group 437" transform="translate(113.893 190.907)">
      <g id="Group_436" data-name="Group 436">
        <path id="Path_65" data-name="Path 65" d="M223.185,340.627c.249.051,3.395-.724,2.8-1.132-.153-.1-3.338.408-2.869.746C223.159,340.276,223.134,340.617,223.185,340.627Z" transform="translate(-223.064 -339.482)" fill="#1f1e1c"/>
      </g>
    </g>
    <g id="Group_439" data-name="Group 439" transform="translate(60.036 40.241)">
      <g id="Group_438" data-name="Group 438">
        <path id="Path_66" data-name="Path 66" d="M219.5,297.961c.252,1.731-2.531.252-2.748.322a14.414,14.414,0,0,0-.94,1.38c-.724.615-.022,1.014-.516,1.5-.284.28-1.234-.1-1.932.367-.475.316-.367,1.508-.676,1.734-.226.163-.676-.147-.969.182.064-.067.338.188.268.351a5.963,5.963,0,0,1-2.066,1.795c-.535.332-1.023-.019-1.358.258-.746.631-.112,1.8-.4,2.082-.175.166-1.412-.52-1.817-.057-.252.29.048,1.017.22,1.164.37.316,1.508-.488,1.511-.488a17.11,17.11,0,0,0,2.531,1.725c.354.481-.717.634.147.775.666.105.9-.717,1.629-.912.443-.118.8.4,1.275.36a7.235,7.235,0,0,0,2.56-1.288c.52-.564-.073-.905.593-1.116.695-.217,1.473.552,1.887.446.061-.019.449-.781.628-.924,1.623-1.288,3.325-.775,5.237-2,.045-.029.163-.762.236-.845,1.533-1.658,4.887-2.572,5.563-3.465.807-1.074.485-3.908-.147-4.982-.137-.23-.918-.669-.995-1.017-.054-.252,1.077-2.094.067-2.818-.88-.628-1.011,1.846-.87,1.769-.36.194-1.97-1.435-2.614-1.106-.207.105-.105.179-.121.424-.076,1.09-1.039.985-1.17,1.224-.239.424.287.956.22,1.16-.041.115-.679.054-.775.147-.465.459.663.277-.239.848C223.116,297.34,219.31,296.7,219.5,297.961Zm9.566-2.416c-.195.281-.8-.1-.727-.663C228.418,294.241,229.307,295.178,229.061,295.545Z" transform="translate(-206.246 -292.392)" fill="#1f1e1c"/>
      </g>
    </g>
    <g id="Group_441" data-name="Group 441" transform="translate(144.175 138.191)">
      <g id="Group_440" data-name="Group 440">
        <path id="Path_67" data-name="Path 67" d="M252.149,339.519l1.82-.23.995-1.291-.127-1.345-1.326-.743-.223-.689-2.665-2.047-2.311-2.41-1.135-.121-1.409-1.572-3.143-2.5-4.214-3.58-1.619.523L235.9,324.6l.223,1.269,2.563,2.024.22.867,1.6.481.061.459,2.152,1.183,0,.07-.284.367-1.138-.494-.752.073-3.44-1.9-.606.076-1-.555-2.158.064-.641.778-.207.5.08.386.921,1.658.985-.07,1.587,1.224,1.635-.057.854.7,3.583,1.419.644-.112.067.418,1.183.392.051.367,1.061,1.129,1.3,2.486,1.214,1.208-.666.8,1.431,1.189.411-.5,1.106.322.7-.87-.22-1.4-.893-2.483-1.02-1.332-.067-.918,3.054,2.4Zm-4.543-4.214,0-.006.054-.3.376.507Z" transform="translate(-232.487 -322.994)" fill="#1f1e1c"/>
      </g>
    </g>
    <g id="Group_443" data-name="Group 443" transform="translate(137.323 149.206)">
      <g id="Group_442" data-name="Group 442">
        <path id="Path_68" data-name="Path 68" d="M236.043,348.679l.909.15,1.011.9,2.515-.236,2.158-1.007,3.95-3.937-1.3-2.123-1.654-1.45-1.925-3.079-2.872-3.631-5.524-7.7-2-.159-.6.931-.351,1.788,5.247,6.672-3.083,2.7-.638,2.327.284,1.511.813,1.463-.035.622,2.569,2.77-.386.293Zm1.486-9.257.618.446,2.225,2.818,1.409,1.348-.574.453-.526-.073-1.224.7-3.277-4.45Z" transform="translate(-230.359 -326.4)" fill="#1f1e1c"/>
      </g>
    </g>
    <g id="Group_445" data-name="Group 445" transform="translate(115.565 157.028)">
      <g id="Group_444" data-name="Group 444">
        <path id="Path_69" data-name="Path 69" d="M238.964,350.955l.727.947,1.725-.832-.325-2.012-.156-.035-.386-.835.545-.236-1.167-3,.207-.81-.038-2.034-.794-.813.1-.414-.389-2.375-.571-1.737.3-1.9-1.849-5.588-.915-.36-.453-.067-1.119.207-.835,1.278,1.017,3.134-.038,1.82-2.088.947-.94.921-1.119.65-.029-.915-1.489-2.149-1.116-1.285-.937-.335-3.261.469,1.584.969-.121.089.281,1.967,1.122.035.147.309,1.645,1.594,1.329.529.153.338-1.1-.574-.188,1.648.4.912.778.287.434,1.01,1.246,1.345.663-.88.622,2.059,1.5,2.372,1.288,1.32.653-.306-.175,3.054,1.2.255,1.192-.51-.335-.778.775.271Zm-1.39-3.229-.36-.131.086-.159-1.562-3.389L234.3,342.4l-1.361-1.106-.309-.733.293-.7,2.684-1.23,1.068,1.24-.016.223-.873.912,1.25,3.985.331.118-.456.194.4.787.4,1.568Z" transform="translate(-223.57 -328.854)" fill="#1f1e1c"/>
      </g>
    </g>
    <g id="Group_447" data-name="Group 447" transform="translate(107.608 162.324)">
      <g id="Group_446" data-name="Group 446">
        <path id="Path_70" data-name="Path 70" d="M224,345.38l1.022.626.188,1.51-.744.632.3,1.489.712.356-.447.694.516,2.361,1.613,1.271.95-.245,1.008-.563.479-1.233-.777-3.354L228,344.38l-.554-.891.3-1.229L226.7,338.7l-.4-3.681-.8-3.474-1.609-1.027-1.8.459-.988,1.548.477,2.14.717,2,.98.671-.237.394.59,1.088-.528.552.5,3.373.535.395-.494.461Z" transform="translate(-221.098 -330.515)" fill="#1f1e1c"/>
      </g>
    </g>
    <g id="Group_449" data-name="Group 449" transform="translate(110.293 185.948)">
      <g id="Group_448" data-name="Group 448">
        <path id="Path_71" data-name="Path 71" d="M223.219,342.225l1.669.025,1-1.552.212-1.41-1.343-1.362-2.27.167-.543,1.079.045,1.743Z" transform="translate(-221.94 -337.926)" fill="#1f1e1c"/>
      </g>
    </g>
    <g id="Group_451" data-name="Group 451" transform="translate(114.521 184.866)">
      <g id="Group_450" data-name="Group 450">
        <path id="Path_72" data-name="Path 72" d="M227.887,340.5l-.43-1.888-1.2-.767-1.412-.258-1.587,1.651.4,1.75,1.559,1.194,1.628-.376Z" transform="translate(-223.258 -337.587)" fill="#1f1e1c"/>
      </g>
    </g>
    <g id="Group_453" data-name="Group 453" transform="translate(73.302 163.965)">
      <g id="Group_452" data-name="Group 452">
        <path id="Path_73" data-name="Path 73" d="M212.163,351.648l4.833,1.6.988-.013.931-.443.695-.676,1.348-4.928,1.865-8.145.972-4.788-.5-1.339-.72-.784-5.365-1.1-1.785.813-.893.988-1.772,6.4.013,1.795-.526.9-1.852,6.981.551,1.53Zm5.442-16.111.159-.348,1.639.2-.019,1.492-.708,2.474-.389.644-.628-.016-1.027-.561Zm-2.12,8.435.07-.115,1.747.351-.8,3.851-.3.542-1.635-.322-.1-.3Z" transform="translate(-210.391 -331.03)" fill="#1f1e1c"/>
      </g>
    </g>
    <g id="Group_455" data-name="Group 455" transform="translate(58.55 159.14)">
      <g id="Group_454" data-name="Group 454">
        <path id="Path_74" data-name="Path 74" d="M217.838,340.916l.5-1.859.969-1.23,1.628-3.836-.436-1.164-1.491-.721-2.4,2.253-.637.486-1.065,1.638-1.7,1.548-1.919,2.231,3.692-8.164-.03-1.386-.481-1.036-1.067-.159-1.247.826-2.456,5.637-2.235,4.665.233.5-.3,1.046.208.883-.3,1.336-.252.091-.265.535-.631-.284.09,1.718-.445.435.535,1.578,1.042.46.477-.957.2-.077,1.3-1.754-.013-.021.317-.167.864-.818,1-.418,1.187-1.6.988-.8.4-.544-1.32,3.042.086.66-.6,1.291-.458,2.055-.28-.124-.535,1.19-.359,2.291,1.611-1.747.605-1.145-.661-.3,1.818-.578-.028-1.387,1.38-1.015Z" transform="translate(-205.788 -329.517)" fill="#1f1e1c"/>
      </g>
    </g>
    <g id="Group_457" data-name="Group 457" transform="translate(43.475 155.371)">
      <g id="Group_456" data-name="Group 456">
        <path id="Path_75" data-name="Path 75" d="M206.545,346.067l1.355.038,2.856-3.487,2.056-3,5.368-6.921,1.339-1.967-.035-1.253-1.192-1.144-1.728.309-2.388,3.471-1.862,2.1-.354.175-2.665-1.607-2.576-.249-1.549,1.17-3.844,5.544-.242,1.6.784,1.855Zm.1-7.829,1.476-1.588.7.182.8.552,0,.048-2.831,4.15-1.527-1.3Z" transform="translate(-201.084 -328.334)" fill="#1f1e1c"/>
      </g>
    </g>
    <g id="Group_459" data-name="Group 459" transform="translate(32.362 143.282)">
      <g id="Group_458" data-name="Group 458">
        <path id="Path_76" data-name="Path 76" d="M199.422,341.074l.9.625,3.379.555,1.049-1.023,1.036-.306,2.863-2.758,1.431-2.346.421-.421,1.164-.469L213.4,333.5l.851-.223,1.291-1.855.408-2.136-.548-1.906-1.125-1.5-1.253-.8-2.282-.494-1.712.545-4.281,3.691-6.784,6.615-.344,2.094.567,1.929Zm5.346-7.217,5.25-4.884,1.16-.555.494.07.653,1.262-.163.609-2.337,1.855-1.639,1.6-3.427,2.859-.456.947-1.546,1.058-.52.064-.819-1.052-.01-.819Z" transform="translate(-197.618 -324.587)" fill="#1f1e1c"/>
      </g>
    </g>
    <g id="Group_461" data-name="Group 461" transform="translate(21.106 131.945)">
      <g id="Group_460" data-name="Group 460">
        <path id="Path_77" data-name="Path 77" d="M196.294,336.282l.638.481,1.116.351.8,1.266.781.118.293-.026.37-.233.131.156,2.091-1.412.316-.7.29.054,5.394-3.213,4.88-3.35,2.231-1.2.449-1.1-.759-1.119-.134-.045-1.026-2.649-1.4-1.549-2.136-1.065-1.106.424-.8-.159-.918.587.245.389-2.311,1.081-.845.491-.156.523-1.023.816-.752,1.186-.252,2.177,2.069,3.628v.022l-.491-.067-1.906,1.422-.335.552-.156.131-1.087.207-.038.612-.867.421-.14-.029-.746-1.489-.819-.545-.829-.96-.115-2.149-1.562.3-1.536.975,1.5,2.231Zm13.589-11.935.548.532.928,1.112.478.108.5.819-1.887.816-2.847,1.75-.736.679-.835-2.276-.01-.373Z" transform="translate(-194.145 -321.045)" fill="#1f1e1c"/>
      </g>
    </g>
    <g id="Group_463" data-name="Group 463" transform="translate(14.482 119.544)">
      <g id="Group_462" data-name="Group 462">
        <path id="Path_78" data-name="Path 78" d="M194.388,332.237l.864.529,4.67-1.763,9.206-4.093,1.737-.067.4.163.37,1.371,1.47.752,1.747-.73.217-.341.163-1-.995-2.926-2.6-1.049-1.087.484-3.809.682-.23.663-.265-.153-.829.924-1.144.265-.344.8-2.531,1-1.186.6-4.46.711-.051-.459.029-1.122-.679-1.211-.045-.134.242.1.7-.124,1.39-.663.73-.459,2.595-.972.8-.634.765-.022,1.393-.4.975-.7,2.3-.755.669-1.594,3.781.867.609-2.056-.456-1.259-1.138-.284-3.921,1.648-3.921,1.383-6.14,2.5-.325.172-.854.029-1.568,1.218-.485-.118h-.265l-.354.134-.459.886.6,1.5.194.051-.609.749.013,1.049,1.626,1.489.092,0-.386,1Zm1.45-2.4-.006-.051.137.14-.025.006-1.157-.083Z" transform="translate(-192.067 -317.172)" fill="#1f1e1c"/>
      </g>
    </g>
    <g id="Group_465" data-name="Group 465" transform="translate(10.645 107.823)">
      <g id="Group_464" data-name="Group 464">
        <path id="Path_79" data-name="Path 79" d="M191.961,323.194l1.855,2.323,3.358-.466,1.694-.193,1.957.224.642-.766.043.232,1.549-.32.749.167,4.195-.887,3.05-.225,1.977-1.03.182-1.535-.807-5.838-1.236-1.151-1.6-.218-1.093,1.286,1.012,4.918-.094.24-1.251.432-4.428.914-.319-1.313.3-1.358-.246-1.143-1.031-1.1-1.8.1-.674,1.084.7,3.3.287.9-.56-.386-4.475,1.155-.789,1.161-.259-.2-.171-1.455.16-1.206-.413-3.1-1.243-.806-1.05-.2-.99.792-.278.892.364,2.741Z" transform="translate(-190.863 -313.512)" fill="#1f1e1c"/>
      </g>
    </g>
    <g id="Group_467" data-name="Group 467" transform="translate(10.08 94.662)">
      <g id="Group_466" data-name="Group 466">
        <path id="Path_80" data-name="Path 80" d="M198.682,315.577l-2.148-.337-2.742.494,0,.337-.424-.571-1.773-.257-.9.921,0,2.126,1.589.367.291-.536.274.261,1.5-.024.011-.028,1.628.231,1.6-.029,3.42.2.995-.446.321-.259.939.689,5.534-.052,1.686.214,1.136-.855,0-1.783-.858-.841-1.741-.223-1.758.378-2.071-.366-1.112.406-1.782-.007-.588-.3-.049-.255.657-.838-.034-1.28-.445-1.683-2.757-1.374-2.9-.453-.614.426-2.736.006-1.983.507-.019.863.9.761,2.2.422,1.615-.028,1.185.018.828-.842.289.36,1.247.375.09.108.009.862.5,1.058-.37.642Z" transform="translate(-190.686 -309.401)" fill="#1f1e1c"/>
      </g>
    </g>
    <g id="Group_469" data-name="Group 469" transform="translate(21.653 94.378)">
      <g id="Group_468" data-name="Group 468">
        <path id="Path_81" data-name="Path 81" d="M200.663,309.736l-5.647-.148-.676.7-.024,1.316,1.271.661,7.162.79.543-.565.595-1.089-.558-1.569-1.515-.519Z" transform="translate(-194.317 -309.316)" fill="#1f1e1c"/>
      </g>
    </g>
    <g id="Group_471" data-name="Group 471" transform="translate(12.512 78.292)">
      <g id="Group_470" data-name="Group 470">
        <path id="Path_82" data-name="Path 82" d="M193.46,305.145l-1.374,1.626-.638,2.018.025,1.011,1.476,3.082,1.438.281.845.676,3.9.771,2.748-.166.583.1,1.052.685,2.168.609.666.574h2.384l1.753-.838,1.364-1.591.606-1.871-.086-1.393-.9-2.158-1.425-1.09-5.48-1.4-9.3-1.785Zm2.592,2.792,4.4,1.03,7.007,1.514,1.122.638.226.443-.666,1.259-.593.214-2.856-.851-2.254-.434L198,310.535l-.912.207-1.747-.666-.351-.392.4-1.272Z" transform="translate(-191.449 -304.284)" fill="#1f1e1c"/>
      </g>
    </g>
    <g id="Group_473" data-name="Group 473" transform="translate(18.39 56.968)">
      <g id="Group_472" data-name="Group 472">
        <path id="Path_83" data-name="Path 83" d="M193.605,302.834,193.293,304l.226.88.472.845,4.431,2.55,7.405,3.867,4.386,2.145,1.422-.147.944-.5L215,308.732l-.335-1.932-.733-1.113-5.671-3.3-1.8-.481-.74-.736-6.286-3.554-1.616.147-1.489.867Zm12.62,4.068.8-.845,3.519,1.922.293.242-.609,1.536-1.438-.4-2.216-1.313-.526-.539Zm-7.243-5.084.309-.016,3.621,1.992.092.1-.781,1.6-3.522-1.747-.449-.427Z" transform="translate(-193.293 -297.619)" fill="#1f1e1c"/>
      </g>
    </g>
    <g id="Group_475" data-name="Group 475" transform="translate(42.149 54.705)">
      <g id="Group_474" data-name="Group 474">
        <path id="Path_84" data-name="Path 84" d="M200.678,296.917l.288.289.253.185h0Z" transform="translate(-200.678 -296.917)" fill="#1f1e1c"/>
      </g>
    </g>
    <g id="Group_477" data-name="Group 477" transform="translate(31.543 37.787)">
      <g id="Group_476" data-name="Group 476">
        <path id="Path_85" data-name="Path 85" d="M207.664,296.238l-.133-.694-4.131-3.919-1.4,1.351-1.395.845-.813.805-.107.98-.616.232-1.7,1.532.212,1.428,1.3.973,3.972,3.963.659.113.6.662.009-.013.278.707,2.6,2.351.37.371,1.111,1.046h0l1.039.979h0l1.053.991-.954-1.059-.838-.691.693.508-.013.028.157.155.688.681.266.378.091.129.16.04-.034.312,1.33.811,1.493-1.512,0-1.292-1.446-1.058-.706.111.233-.246-1.555-2.2-1.955-1.42-3.2-3.606,0-.014,0,.007-3.512-3.962.128-.5.873-.271.933-.847.255-.209.8.881.37.006.135.181.126.99,2.054,2.008,1.78,1.169,1.057.076-.024.025.483,1.344.916,1.171,3.636,3.822.928.427,1.221-.441.648-1.534-.764-1.407-1.132-.466-4.06-3.934-.978.064-.218.231-.924-1.561Z" transform="translate(-197.362 -291.625)" fill="#1f1e1c"/>
      </g>
    </g>
    <g id="Group_479" data-name="Group 479" transform="translate(43.962 27.743)">
      <g id="Group_478" data-name="Group 478">
        <path id="Path_86" data-name="Path 86" d="M210.5,289.494l-.8-.159-.861-.813-2.187.128-1.906.826-3.51,3.283,1.036,1.82,1.428,1.329,1.645,2.831,2.477,3.36,1.269,2.027,3.42,5,1.6.182.494-.73.325-1.438-4.565-6.213,2.936-2.445.609-1.98-.2-1.326-.7-1.326.054-.539-.625-.816-1.7-1.843.373-.274Zm-.067,7.118L209,297.852l-.689-.532-1.916-2.6-1.383-1.412.778-.571.481.08,1.135-.593.118.01,2.93,4.265Z" transform="translate(-201.238 -288.522)" fill="#1f1e1c"/>
      </g>
    </g>
    <g id="Group_481" data-name="Group 481" transform="translate(59.019 20.675)">
      <g id="Group_480" data-name="Group 480">
        <path id="Path_87" data-name="Path 87" d="M207.4,288.849l-1.47-1.787.227,2.355.454,1.217.667-.3-.783,1.743,1.057.9-.173,1.842,2.171,5.117,1.055,1.611.274,1.544,1.788,3.767,1.159.446,1.525-.638-.083-3.29.066-.9-.524-1.782-.024-2.3-.392-2.911,3.6,8.063,1.108,1.014,1.1.33.824-.7.21-1.476-2.578-5.58-2.006-4.771-.528-.158-.58-.921-.8-.434-.8-1.115,0-.005.1-.242-.222-.553.635-.279-1.348-1.08-.03-.622-1.529-.649-1.046.472.4.994-.077.2.447,2.142.026.005-.107.428.06,1.107-.351,1.021.406,1.952-.058,1.355.145.574-1.4-3.005-.55-.373-.567-1.307-1.23-1.707.276-.125Z" transform="translate(-205.934 -286.305)" fill="#1f1e1c"/>
      </g>
    </g>
    <g id="Group_483" data-name="Group 483" transform="translate(74.496 16.256)">
      <g id="Group_482" data-name="Group 482">
        <path id="Path_88" data-name="Path 88" d="M212.589,285.208l-1.271.337-.554.88.524,1.237-.225.625.764,2.9.314,2.918.744.711.139,1.939.871,3.516,1.01,4.765,1.288.464,1.089-.253.471-.882-.714-2.845.3-.7-.879-1.234.22-.381-.886-2.034.135-.2.62-.157.588,1.066.586.366,1.4,3.236.475.277.413.962,1.465,1.061,1.048-.247.116-.232.3-1.672-.7-.466-.46-1.749-1.2-.861-.242-1.042-1.718-2.881-.648-.34.22-.4-.629-.934.195-.337-.133-1.353.469-2.605-.263-1.632.163.046.757-.171-.289-1.259-.5.119-.612-.84-.772.188-.552,1.009-.764,2.351.039,1.418-.5.745.366.722-.481.5-.1-.053-.047-.2.075-.41-1.018-4.056.225-1.194Z" transform="translate(-210.764 -284.919)" fill="#1f1e1c"/>
      </g>
    </g>
    <g id="Group_485" data-name="Group 485" transform="translate(89.14 14.456)">
      <g id="Group_484" data-name="Group 484">
        <path id="Path_89" data-name="Path 89" d="M216.551,295.623l-.089,1.693-.8,1.387-.325,5.266.58.539.3.15.15,0,.746.185.975-.7.163-2.9.682-1.658,2.18-.124,1.039-.459,1.5-.236-.36,1.026.532,2.206.5,1.4.5.434,2.439.631-.867-1.128.29-.083.335-1.476-.883-.376-.032-.424-.845-1.807-.96-.864-.051-.972.918,1.046.539-1.027-.026-.762-.564-.5-.035-1.065-.507-1.262-.975.6.182-2.381-.478-2.314-.6-1.4-.829.057,1.2-2.646-.724-.491-.918.041.038,1-.861-.743-.322-.169-.277-.966-1.422.118L218.259,286l.092.061.067,1.093-.542.041v2.773l-.414.583-.634,1.683.408.966-.191.284Zm6.666-.577.006.089-.092,0ZM219.764,288v0h0Zm-1.068,6.911.988-.462.236-3.542-.414-.357,0-.051.612-.073-.1-.9.2-1.135L220,288.2l.628-.054.491.427-.22.188.2,3.255.644,1.766.8,1.409.029.848-.583.606-2.815.172-.214-.22-.01-.277-.4-1.094Z" transform="translate(-215.333 -284.354)" fill="#1f1e1c"/>
      </g>
    </g>
    <g id="Group_487" data-name="Group 487" transform="translate(103.32 14.335)">
      <g id="Group_486" data-name="Group 486">
        <path id="Path_90" data-name="Path 90" d="M230.212,285.24l-5.677-.924-1.23.571-1.007,4.4-.5,3.6-1.721,8.588-.322,2.359.59,1.106,1.581.494,1.412-1.052.583-4.166.73-2.719.239-.312,3.229.261,2.289-.937.867-1.737.969-6.678.016-.137-.516-1.406Zm-2.276,6.13-.618,2.082-.7.15-.969-.14-.026-.038.685-4.979,1.954.488Z" transform="translate(-219.756 -284.316)" fill="#1f1e1c"/>
      </g>
    </g>
    <g id="Group_489" data-name="Group 489" transform="translate(116.212 17.949)">
      <g id="Group_488" data-name="Group 488">
        <path id="Path_91" data-name="Path 91" d="M237.837,287.756l-1.461-.078-1.621-.936-1.117-.336-.8-.564-1.688-.393-.99.9-.359,1.621-.922,1.715-.53,2.049-1.059,2.29-3.514,9.588.045,1.62,1.067.7,1.549-.531.879-1.217,5.119-13.986.291-.253,1.748.391.847.669-4.276,11.928-1.579,3.315.637,1.336,1.112.661,1.5-.328.841-1.25.851-3.32.445-.817,1.837-5.555,1.889-5.064.931-2.151-.648-1.355Z" transform="translate(-223.774 -285.45)" fill="#1f1e1c"/>
      </g>
    </g>
    <g id="Group_491" data-name="Group 491" transform="translate(127.637 26.416)">
      <g id="Group_490" data-name="Group 490">
        <path id="Path_92" data-name="Path 92" d="M239.221,290.248l-.443-.271-1.533,2.308-.669.252-1.47,1.046-.194,1.033-.316.124-1.6,1.5-1.017,1.358-1.434.7-3.2,4.2.185.775.166.29.647.65,1.2-.045,1.747-2.314,1.492-1,1.878,1.109,1.122.2,1.377.634-.873.654-.784,2.133-.357,1.438.169.637,1.673,1.874-.089-1.415.284.092,1.106-1.039-.529-.806.21-.367.316-2.085-.328-1.141.5-.835.175,1.368,1.023-.539.4-.65-.188-.724.561-.912.284-1.323-1.151-.045,1.431-1.817.937-2.251.281-1.5-.72-.411,2.474-1.533-.338-.806-.775-.485-.536.864-.3-1.1-.172-.325.3-.956-1.246-.692-1.119,1.09.041.1-.548.947Zm-.411,9.3-.077-.045.121-.029ZM239.9,291.7l0-.006,0,.01Zm.156.577-.076-.281.552.306.169.625-.287.032-1.639,2.824-.449,1.823-.115,1.616-.449.724-.819.182-2.439-1.428-.054-.3.147-.236.274-1.129.3-.188,1.081.169,2.164-2.815-.147-.529.112-.061.465.284.418-.784Z" transform="translate(-227.337 -288.106)" fill="#1f1e1c"/>
      </g>
    </g>
    <g id="Group_493" data-name="Group 493" transform="translate(140.543 34.127)">
      <g id="Group_492" data-name="Group 492">
        <path id="Path_93" data-name="Path 93" d="M240.077,297.419l-1.5,1.451-6.74,7.6-.479,1.3.648,1.309,1.628.317,2.223-2.063.877-1.537,2.907-2.907.856-1.683.391.012,1.959-2.079.047-.566,1.805-1.789.4-.2,1.378.442,1.6-.745-.045-.81-.7-.9-1.42-1.462-2.783-2.628-2.03.815-.053,1.5,1.4,1.6-1.108,1.525Z" transform="translate(-231.363 -290.482)" fill="#1f1e1c"/>
      </g>
    </g>
    <g id="Group_495" data-name="Group 495" transform="translate(148.181 45.499)">
      <g id="Group_494" data-name="Group 494">
        <path id="Path_94" data-name="Path 94" d="M251.43,295.379l-1.108-.755-3.6-.588-10.041,7.66-1.87,1.489-1.074,2.411.083,1.919,2.156,2.32,1.129.2.381.488,2.323.059,1.972-.984.347-1.7-.6-.773-.648-.234-1.974.573-1.106-.125-.552-1.106v-.5l.27-.972,3.915-3.179.137-.435,1.386-.1,1.328-1.264.391-.694.62.015.584-.453.244-.344,1.666-1,.89.023.558.248.58.506-.118,1.166-.776,1.831.537,1.216.971.124,1.228-.433,1.213-2.558-.1-2.082Z" transform="translate(-233.741 -294.035)" fill="#1f1e1c"/>
      </g>
    </g>
    <g id="Group_497" data-name="Group 497" transform="translate(155.197 58.325)">
      <g id="Group_496" data-name="Group 496">
        <path id="Path_95" data-name="Path 95" d="M253.568,298.043l-2.965,1.782-1.157.322-1.3.736-1.317,1.83-.057-.481-1.549.293-1.132.7-2.378.953-2.171,1.412-1.718.427-1.932,1.189,1.466,4.386,1.234,1.654,2.015,1.275,1.144-.316.956.3.332-.507.657-.229,1.444-.791.886-.4.214-.5,1.1-.714.867-1.1.469-2.139-1.355-3.248.574-.29,2.528-1.689,3.672-1.935,1.415-1.524-.889-.787Zm-7.957,11.17-.937.759-2.828,1.122-.8-.5-.752-.561-.3-.453-.555-1.157.485-.52,1.393.032,1.6-.778,1.211-.905,1.5-.669.427,2.834Z" transform="translate(-235.889 -298.043)" fill="#1f1e1c"/>
      </g>
    </g>
    <g id="Group_499" data-name="Group 499" transform="translate(160.317 74.183)">
      <g id="Group_498" data-name="Group 498">
        <path id="Path_96" data-name="Path 96" d="M251.3,307.019l.415.055,4-1.205,1.2.169.676-1.273-.394-1.253L256.3,303l-1.211.578-.635-.194-2.858.9-2.9.45-.672.777-1.934.227-3.472,1.031L237.9,308,237.5,309.3l.3,1.077.9.425,2.807-.843.714.273,1.191-.939.394.2,1.987-.977.21.124.186.613-1.04.633-.338.608-3.172,1.546-.252.491-.939.454-.99,1.509.293,1.046.244.1,1.677.218.432-.723,1.726-.539.8-1.233,1.031-.289,2.8-1.852.308-.661.413.2.9-.673.347.18,1.348-.194,2.622.342,1.617-.336-.038.169.205.741,1.243-.333-.139-.5.8-.649-.214-.765-1.037-.509-2.385-.654-1.412.1-.774-.461-.7.4-.524-.457.047-.1Z" transform="translate(-237.495 -303)" fill="#1f1e1c"/>
      </g>
    </g>
    <g id="Group_501" data-name="Group 501" transform="translate(162.252 89.447)">
      <g id="Group_500" data-name="Group 500">
        <path id="Path_97" data-name="Path 97" d="M258.8,310.146l-2.477-1.922-1.157.618-.057-.44-.746-.631-.223.019-.937.389-.306-.226-2.907.08-.536.446-1.316.156-.147.172-.163-.328-1.96.21.038.5-.657-.032-.312-.242-.045-.494-1.02.092-1.8-.15-1.945.784-2.024,2.515.118,2.923.551,1.084,1.514,1.435,1.817.768,4.3-.456.618.3,8.46-.711,1.38-.548,2.117-1.868.567-1.712-.453-.679.185-.462-.822-.4.437-.048Zm-3.433,3.248-.953.555-.956-.163-.469-.4-1.039.086-.147.2-3.87.644-4.957.163-1.007-.708-.128-1.128.424-.459.427-.708.328.252,2.92-.3,1.855-1.2.022.188,1.932.775,3.124-.128.654-.644.261-.032,1.466.472,1.109.708.721-.08Zm2.761-1.839-.191.016-.5-.115.8-.089Z" transform="translate(-238.102 -307.771)" fill="#1f1e1c"/>
      </g>
    </g>
    <g id="Group_503" data-name="Group 503" transform="translate(162.57 102.648)">
      <g id="Group_502" data-name="Group 502">
        <path id="Path_98" data-name="Path 98" d="M252.362,318.263l.564-.446,1.323.309,1.556-.634,2.451.233,1.756-1.007.038-.864-.752-1.141-1.788.054-1.052.367.061-.491-.647-.819-.43.338-1.026.354-.765-1.5-2.416.252-.3.274-1.055-.848-.775-.045-.414.15-1.986-.025-.316-.4-5.1-.472-1.559.618-.073,1.011.185.638.9.548,7.74.8-1.345.434-2.238-.038-1.033.446-.96,1.906,1.042,1.237,1.2.781,1.884.4.376.223-8.068-.755-.768.612-.367,1.412.6,1.033.842.1.851.453,1.077-.4,1.205.835,1.492-.657,3.232.128.829-.067.634.714.867.1,2.282-.121.778-.2.532.583.915.7.673-.625.01-.092.816.708,1.976.194,1.352-.807.437-1.893-.918-1.415-1.2-.14-.223.194-.682-.437-3.22-1.412-1.992-.357-.335-.424L250,318.687l1-.348Zm3.264,5.078.029.035-.583.832-.172-.418Z" transform="translate(-238.202 -311.894)" fill="#1f1e1c"/>
      </g>
    </g>
    <g id="Group_505" data-name="Group 505" transform="translate(160.268 115.399)">
      <g id="Group_504" data-name="Group 504">
        <path id="Path_99" data-name="Path 99" d="M252.52,323.311l.077-.107.13.086,2.954.357.291-.24.883.289.622-.129.492.24.7-.66.255-.831-1.281-1.368-.582.5-.359-.009-.819-.473-1.331-.128-2.154.5-1.117.41-.732-.71-.755-.12-.607-.712-2.537.557-.781,1.128-1.037-1.257-.652.143-.443-.173-.252.171-1.326-.794-1.228-.3-.171-.807.777-1.217.071-1.663-1.01.29-.578-.4-1.1.285-.862.639-.575,1.659.154,1.053-.133.718.18.841.734.593.6.723,3.429,1.44.272-.1.5.532,2.622,1.3.377.466,1.089.513,1.174.2.415.9.845.108,1.88.891.633.533,1.3.441.819.742,1.046.012.742-.2.622-.787.137-.971-.282-.943-.832-.632-1.9-.613-.582.022-.359.092.058-.346-.68-.973-.552.033-.173-.143-.244-.522-1.147-.158-.635-.541-.625-.445,2.327-.033Z" transform="translate(-237.48 -315.878)" fill="#1f1e1c"/>
      </g>
    </g>
    <g id="Group_507" data-name="Group 507" transform="translate(66.415 64.184)">
      <g id="Group_506" data-name="Group 506">
        <path id="Path_100" data-name="Path 100" d="M208.554,320.984l1.108,2.178,1.236,1.35.83.372,1.724.535,2.051.207,2.227-1.369,1.444-3.059-.118-.913,2.043-4.914-.832-2.813-2-1.525-.913-2,.308-.7.909-2.554,2.143-2.184,2.456.616.18.616.655,2.766.374.145.685-.229.6-1.286.7-.261.289-1.239-.359-2.047-1.076-1.268-2.261-1.331-2.049-.207-2.537.768-2.148,1.613-2.3,4.866-.338,1.987.443,1.805,1.012,1.8,3.059,2.257.163.65-.141,2.081-.732,1.546-1.134,1.874-1.805,1.01-1.626-.486-1.125-1.82.518-1.448-.2-1.4-1.2-.843-1.238.278-1.328,2.83Z" transform="translate(-208.239 -299.869)" fill="#1f1e1c"/>
      </g>
    </g>
    <g id="Group_509" data-name="Group 509" transform="translate(83.464 70.521)">
      <g id="Group_508" data-name="Group 508">
        <path id="Path_101" data-name="Path 101" d="M213.558,328.035l1.2.843.7-.261.734-.406,2.09-3.876,7.38-15.87.7-.507,2.017.924,1.919-.507.259-.6.111-.8-.488-.811-7.684-4.317-1.707.246-.877,1.271.667,1.594,1.664,1.07.522,1.074-2.37,4.509-6.811,14.569Z" transform="translate(-213.558 -301.848)" fill="#1f1e1c"/>
      </g>
    </g>
    <g id="Group_511" data-name="Group 511" transform="translate(94.025 77.883)">
      <g id="Group_510" data-name="Group 510">
        <path id="Path_102" data-name="Path 102" d="M222.431,316.83l-1.932,2.9-3.649,7.164.148.845,1.662,1.074,1.934-.7,4.024-8.563,1.121-.62.96.766.359.99-1.328,3.4.163.65-1.474,4.347.216,2.5,1.318.616,1.236-.438,1.989-5.8.744-3.448.924-1.938,1.446-.7.847-1.2-.475-.766.227-.456.618-.182.864.392.227-.456-.67-1.431.178-.359.113-.8,1.283-.537.943-1.4-.231-1.172-1.042-.764-.894.327-.843,1.776-1.737,4.3-.779.507-3.517-1.671-.163-.894,1.072-2.231,2.287-4.265.682-.229,2.6,1.217,1.69-.214.083-.244-.3-1.529-1.012-1.234-3.53-2.208-2.327.753-5.078,9.782Z" transform="translate(-216.85 -304.147)" fill="#1f1e1c"/>
      </g>
    </g>
    <g id="Group_513" data-name="Group 513" transform="translate(113.174 85.553)">
      <g id="Group_512" data-name="Group 512">
        <path id="Path_103" data-name="Path 103" d="M223.088,332.487l1.172.826,1.382-.488,3.08-6.595-.133-.877,1.269-1.564.779-.667,1.949-2.362,2.6-2.526,2.71-3.566,2.126-3.29-.261-.7-.569-.569-1.741.312-.843,1.2-1.885,1.825-.845,1.206L230.712,318l-.244-.079-.116-.342-.113-.911,1.164-4.3-.195-.586.712-2.081-.2-2.539-.749-.618-1.268.265-.261.6-.614,1.889-.712,2.086.278.663-.342.684.361,2.049-1.213,3.174-.612,5.874-3.763,7.39Z" transform="translate(-222.825 -306.544)" fill="#1f1e1c"/>
      </g>
    </g>
    <g id="Group_515" data-name="Group 515" transform="translate(121.671 92.875)">
      <g id="Group_514" data-name="Group 514">
        <path id="Path_104" data-name="Path 104" d="M240.277,318.125l2.06-3.81.907-3.694-.361-1.48-.7-.308-1.658.8-5.433,10.338-4.608,9.164-.648.244-2.492-.875-1.022.342-.847,1.207.428,1.512,3.532,1.638,2.278-.248,1.412-1.206,1.6-3.059,1.557-3.29,2.417-5.581Z" transform="translate(-225.475 -308.833)" fill="#1f1e1c"/>
      </g>
    </g>
    <g id="Group_517" data-name="Group 517" transform="translate(93.052 54.005)">
      <g id="Group_516" data-name="Group 516">
        <path id="Path_105" data-name="Path 105" d="M222.2,311.61l.464.241.881-.292,1.093-1.94,1.906-4.143,2.783-4.908-.25-.84-1.2-.749-.744.28-1.51,1.5-.7.92-.7.622-.685.9-.327.267.644-3.425.65-1.878-.374-1.2-.933-.278-.926.242-1.467,3.024-.2.871-.289.089-1.559,2.88-1,1.494-1.2,2.423.1.553.539.654,1.189-.145.18-.4.545-.812,1.345-2.484-.09.286-.216,1.312.235.438,1.185.8.633-.091,1.309-1.189-1.75,4.073Z" transform="translate(-216.553 -296.694)" fill="#1f1e1c"/>
      </g>
    </g>
    <g id="Group_519" data-name="Group 519" transform="translate(102.206 58.86)">
      <g id="Group_518" data-name="Group 518">
        <path id="Path_106" data-name="Path 106" d="M227.387,299.806l-.28-1.218-.545-.251-.71-.125-.7.409-.883,1.812-1.288,2.353-.081.6-.571.44-.828,2-1.166,1.815-.92,1.888.368,1.108,1.04.476,1.065-.359.582-1.174.413-1.188-.184-.619.229-.08.126-.7.426-.055,1.035-1.758-.086-.323.344-.025.522-1-.235-.658.428-.686.571-.013.447-.846-.175-.386.406-.134Z" transform="translate(-219.413 -298.212)" fill="#1f1e1c"/>
      </g>
    </g>
    <g id="Group_521" data-name="Group 521" transform="translate(108.081 62.096)">
      <g id="Group_520" data-name="Group 520">
        <path id="Path_107" data-name="Path 107" d="M228.038,299.223l-2.116.712L223.89,304l.186.763.511.959.569.693,1.286.7-.336,1.4-.83,1.2-.948.451-.706-1.337.391-.784-.25-.774-.507-.231-.918-.165-1.1,2.188.167,1.154.518.965,1.583,1.038.366-.112.406.194.736-.132.556-.566.721-.462,1.44-2.875.24-.108.9-1.226-.789-.368-.223-.676-.411-.185-.449-.534-.344-1.053.083-1.03.332-.917.753-.683.473-.15.188.1.582.56.173.5-.415,1.257.9.665.787-.218.336-.645.314-2.063-.214-.165-.571-1.125-1.224-.7Z" transform="translate(-221.244 -299.223)" fill="#1f1e1c"/>
      </g>
    </g>
    <g id="Group_523" data-name="Group 523" transform="translate(116.845 65.642)">
      <g id="Group_522" data-name="Group 522">
        <path id="Path_108" data-name="Path 108" d="M227.789,305.284l-.71,1.162-2.982,5.835-.118,1.049.732.842,1.264-.072,1.108-1.736.319-1.126,1.335-2.263.259-1.126.21-.047.96-1.75-.06-.359.787-1.319.135-.119.926.052,1.044-.851-.218-.685-.648-.5-3.4-1.944-1.339.986.257,1.153,1.07.718-.385.979Z" transform="translate(-223.979 -300.33)" fill="#1f1e1c"/>
      </g>
    </g>
    <g id="Group_525" data-name="Group 525" transform="translate(123.083 70.283)">
      <g id="Group_524" data-name="Group 524">
        <path id="Path_109" data-name="Path 109" d="M233.97,302.02l-.857-.239-2.231.437-.44.889-.526.382-1.221,2.41-.351,1.693-.15.312-.574.507-.765,1.256-.494.335-.437,1.594.23,1.275.784,1.2,1.068.717,1.093.265,1.514-.22.963-.724,1.858-3.229,2.735-5.553-.239-1.333-.81-1.208Zm-4.1,9.691-.523.526-.159.032-.539-.507-.022-.268.995-1.6.644-1.313,1.47-2.474.1-.708.653-.889.163-.083.574.37.131.351Z" transform="translate(-225.924 -301.781)" fill="#1f1e1c"/>
      </g>
    </g>
    <g id="Group_527" data-name="Group 527" transform="translate(60.225 91.027)">
      <g id="Group_526" data-name="Group 526">
        <path id="Path_110" data-name="Path 110" d="M206.478,308.533c-1.074,1.431,2.349,3.146,2.895,3.443,1.983,1.058,4.842,2.072,6.745,2.974.743.357,1.256.877,1.97,1.291,3.041,1.756,6.56,3.1,8.942,4.657,2.506,1.645,4.6,2.206,7.191,3.583a35.311,35.311,0,0,0,3.5,1.973c.293.073.545.115.791.153.357.207.657.363.787.433,1.986,1.061,4.845,2.072,6.749,2.974.743.357,1.253.877,1.97,1.291,3.038,1.76,6.56,3.1,8.942,4.661,2.5,1.645,4.6,2.206,7.192,3.583a34.138,34.138,0,0,0,3.5,1.97c2.872.733,3.242-.491,3.178-1.46-.14-2.008-4.38-4.558-6.165-5.021-.357-.089-1.189.188-1.5.08-.067-.029-.045-.877-.242-.969-1.259-.583-1.24.465-1.948-.526-.545-.762-.889.277-1.065.3-.794.073-2.388-1.281-2.4-1.32.045.112.7-.453.411-.727-.966-.934-3.047-.889-4.339-1.466-.494-.223-.918-1.055-1.763-1.466-.628-.3-1.419-.252-2.164-.539-3.385-1.326-6.532-3.762-9.318-4.68a12.709,12.709,0,0,0-5.591-3.752c-.36-.089-1.192.188-1.5.08-.07-.025-.045-.877-.245-.969-1.259-.583-1.237.469-1.948-.526-.545-.762-.886.281-1.065.3-.794.076-2.388-1.278-2.4-1.32.041.112.695-.449.408-.724-.966-.937-3.047-.892-4.339-1.469-.491-.223-.918-1.052-1.763-1.463-.628-.3-1.419-.252-2.161-.542-3.857-1.508-7.405-4.46-10.456-4.97A4.325,4.325,0,0,0,206.478,308.533Z" transform="translate(-206.271 -308.249)" fill="#1f1e1c"/>
      </g>
    </g>
    <g id="Group_529" data-name="Group 529" transform="translate(94.158 171.498)">
      <g id="Group_528" data-name="Group 528">
        <path id="Path_111" data-name="Path 111" d="M218.031,339.354c.287.057.564.1.838.128a6.436,6.436,0,0,0,3.146-.367,1.4,1.4,0,0,0,.752-.822,6.163,6.163,0,0,0-.249-4.354.587.587,0,0,0-.6-.357,8.572,8.572,0,0,1-1.75-.089,5,5,0,0,0-1.976,0,.631.631,0,0,0-.252.156c-.88.918-1.654,2.595-.335,5.378A.586.586,0,0,0,218.031,339.354Z" transform="translate(-216.903 -333.393)" fill="#1f1e1c"/>
      </g>
    </g>
    <g id="Group_531" data-name="Group 531" transform="translate(159.963 132.294)">
      <g id="Group_530" data-name="Group 530">
        <path id="Path_112" data-name="Path 112" d="M238.025,326.057a2.1,2.1,0,0,0,1.412.714,5.452,5.452,0,0,0,1.814-.2c.255-.061.488-.115.816-.162a2.067,2.067,0,0,0,1.384-1.527,3.171,3.171,0,0,0-5.132-2.968c-1.352.733-1,2.158-.4,3.946A.519.519,0,0,0,238.025,326.057Z" transform="translate(-237.384 -321.164)" fill="#1f1e1c"/>
      </g>
    </g>
    <g id="Group_533" data-name="Group 533" transform="translate(56.059 105.093)">
      <g id="Group_532" data-name="Group 532">
        <path id="Path_113" data-name="Path 113" d="M206.287,325.427a2.175,2.175,0,0,0-.612.666c-.105.175-.194.332-.274.472a.88.88,0,0,0-.386.7,1.6,1.6,0,0,0,.108.717,1.624,1.624,0,0,0,.153.427,1.336,1.336,0,0,0,.6.587l1.061.555.054.025a.664.664,0,0,0,.137.035,1.048,1.048,0,0,1,.287.07,1.01,1.01,0,0,1,.277.159,6.5,6.5,0,0,0,1.023.644l.5.261.542.284a1,1,0,0,0,.156.073,1.392,1.392,0,0,0,1.122-.045,1.654,1.654,0,0,0,.794-.688l.376-.717a1.135,1.135,0,0,0,.115-.883,1.039,1.039,0,0,0-.459-.574,2.125,2.125,0,0,0-.43-.424,4.959,4.959,0,0,0-.5-.3l-.057-.025a.55.55,0,0,0-.191-.035.388.388,0,0,1-.127-.029.772.772,0,0,1-.185-.108,4.342,4.342,0,0,0-.523-.363.34.34,0,0,1-.019-.14,2.087,2.087,0,0,0,.427-.316h0a.759.759,0,0,1,.137-.067.494.494,0,0,0,.169-.108q.316-.292.689-.612a3.22,3.22,0,0,1,.727-.469.519.519,0,0,0,.2-.153,4.86,4.86,0,0,1,.826-.813c.331-.258.685-.516,1.055-.775a.62.62,0,0,0,.1-.086,4.411,4.411,0,0,1,.9-.771,5.867,5.867,0,0,0,1.2-1.062.481.481,0,0,0,.073-.105.846.846,0,0,1,.172-.2,2.333,2.333,0,0,0,.446-.606,2.781,2.781,0,0,1,.36-.539,1.875,1.875,0,0,0,.421-.953l.1-.185a1.781,1.781,0,0,0,.529-.931c.048-.245.1-.507.153-.787a.509.509,0,0,0,.01-.14c-.022-.383-.051-.781-.086-1.192a3.2,3.2,0,0,0-.4-1.31.529.529,0,0,0-.118-.147,1.1,1.1,0,0,0-.383-.618,3.885,3.885,0,0,0-.59-.376l-.692-.363a3.139,3.139,0,0,0-.319-.147,2.491,2.491,0,0,0-.638-.159c-.233-.026-.5-.064-.806-.121a.521.521,0,0,0-.261.019c-.14.041-.274.089-.4.134a1.045,1.045,0,0,0-.488.351c-.325.233-.628.456-.905.66a2.956,2.956,0,0,0-.883,1.039l-.465.889a1.764,1.764,0,0,0-.236.889,1.443,1.443,0,0,0,.223.736,1.547,1.547,0,0,0,.529.494,2.274,2.274,0,0,0,.281.137,1.65,1.65,0,0,0,.363.1,1.966,1.966,0,0,0,.87-.137,1.2,1.2,0,0,0,.532-.488,1.849,1.849,0,0,0,.424-.389,3.071,3.071,0,0,0,.217-.348.534.534,0,0,1,.188-.214.593.593,0,0,1,.252-.1.423.423,0,0,1,.2.019.52.52,0,0,1,.092.166.692.692,0,0,0,.105.36.886.886,0,0,0-.061.124,2.469,2.469,0,0,0-.118.357c-.022.086-.048.172-.076.261a.426.426,0,0,0-.153.166c-.15.284-.3.6-.449.94a1.216,1.216,0,0,1-.488.545,3.777,3.777,0,0,0-1,.7c-.277.261-.587.526-.924.794-.156.105-.379.252-.631.4a1.99,1.99,0,0,0-.669.625c-.131.1-.268.2-.411.3a5.44,5.44,0,0,0-.586.453,20.417,20.417,0,0,0-1.661,1.272A21.293,21.293,0,0,0,206.287,325.427Z" transform="translate(-205.012 -312.654)" fill="#1f1e1c"/>
      </g>
    </g>
    <g id="Group_535" data-name="Group 535" transform="translate(66.537 110.321)">
      <g id="Group_534" data-name="Group 534">
        <path id="Path_114" data-name="Path 114" d="M215.546,330.213a1.069,1.069,0,0,0,.3-.255,2.474,2.474,0,0,0,.229-.367l.545-1.039a.575.575,0,0,0,.2-.207.633.633,0,0,0,.083-.338l.453-.864a3.426,3.426,0,0,1,.332-.494,1.678,1.678,0,0,0,.36-.822l.714-1.361a1.376,1.376,0,0,0,.437-.714,1.9,1.9,0,0,1,.163-.43.561.561,0,0,0,.061-.249c.07-.086.131-.169.194-.242a2.617,2.617,0,0,0,.22-.287.95.95,0,0,0,.121-.284,1.841,1.841,0,0,0,.411-.73,2.269,2.269,0,0,1,.147-.408,2.35,2.35,0,0,0,.558-1.218c.045-.319.1-.654.163-1l.064-.121a.557.557,0,0,0,.061-.312,5.7,5.7,0,0,0-.28-1.221,4.515,4.515,0,0,0-.622-1.186,1.49,1.49,0,0,0-.51-.759,3.955,3.955,0,0,0-.574-.363,2,2,0,0,0-.242-.112,1.306,1.306,0,0,0-.478-.1,2.521,2.521,0,0,0-.587-.344,1.23,1.23,0,0,0-1.148.105,3.845,3.845,0,0,0-1.03.3,8.117,8.117,0,0,0-1.036.542,5.1,5.1,0,0,0-.567.437,2.284,2.284,0,0,0-.494.625.577.577,0,0,0-.061.207.31.31,0,0,1-.07.2,2.482,2.482,0,0,0-.335.478.749.749,0,0,0-.354.784.448.448,0,0,1-.054.1l-.245.37a2.731,2.731,0,0,0-.265.5,1.45,1.45,0,0,0-.083.3.549.549,0,0,0-.182.2,7.383,7.383,0,0,1-.577.924,3.51,3.51,0,0,0-.548,1.189.767.767,0,0,0-.354.657l-.006.041a.943.943,0,0,0-.4.647,1.1,1.1,0,0,1-.124.36.638.638,0,0,1-.159.185.916.916,0,0,0-.3.7l-.459.873a4.88,4.88,0,0,0-.886,2.12,4.17,4.17,0,0,0,.437,2.6,2.784,2.784,0,0,0,1.514,1.546l.542.284a.71.71,0,0,0,.367.319.962.962,0,0,0,.316.048l.051.025a.583.583,0,0,0,.376.01.508.508,0,0,0,.156-.077,1.534,1.534,0,0,0,.22-.032,2.478,2.478,0,0,0,.985-.06,1.94,1.94,0,0,0,.8-.44,1.777,1.777,0,0,0,.685-.322,1.418,1.418,0,0,0,.147-.2,1.823,1.823,0,0,0,.481-.5C215.464,330.347,215.508,330.277,215.546,330.213Zm-.376-5.483a1.39,1.39,0,0,0-.427.453.953.953,0,0,0-.092.542q-.062.105-.115.182a1.3,1.3,0,0,1-.265.214.528.528,0,0,0-.178.2l-.191.367a.551.551,0,0,0-.064.274.439.439,0,0,1-.108.3,1.49,1.49,0,0,0-.3.727,5.517,5.517,0,0,0-.523.233,3.857,3.857,0,0,1-.618.245l-.073.029a.682.682,0,0,1-.2-.2,1.552,1.552,0,0,1-.191-.437,1.6,1.6,0,0,1-.054-.469.726.726,0,0,1,.061-.3,1.923,1.923,0,0,0,.14-.331A.962.962,0,0,0,212,326.3l.105-.2a1.3,1.3,0,0,0,.434-.459.871.871,0,0,0,.092-.542l.08-.153a.923.923,0,0,0,.363-.284,2.853,2.853,0,0,0,.2-.316.525.525,0,0,0,.045-.118,4.314,4.314,0,0,1,.386-.889c.019-.022.048-.035.061-.064s0-.048,0-.073c.032-.057.045-.121.076-.178a5.26,5.26,0,0,0,.644-1.454l.414-.791c.026-.048.051-.1.08-.14a.9.9,0,0,0,.089-.022.534.534,0,0,0,.309-.274l.182-.347a.533.533,0,0,0,.061-.281.266.266,0,0,1,.051-.194,1.4,1.4,0,0,0,.306-.791,1.684,1.684,0,0,1,.36-.4,1.144,1.144,0,0,1,.6-.236.537.537,0,0,0,.217-.077c.073-.045.1-.038.112-.032l.054.019a5.116,5.116,0,0,1,.564.261l.153.083a1.919,1.919,0,0,1-.051.574c-.035.076-.067.159-.1.249a.909.909,0,0,0-.038.411,1.327,1.327,0,0,0-.408.638.185.185,0,0,1-.105.121.557.557,0,0,0-.21.22l-.182.344a10.857,10.857,0,0,0-.561,1.265,2.367,2.367,0,0,1-.526.858.551.551,0,0,0-.1.131,1.139,1.139,0,0,0-.121.606,1.24,1.24,0,0,0-.367.66A1.633,1.633,0,0,1,215.17,324.73Z" transform="translate(-208.281 -314.288)" fill="#1f1e1c"/>
      </g>
    </g>
    <g id="Group_537" data-name="Group 537" transform="translate(74.291 115.107)">
      <g id="Group_536" data-name="Group 536">
        <path id="Path_115" data-name="Path 115" d="M211.057,316.854a.548.548,0,1,0-.312-.708A.543.543,0,0,0,211.057,316.854Z" transform="translate(-210.708 -315.796)" fill="#1f1e1c"/>
      </g>
    </g>
    <g id="Group_539" data-name="Group 539" transform="translate(90.136 122.682)">
      <g id="Group_538" data-name="Group 538">
        <path id="Path_116" data-name="Path 116" d="M217.652,335.239l.539.284a.735.735,0,0,0,.367.319.956.956,0,0,0,.316.048l.061.029a.528.528,0,0,0,.363.013.451.451,0,0,0,.166-.083,2.076,2.076,0,0,0,.217-.032,2.478,2.478,0,0,0,.985-.06,1.941,1.941,0,0,0,.794-.437.653.653,0,0,0,.293-.1.64.64,0,0,0,.4-.23,1.53,1.53,0,0,0,.147-.207,1.832,1.832,0,0,0,.478-.491c.054-.083.1-.156.137-.217a1.056,1.056,0,0,0,.3-.261,2.571,2.571,0,0,0,.226-.363l.545-1.039a.6.6,0,0,0,.214-.217.664.664,0,0,0,.073-.328l.453-.864a3.556,3.556,0,0,1,.328-.491,1.622,1.622,0,0,0,.363-.826l.714-1.361a1.356,1.356,0,0,0,.437-.714,1.9,1.9,0,0,1,.163-.43.548.548,0,0,0,.061-.245c.073-.093.134-.175.2-.249a2.669,2.669,0,0,0,.217-.284.951.951,0,0,0,.121-.284,1.794,1.794,0,0,0,.411-.733,2.257,2.257,0,0,1,.15-.4,2.364,2.364,0,0,0,.558-1.218c.041-.319.1-.653.159-1l.064-.121a.53.53,0,0,0,.061-.312,5.579,5.579,0,0,0-.277-1.221,4.624,4.624,0,0,0-.625-1.186,1.471,1.471,0,0,0-.51-.759,3.933,3.933,0,0,0-.571-.363,2.6,2.6,0,0,0-.245-.112,1.386,1.386,0,0,0-.475-.1,2.615,2.615,0,0,0-.59-.344,1.223,1.223,0,0,0-1.148.108,3.815,3.815,0,0,0-1.03.3,8.557,8.557,0,0,0-1.036.542,5.429,5.429,0,0,0-.567.437,2.237,2.237,0,0,0-.494.625.594.594,0,0,0-.061.21.334.334,0,0,1-.067.2,2.483,2.483,0,0,0-.338.481.747.747,0,0,0-.354.778.341.341,0,0,1-.051.1l-.249.37a2.873,2.873,0,0,0-.265.5,1.6,1.6,0,0,0-.083.3.525.525,0,0,0-.182.2,7.89,7.89,0,0,1-.574.928,3.41,3.41,0,0,0-.548,1.186.758.758,0,0,0-.354.66h0l-.01.035a.96.96,0,0,0-.4.654,1.183,1.183,0,0,1-.124.36.751.751,0,0,1-.159.185.9.9,0,0,0-.3.695l-.456.873a4.85,4.85,0,0,0-.889,2.12,4.17,4.17,0,0,0,.437,2.6A2.791,2.791,0,0,0,217.652,335.239Zm1.536-4.284a2.263,2.263,0,0,0,.14-.328.956.956,0,0,0,.029-.465l.105-.2a1.294,1.294,0,0,0,.434-.459.87.87,0,0,0,.092-.542l.08-.153a.87.87,0,0,0,.363-.284,2.859,2.859,0,0,0,.2-.316.568.568,0,0,0,.045-.115,4.188,4.188,0,0,1,.523-1.2,5.419,5.419,0,0,0,.641-1.46l.414-.787c.026-.048.051-.092.076-.137a.558.558,0,0,0,.4-.3l.182-.347a.567.567,0,0,0,.064-.28.26.26,0,0,1,.048-.195,1.392,1.392,0,0,0,.306-.791,1.762,1.762,0,0,1,.36-.4,1.181,1.181,0,0,1,.6-.233.549.549,0,0,0,.22-.076c.07-.045.1-.038.108-.032l.045.016a5.336,5.336,0,0,1,.577.268l.153.08a2,2,0,0,1-.051.571,2.424,2.424,0,0,0-.105.258.886.886,0,0,0-.032.4,1.3,1.3,0,0,0-.408.634.189.189,0,0,1-.108.124.536.536,0,0,0-.21.22l-.182.344a11.216,11.216,0,0,0-.558,1.266,2.374,2.374,0,0,1-.529.857.463.463,0,0,0-.092.131,1.115,1.115,0,0,0-.121.609,1.257,1.257,0,0,0-.37.657,1.43,1.43,0,0,1-.092.306,1.412,1.412,0,0,0-.424.453.907.907,0,0,0-.092.542q-.062.105-.115.182a1.44,1.44,0,0,1-.268.214.589.589,0,0,0-.178.2l-.191.367a.548.548,0,0,0-.061.274.473.473,0,0,1-.108.3,1.54,1.54,0,0,0-.306.727c-.195.076-.367.153-.523.233a3.678,3.678,0,0,1-.618.245l-.07.029a.652.652,0,0,1-.2-.2,1.635,1.635,0,0,1-.191-.437,1.717,1.717,0,0,1-.054-.472A.747.747,0,0,1,219.188,330.954Z" transform="translate(-215.643 -318.15)" fill="#1f1e1c"/>
      </g>
    </g>
    <g id="Group_541" data-name="Group 541" transform="translate(101.163 128.014)">
      <g id="Group_540" data-name="Group 540">
        <path id="Path_117" data-name="Path 117" d="M219.678,336.626a3.953,3.953,0,0,0,.58.373l.124.054a1.354,1.354,0,0,0,.88.025,1.269,1.269,0,0,0,.816-.634q.55-1.042,1.1-1.957a12.49,12.49,0,0,0,.966-1.983l.271-.5,1.3-2.474,1.2-2.3.74-1.409.274-.523.66-1.256.536-1.02.293-.564a1.572,1.572,0,0,0,.137-1.183,2.577,2.577,0,0,0-.532-.956.513.513,0,0,0-.159-.128,2.962,2.962,0,0,0-.309-.14,3.875,3.875,0,0,0-1.868-.2l-.258.07a1.384,1.384,0,0,1-.147.038,1.439,1.439,0,0,0-.217.07,1.215,1.215,0,0,0-.147.035,1.236,1.236,0,0,0-.274.076c-.067.029-.118.045-.166.061a2.993,2.993,0,0,0-.867.465,2.662,2.662,0,0,0-.622.768,1.015,1.015,0,0,0-.389.625,1.185,1.185,0,0,1-.08.265,1.989,1.989,0,0,0-.134.332.7.7,0,0,0,.354.845,1.952,1.952,0,0,0,.223.1l.137.051a.971.971,0,0,0,.634-.022,2.192,2.192,0,0,0,.4-.083c-.089.191-.166.379-.23.555a1.724,1.724,0,0,1-.36.586.468.468,0,0,0-.086.121l-.1.194-.182.348-.934,1.779a3.294,3.294,0,0,0-.268.673.409.409,0,0,1-.143.2.5.5,0,0,0-.134.169l-1.776,3.382-1.1,2.1-.274.523a1.747,1.747,0,0,0-.214.689l0,.035a.724.724,0,0,0-.236.638.841.841,0,0,0,.188.427A1.064,1.064,0,0,0,219.678,336.626Z" transform="translate(-219.085 -319.817)" fill="#1f1e1c"/>
      </g>
    </g>
    <g id="Group_543" data-name="Group 543" transform="translate(78.773 115.271)">
      <g id="Group_542" data-name="Group 542">
        <path id="Path_118" data-name="Path 118" d="M214.821,335.545c.752-1.224,1.46-3.022,2.1-4.2a15.034,15.034,0,0,1,.924-1.2c1.253-1.868,2.2-4.077,3.309-5.528a41.918,41.918,0,0,0,2.544-4.456,19.025,19.025,0,0,0,1.406-2.148c.5-1.83-.4-2.155-1.116-2.177-1.476-.048-3.3,2.55-3.615,3.682-.061.229.153.794.076.988-.019.041-.644-.032-.708.092-.414.784.357.842-.363,1.237-.555.306.217.6.233.717.067.523-.912,1.473-.94,1.479.083-.019-.341-.485-.539-.319-.676.567-.615,1.932-1.023,2.738-.156.306-.762.526-1.055,1.052-.214.389-.166.909-.37,1.377-1.058,2.416-3.185,4.533-3.519,6.493a2.646,2.646,0,0,0,.159,1.833C213.393,338,214.61,335.883,214.821,335.545Z" transform="translate(-212.098 -315.832)" fill="#1f1e1c"/>
      </g>
    </g>
  </g>
</svg>
