<svg id="Share" xmlns="http://www.w3.org/2000/svg" xmlns:xlink="http://www.w3.org/1999/xlink" width="46" height="46" viewBox="0 0 46 46">
  <defs>
    <clipPath id="clip-path">
      <rect id="Rectangle_968" data-name="Rectangle 968" width="28" height="28" transform="translate(3.304 3.126)" fill="#007594" stroke="#007594" stroke-width="2"/>
    </clipPath>
  </defs>
  <g id="Mask_Group_33" data-name="Mask Group 33" transform="translate(5.696 5.874)" clip-path="url(#clip-path)">
    <path id="Icon_ionic-md-share" data-name="Icon ionic-md-share" d="M17.374,15.187a2.347,2.347,0,0,0-1.679.643L9.538,12.271a2.884,2.884,0,0,0,.086-.6,2.882,2.882,0,0,0-.086-.6l6.071-3.516a2.577,2.577,0,1,0-.818-1.887,2.867,2.867,0,0,0,.086.6L8.806,9.784A2.592,2.592,0,0,0,7.04,9.1,2.549,2.549,0,0,0,4.5,11.671a2.592,2.592,0,0,0,4.349,1.887l6.114,3.559a2.151,2.151,0,0,0-.086.557,2.5,2.5,0,1,0,2.5-2.487Z" transform="translate(4.075 5.499)" fill="#b41f28"/>
  </g>
  <g id="Path_38287" data-name="Path 38287" fill="none">
    <path d="M23,0A23,23,0,1,1,0,23,23,23,0,0,1,23,0Z" stroke="none"/>
    <path d="M 23 1.5 C 20.09686088562012 1.5 17.28134918212891 2.068248748779297 14.63168907165527 3.188961029052734 C 12.07165908813477 4.271759033203125 9.772209167480469 5.822200775146484 7.797199249267578 7.797199249267578 C 5.822200775146484 9.772209167480469 4.271759033203125 12.07165908813477 3.188961029052734 14.63168907165527 C 2.068248748779297 17.28134918212891 1.5 20.09686088562012 1.5 23 C 1.5 25.90313911437988 2.068248748779297 28.71865081787109 3.188961029052734 31.36830902099609 C 4.271759033203125 33.92834091186523 5.822200775146484 36.22779083251953 7.797199249267578 38.20280075073242 C 9.772209167480469 40.17779922485352 12.07165908813477 41.72824096679688 14.63168907165527 42.81103897094727 C 17.28134918212891 43.9317512512207 20.09686088562012 44.5 23 44.5 C 25.90313911437988 44.5 28.71865081787109 43.9317512512207 31.36830902099609 42.81103897094727 C 33.92834091186523 41.72824096679688 36.22779083251953 40.17779922485352 38.20280075073242 38.20280075073242 C 40.17779922485352 36.22779083251953 41.72824096679688 33.92834091186523 42.81103897094727 31.36830902099609 C 43.9317512512207 28.71865081787109 44.5 25.90313911437988 44.5 23 C 44.5 20.09686088562012 43.9317512512207 17.28134918212891 42.81103897094727 14.63168907165527 C 41.72824096679688 12.07165908813477 40.17779922485352 9.772209167480469 38.20280075073242 7.797199249267578 C 36.22779083251953 5.822200775146484 33.92834091186523 4.271759033203125 31.36830902099609 3.188961029052734 C 28.71865081787109 2.068248748779297 25.90313911437988 1.5 23 1.5 M 23 0 C 35.70254898071289 0 46 10.29745101928711 46 23 C 46 35.70254898071289 35.70254898071289 46 23 46 C 10.29745101928711 46 0 35.70254898071289 0 23 C 0 10.29745101928711 10.29745101928711 0 23 0 Z" stroke="none" fill="#b41f28"/>
  </g>
</svg>
