<svg xmlns="http://www.w3.org/2000/svg" width="37" height="37" viewBox="0 0 37 37"><defs><mask id="mjjeb" width="2" height="2" x="-1" y="-1"><path fill="#fff" d="M6.07 5.8h24.32v17.08H6.07z"/><path d="M13.957 20.036h12.869a.71.71 0 0 0 .684-.516l2.85-9.966a.71.71 0 0 0-.685-.907H12.313l-.51-2.29a.712.712 0 0 0-.695-.557H6.787a.712.712 0 1 0 0 1.423h3.75l2.571 11.567a2.137 2.137 0 0 0-1.288 1.958c0 1.177.959 2.135 2.137 2.135h12.869a.712.712 0 1 0 0-1.423H13.957a.713.713 0 0 1 0-1.424z"/></mask><filter id="mjjea" width="56.32" height="52.08" x="-9.93" y="-10.2" filterUnits="userSpaceOnUse"><feOffset dy="3" in="SourceGraphic" result="FeOffset1031Out"/><feGaussianBlur in="FeOffset1031Out" result="FeGaussianBlur1032Out" stdDeviation="2.4 2.4"/></filter><mask id="mjjed" width="2" height="2" x="-1" y="-1"><path fill="#fff" d="M13.24 22.88h4.29v4.29h-4.29z"/><path d="M13.24 25.026c0 1.182.962 2.143 2.143 2.143a2.145 2.145 0 0 0 2.143-2.143 2.145 2.145 0 0 0-2.143-2.143 2.145 2.145 0 0 0-2.142 2.143z"/></mask><filter id="mjjec" width="36.29" height="39.29" x="-2.76" y="6.88" filterUnits="userSpaceOnUse"><feOffset dy="3" in="SourceGraphic" result="FeOffset1047Out"/><feGaussianBlur in="FeOffset1047Out" result="FeGaussianBlur1048Out" stdDeviation="2.4 2.4"/></filter><mask id="mjjef" width="2" height="2" x="-1" y="-1"><path fill="#fff" d="M23.25 22.88h4.28v4.29h-4.28z"/><path d="M23.245 25.026c0 1.182.961 2.143 2.143 2.143a2.145 2.145 0 0 0 2.143-2.143 2.145 2.145 0 0 0-2.143-2.143 2.145 2.145 0 0 0-2.143 2.143z"/></mask><filter id="mjjee" width="36.28" height="39.29" x="7.25" y="6.88" filterUnits="userSpaceOnUse"><feOffset dy="3" in="SourceGraphic" result="FeOffset1063Out"/><feGaussianBlur in="FeOffset1063Out" result="FeGaussianBlur1064Out" stdDeviation="2.4 2.4"/></filter></defs><g><g><g/><g><g><g filter="url(#mjjea)"><path fill="none" d="M13.957 20.036h12.869a.71.71 0 0 0 .684-.516l2.85-9.966a.71.71 0 0 0-.685-.907H12.313l-.51-2.29a.712.712 0 0 0-.695-.557H6.787a.712.712 0 1 0 0 1.423h3.75l2.571 11.567a2.137 2.137 0 0 0-1.288 1.958c0 1.177.959 2.135 2.137 2.135h12.869a.712.712 0 1 0 0-1.423H13.957a.713.713 0 0 1 0-1.424z" mask="url(&quot;#mjjeb&quot;)"/><path fill-opacity=".39" d="M13.957 20.036h12.869a.71.71 0 0 0 .684-.516l2.85-9.966a.71.71 0 0 0-.685-.907H12.313l-.51-2.29a.712.712 0 0 0-.695-.557H6.787a.712.712 0 1 0 0 1.423h3.75l2.571 11.567a2.137 2.137 0 0 0-1.288 1.958c0 1.177.959 2.135 2.137 2.135h12.869a.712.712 0 1 0 0-1.423H13.957a.713.713 0 0 1 0-1.424z"/></g><path fill="#89684f" d="M13.957 20.036h12.869a.71.71 0 0 0 .684-.516l2.85-9.966a.71.71 0 0 0-.685-.907H12.313l-.51-2.29a.712.712 0 0 0-.695-.557H6.787a.712.712 0 1 0 0 1.423h3.75l2.571 11.567a2.137 2.137 0 0 0-1.288 1.958c0 1.177.959 2.135 2.137 2.135h12.869a.712.712 0 1 0 0-1.423H13.957a.713.713 0 0 1 0-1.424z"/></g><g><g filter="url(#mjjec)"><path fill="none" d="M13.24 25.026c0 1.182.962 2.143 2.143 2.143a2.145 2.145 0 0 0 2.143-2.143 2.145 2.145 0 0 0-2.143-2.143 2.145 2.145 0 0 0-2.142 2.143z" mask="url(&quot;#mjjed&quot;)"/><path fill-opacity=".39" d="M13.24 25.026c0 1.182.962 2.143 2.143 2.143a2.145 2.145 0 0 0 2.143-2.143 2.145 2.145 0 0 0-2.143-2.143 2.145 2.145 0 0 0-2.142 2.143z"/></g><path fill="#89684f" d="M13.24 25.026c0 1.182.962 2.143 2.143 2.143a2.145 2.145 0 0 0 2.143-2.143 2.145 2.145 0 0 0-2.143-2.143 2.145 2.145 0 0 0-2.142 2.143z"/></g><g><g filter="url(#mjjee)"><path fill="none" d="M23.245 25.026c0 1.182.961 2.143 2.143 2.143a2.145 2.145 0 0 0 2.143-2.143 2.145 2.145 0 0 0-2.143-2.143 2.145 2.145 0 0 0-2.143 2.143z" mask="url(&quot;#mjjef&quot;)"/><path fill-opacity=".39" d="M23.245 25.026c0 1.182.961 2.143 2.143 2.143a2.145 2.145 0 0 0 2.143-2.143 2.145 2.145 0 0 0-2.143-2.143 2.145 2.145 0 0 0-2.143 2.143z"/></g><path fill="#89684f" d="M23.245 25.026c0 1.182.961 2.143 2.143 2.143a2.145 2.145 0 0 0 2.143-2.143 2.145 2.145 0 0 0-2.143-2.143 2.145 2.145 0 0 0-2.143 2.143z"/></g></g><g><path fill="#fff" d="M21.791 16.044l-.067-.085-1.039 1.316-1.038-1.317-.063.08a3.228 3.228 0 0 1-.706.659l1.807 2.286 1.805-2.285a3.207 3.207 0 0 1-.699-.654z"/></g><g><path fill="#fff" d="M20.686 12.272l-2.94 3.714-.677.855c.855 0 1.662-.391 2.192-1.06l1.425-1.802 1.429 1.807a2.794 2.794 0 0 0 2.187 1.06h.002l-.676-.856z"/></g><g><path fill="#fff" d="M18.744 13.976c-.547 0-2.076-.968-2.076-1.834 0-1.303 2.49-2.507 2.49-2.507s-3.722.615-3.722 2.633c0 1.324 1.932 3.132 2.212 3.132z"/></g><g><path fill="#fff" d="M22.212 9.635s2.49 1.204 2.49 2.507c0 .866-1.53 1.834-2.077 1.834l1.096 1.424c.281 0 2.212-1.808 2.212-3.132 0-2.018-3.721-2.633-3.721-2.633z"/></g></g></g></svg>