<svg xmlns="http://www.w3.org/2000/svg" width="85" height="85" viewBox="0 0 85 85">
  <g id="Group_8222" data-name="Group 8222" opacity="0.5">
    <g id="Group_381" data-name="Group 381" transform="translate(30.588 1.558)">
      <g id="Group_380" data-name="Group 380">
        <path id="Path_37" data-name="Path 37" d="M210.1,280.954c-.109-.074-.309.134-.321.149C209.292,281.615,210.339,281.119,210.1,280.954Z" transform="translate(-209.649 -280.939)" fill="#af7a56"/>
      </g>
    </g>
    <g id="Group_383" data-name="Group 383" transform="translate(34.716 1.232)">
      <g id="Group_382" data-name="Group 382">
        <path id="Path_38" data-name="Path 38" d="M213.131,281.036c.114-.166-.34-.473-.484-.257C212.555,280.912,213.021,281.2,213.131,281.036Z" transform="translate(-212.634 -280.705)" fill="#af7a56"/>
      </g>
    </g>
    <g id="Group_385" data-name="Group 385" transform="translate(20.274 5.938)">
      <g id="Group_384" data-name="Group 384">
        <path id="Path_39" data-name="Path 39" d="M202.484,284.61c.171-.086.15-.626-.1-.507A.258.258,0,0,0,202.484,284.61Z" transform="translate(-202.188 -284.087)" fill="#af7a56"/>
      </g>
    </g>
    <g id="Group_387" data-name="Group 387" transform="translate(19.429 6.962)">
      <g id="Group_386" data-name="Group 386">
        <path id="Path_40" data-name="Path 40" d="M201.992,285.074c.086-.128-.264-.365-.385-.189C201.456,285.106,201.93,285.164,201.992,285.074Z" transform="translate(-201.577 -284.822)" fill="#af7a56"/>
      </g>
    </g>
    <g id="Group_389" data-name="Group 389" transform="translate(7.252 18.538)">
      <g id="Group_388" data-name="Group 388">
        <path id="Path_41" data-name="Path 41" d="M192.942,293.777c.218.065-.006-.85-.166-.406C192.667,293.679,192.8,293.735,192.942,293.777Z" transform="translate(-192.736 -293.248)" fill="#af7a56"/>
      </g>
    </g>
    <g id="Group_391" data-name="Group 391" transform="translate(9.435 19.826)">
      <g id="Group_390" data-name="Group 390">
        <path id="Path_42" data-name="Path 42" d="M194.411,294.242c-.224.174-.056.5.164.4C194.778,294.565,194.721,294,194.411,294.242Z" transform="translate(-194.305 -294.182)" fill="#af7a56"/>
      </g>
    </g>
    <g id="Group_393" data-name="Group 393" transform="translate(39.075 18.15)">
      <g id="Group_392" data-name="Group 392">
        <path id="Path_43" data-name="Path 43" d="M219.241,293.3a8.229,8.229,0,0,0-1.025-.33,5.243,5.243,0,0,0-1.958.284,1.317,1.317,0,0,0,.131,2.076c.7.383,2.3-.134,3.036-.139.334,0,.66.218,1.009.246.173.014.416-.113.593-.113,1.649.013,3.139.978,4.056.63.477-.181.92-1.475.625-1.781-.263-.274-.5.161-.86.076.085.019-.154-.409-.064-.34-.552-.431-2.057-.381-2.965-.4-.341-.007-.612-.264-.84-.278A14.648,14.648,0,0,1,219.241,293.3Z" transform="translate(-215.81 -292.971)" fill="#af7a56"/>
      </g>
    </g>
    <g id="Group_395" data-name="Group 395" transform="translate(17.441 23.335)">
      <g id="Group_394" data-name="Group 394">
        <path id="Path_44" data-name="Path 44" d="M200.167,296.883c-.195.424.715.429.725.125,0-.006,0-.01,0-.015l-.249-.249A.407.407,0,0,0,200.167,296.883Z" transform="translate(-200.139 -296.724)" fill="#af7a56"/>
      </g>
    </g>
    <g id="Group_397" data-name="Group 397" transform="translate(18.754 24.231)">
      <g id="Group_396" data-name="Group 396">
        <path id="Path_45" data-name="Path 45" d="M201.666,297.806l-.459-.433C200.859,297.591,201.36,297.76,201.666,297.806Z" transform="translate(-201.089 -297.373)" fill="#af7a56"/>
      </g>
    </g>
    <g id="Group_399" data-name="Group 399" transform="translate(17.573 24.609)">
      <g id="Group_398" data-name="Group 398">
        <path id="Path_46" data-name="Path 46" d="M200.526,297.672c-.139.051-.451.21-.192.387C200.608,298.246,200.98,297.5,200.526,297.672Z" transform="translate(-200.234 -297.647)" fill="#af7a56"/>
      </g>
    </g>
    <g id="Group_401" data-name="Group 401" transform="translate(25.049 23.188)">
      <g id="Group_400" data-name="Group 400">
        <path id="Path_47" data-name="Path 47" d="M205.755,296.681c-.092.079-.189.31-.019.353C206.16,297.139,206.084,296.4,205.755,296.681Z" transform="translate(-205.642 -296.617)" fill="#af7a56"/>
      </g>
    </g>
    <g id="Group_403" data-name="Group 403" transform="translate(19.335 25.193)">
      <g id="Group_402" data-name="Group 402">
        <path id="Path_48" data-name="Path 48" d="M202.159,298.151c-.142-.184-.22-.008-.338.064C200.847,298.819,202.5,298.581,202.159,298.151Z" transform="translate(-201.509 -298.07)" fill="#af7a56"/>
      </g>
    </g>
    <g id="Group_405" data-name="Group 405" transform="translate(20.345 25.151)">
      <g id="Group_404" data-name="Group 404">
        <path id="Path_49" data-name="Path 49" d="M202.989,298.039a5.139,5.139,0,0,1-.746.23C202.163,298.806,203.842,298.075,202.989,298.039Z" transform="translate(-202.24 -298.039)" fill="#af7a56"/>
      </g>
    </g>
    <g id="Group_407" data-name="Group 407" transform="translate(51.839 20.878)">
      <g id="Group_406" data-name="Group 406">
        <path id="Path_50" data-name="Path 50" d="M225.532,295.375c-.2.142-.22-.48-.438,0a2.378,2.378,0,0,0,.2,1.535c.242.323,1.284.476,1.813.795.5.3.708.767,1.067,1.021.192.135.455.106.655.227.668.4,1.183,1.039,1.742,1.332.3.16.729.164,1.026.331.388.218.434.511.7.479,1.364-.161.028-1.365-.235-1.706-.079-.1-.011-.314-.081-.422-.153-.232-.665-.509-.852-.8a4.089,4.089,0,0,0-.9-1.053c-.082-.054-.333.053-.44,0-1.25-.68-2.826-2.42-4.076-2.115C225.27,295.1,225.846,295.151,225.532,295.375Z" transform="translate(-225.043 -294.953)" fill="#af7a56"/>
      </g>
    </g>
    <g id="Group_409" data-name="Group 409" transform="translate(28.777 25.764)">
      <g id="Group_408" data-name="Group 408">
        <path id="Path_51" data-name="Path 51" d="M209.086,299.23c.442-.2.218-.083.374-.334.335-.536-.1-.4-.25-.39C208.092,298.576,208.052,299.688,209.086,299.23Z" transform="translate(-208.34 -298.484)" fill="#af7a56"/>
      </g>
    </g>
    <g id="Group_411" data-name="Group 411" transform="translate(17.222 36.561)">
      <g id="Group_410" data-name="Group 410">
        <path id="Path_52" data-name="Path 52" d="M200.062,315.3a1.766,1.766,0,0,0,1.941-.369,22.394,22.394,0,0,0,.195-2.663c.01-.27-.166-.52-.16-.845.031-1.748,1.226-3.5.7-4.6a1.263,1.263,0,0,0-1.632-.3c-.078.075-.046.057-.053.185-.085,1.773-1.126,3.853-1.07,5.891C200,313.132,200.023,315.247,200.062,315.3Z" transform="translate(-199.983 -306.329)" fill="#af7a56"/>
      </g>
    </g>
    <g id="Group_413" data-name="Group 413" transform="translate(61.329 29.068)">
      <g id="Group_412" data-name="Group 412">
        <path id="Path_53" data-name="Path 53" d="M236.685,307.4c-.451-1.277-1.294-2.637-1.752-3.693-.4-.917-1.778-2.861-2.282-2.805-1.621.181-.16,2.734.2,3.374.142.25.366.512.5.781.337.69.406,1.439.637,1.98.088.2.321.316.365.543.026.138-.131.341-.086.455s.36.366.465.611c.3.7.334,1.667.639,1.979a2.145,2.145,0,0,0,1.717.288c.945-.449.171-1.35-.195-2.414C236.762,308.12,236.775,307.656,236.685,307.4Z" transform="translate(-231.902 -300.898)" fill="#af7a56"/>
      </g>
    </g>
    <g id="Group_415" data-name="Group 415" transform="translate(17.945 48.28)">
      <g id="Group_414" data-name="Group 414">
        <path id="Path_54" data-name="Path 54" d="M203.835,322.327c.134.366.882,1.614.828,1.593a8.836,8.836,0,0,0,.8-.413c.832-1.032-.895-2.765-1.344-3.859-.682-1.663-.935-5.656-3.074-4.667-1.074.5-.269,1.456.207,2.936a8.976,8.976,0,0,0,.824,2.031c.6.871,1.383,1.078,1.752,1.856C203.886,321.938,203.726,322.027,203.835,322.327Z" transform="translate(-200.508 -314.826)" fill="#af7a56"/>
      </g>
    </g>
    <g id="Group_417" data-name="Group 417" transform="translate(64.298 41.831)">
      <g id="Group_416" data-name="Group 416">
        <path id="Path_55" data-name="Path 55" d="M236.89,312.5c.036-.289.65-1.83.376-2.171-.342-.426-1.709.019-1.823.083-.776.433-.472,1.32-.58,2.473-.022.241-.314.793-.367,1.3-.035.335.085.74.042,1.13a18.38,18.38,0,0,0-.483,2.541c.141.747,1.1,1.689,1.8,1.148.163-.128.134-.995.109-.808.166-1.194.371-2.041.621-3.181A24.556,24.556,0,0,0,236.89,312.5Z" transform="translate(-234.042 -310.15)" fill="#af7a56"/>
      </g>
    </g>
    <g id="Group_419" data-name="Group 419" transform="translate(23.846 58.806)">
      <g id="Group_418" data-name="Group 418">
        <path id="Path_56" data-name="Path 56" d="M204.786,323.484c.04.3.715.668,1.053.939.473.378.785.762,1.069,1.021a23.627,23.627,0,0,0,2.894,2.339c.508.271,2.3,1.113,2.691.8a1.578,1.578,0,0,0,.028-1.23c-.12-.243-.794-.463-1.106-.754-.195-.182.024-.223-.381-.626-.2-.2-.621-.312-.989-.6q-1.242-.981-2.391-2c-.778-.686-1.074-1.06-1.745-.895C205.685,322.54,204.712,322.931,204.786,323.484Z" transform="translate(-204.782 -322.445)" fill="#af7a56"/>
      </g>
    </g>
    <g id="Group_421" data-name="Group 421" transform="translate(57.942 53.338)">
      <g id="Group_420" data-name="Group 420">
        <path id="Path_57" data-name="Path 57" d="M231.209,325.624a13.634,13.634,0,0,0,3.871-4.5c.064-.12,0-.37.072-.538.125-.287.437-.438.5-.619.334-1.051-.264-1.823-1.3-1.329a7.735,7.735,0,0,0-1.4,1.4c-.379.522-.64,1.379-1.116,1.962-.263.321-.744.537-.9.785-.2.314-.071.743-.248,1.009-.146.223-.753.36-.932.615a4.594,4.594,0,0,0-.3,1.194C229.688,326.552,230.649,326.044,231.209,325.624Z" transform="translate(-229.454 -318.487)" fill="#af7a56"/>
      </g>
    </g>
    <g id="Group_423" data-name="Group 423" transform="translate(34.558 65)">
      <g id="Group_422" data-name="Group 422">
        <path id="Path_58" data-name="Path 58" d="M222.4,329.542c.295-.54-.552-1.526-.93-1.663-.4-.145-1.3,0-2.207-.106-.449-.051-.906-.337-1.3-.366-1.059-.081-1.55-.071-2.477-.142-.885-.07-1.7-.537-2.324-.26a.881.881,0,0,0-.616.9c.129.892,1.62,1.109,2.449,1.373a12.815,12.815,0,0,0,2.994.569C218.955,329.879,222.124,330.039,222.4,329.542Z" transform="translate(-212.54 -326.919)" fill="#af7a56"/>
      </g>
    </g>
    <g id="Group_425" data-name="Group 425" transform="translate(48.819 62.636)">
      <g id="Group_424" data-name="Group 424">
        <path id="Path_59" data-name="Path 59" d="M226.563,325.941a16.452,16.452,0,0,0-1.627.658c-.359.262-.529.771-.852,1.037-.518.427-1.322.459-1.224.934.148.715,1.218.033,1.993-.117,1.222-.237,2.759-.4,3.636-1.127.3-.246.968-1.358.808-1.73-.282-.655-1.572-.316-1.954-.153C227.067,325.561,226.862,325.784,226.563,325.941Z" transform="translate(-222.852 -325.209)" fill="#af7a56"/>
      </g>
    </g>
    <g id="Group_427" data-name="Group 427" transform="translate(40.604 83.081)">
      <g id="Group_426" data-name="Group 426">
        <path id="Path_60" data-name="Path 60" d="M227.4,340.468a6.471,6.471,0,0,0-1.927.452,4.648,4.648,0,0,1-1.954-.154c-.109.008-.615.374-.9.345-.472-.047,0,.125-.576.2-.345.042-.132-.3-.518-.427-.369-.124-.995.335-1.336.341a1.1,1.1,0,0,1-.672-.31c-.071-.121.189-.081.238-.132.308-.321-.295-.8-.583-.764-.078.01-.152.533-.326.587-.459.14-.056.287-.274.4-.694.363-.715-.065-.707-.042-.04-.117,1.376-1.179.109-.808a11.479,11.479,0,0,1-1.053.9c-.1.665.629.55,1.073.584.33.026.558.3.754.294.438-.017.761-.353,1.084-.292.024,0,.024.252.049.253.519.024,1.1-.12,1.636-.136a13.982,13.982,0,0,0,3.341-.372c.2-.06.434-.285.644-.3.307-.015.59.227.824.193.433-.058.124-.168.629-.381C227.089,340.846,228.6,340.436,227.4,340.468Z" transform="translate(-216.92 -340.014)" fill="#af7a56"/>
      </g>
    </g>
    <g id="Group_429" data-name="Group 429" transform="translate(53.761 81.229)">
      <g id="Group_428" data-name="Group 428">
        <path id="Path_61" data-name="Path 61" d="M226.981,338.963c.111-.326-.269-.342-.47-.174C226.139,339.1,226.914,339.159,226.981,338.963Z" transform="translate(-226.41 -338.683)" fill="#af7a56"/>
      </g>
    </g>
    <g id="Group_431" data-name="Group 431" transform="translate(51.18 81.761)">
      <g id="Group_430" data-name="Group 430">
        <path id="Path_62" data-name="Path 62" d="M225.836,339.082c.028.04-1.028-.04-.877-.008l.017.083c-.682.326-.433.9-.093.893C224.906,340.049,225.807,339.037,225.836,339.082Z" transform="translate(-224.545 -339.065)" fill="#af7a56"/>
      </g>
    </g>
    <g id="Group_433" data-name="Group 433">
      <g id="Group_432" data-name="Group 432">
        <path id="Path_63" data-name="Path 63" d="M272.507,321.339a22.489,22.489,0,0,0-.346-4.1c-.664-2.354-.818-4.866-1.684-7.5-.137-.413-.518-.777-.66-1.176-.1-.283-.019-.647-.176-.922-.115-.2-.351-.254-.431-.439a30.817,30.817,0,0,0-1.8-4.434c-.382-.624-.9-.947-1.172-1.6a15.226,15.226,0,0,0-3.817-5.44,9.159,9.159,0,0,1-1.342-1.57c-.21-.371-.581-.576-.678-.827-.08-.2.134-.395-.014-.518s-.447.15-.586.11c-.347-.1-.828-.855-1.261-1.15a21.425,21.425,0,0,1-1.934-1.022c-.162-.15-.14-.373-.279-.556a9.873,9.873,0,0,0-2.214-1.576,40.1,40.1,0,0,0-7.3-4.086c-1.308-.553-2.746-.785-4.091-1.4a22.9,22.9,0,0,0-4.312-1.179,11.174,11.174,0,0,0-1.77-.62c-.455-.043-.953.12-1.46.1-1.016-.037-2.067-.275-3.027-.382-.823-.091-1.707-.357-2.327-.341a5.29,5.29,0,0,0-1.8.6c-1.348.461-2.808-.116-3.889.13-.087.021-.22.356-.355.414-.091.039-.2-.156-.452-.087a1.469,1.469,0,0,1-1.322-.1c-.376-.2-.83-.174-.918-.259-.176-.164.158-.224-.064-.336-.324-.16-.272.25-.437,0-.207-.323.167-1.11-.239-1.256-.144-.052-.518.214-.554.279-.1.177.225.346.2.57-.065.464-1.049.768-1.453,1.057-.35.25-.348.584-.661.646-.293.057-.427-.215-.635-.141-.277.1-.774,1.038-1.182,1.092-.194.026-.524-.369-.767-.376-.021,0-.308.225-.389.248a12.571,12.571,0,0,0-1.851.784c-.1.047-.462.043-.5.1-.2.269.23,1.06-.281,1.269-.207.084-.231-.265-.453-.088-.064.052-.133.569-.322.583-.35.026-.43-.523-.449-.523-.531.033.018.345-.406.6a1.838,1.838,0,0,1-.856.074c.055.019-.019-.224-.047-.251-.4-.406-.393.388-.676.562-.088.055-.459-.1-.619-.057-.115.036-.234.338-.44.432-.231.1-.321.007-.419.079s-.089.388-.257.483c-.23.13-.4-.04-.5.1s.017.548-.14.635c.046-.026-.8.012-.871-.01-.585-.186-.469-.683-.984-.595-.241.043.213.266,0,.435-.238.185-.257-.236-.418.08-.071.132.217.48.043.686s-.622.035-1.008.19a7.906,7.906,0,0,0-1.807,1.472c-.011.172.33.258.315.287-.062.117-.249-.034-.4.163-.112.145-.032.3-.1.367-.266.246-.691.05-.524.447a3.293,3.293,0,0,1,.818.192c.026,0,.689-.581.86-.509.51.21-.189.52-.292.748-.246.543.419-.159-.073.536-.3.425-.154-.043-.115-.152.274-.774-.181-.309-.668-.308-.4,0-.954-.787-1.266-.715-.271.062-.012.138-.171.467a3.958,3.958,0,0,0-.711.83c-.106.237,0,.443-.075.536-.173.2-.879-.178-.592.545.025.058,1.134.162,1.152.565-.008-.2-.295.461-.608.462-.036,0-.654-.766-1.167-.647-.18.04-.225.312-.507.529s-.647.237-.791.411c-.062.075.1.251.133.3-.1.079-.63.9-.882.8-.181-.073.086-.552-.246-.388-.684.338.264.65.278.555-.068.446-.828.066-.56.714-.046-.11,1.211-.195.668.308-.048.044-.621-.23-.651-.224-.1.025-.123.3-.188.382-.241.3-.4.137-.423.514-.017.275.4.432.394.707,0,.483-.843.569-1,.711a5.063,5.063,0,0,0-.6,1.415c-.424,1.2-1.41,2.525-2.032,3.945-.25.573-.23,1.24-.453,1.735-.151.335-.459.569-.679,1a21.654,21.654,0,0,0-.594,2.372c-.47,1.369-1.273,3.2-1.584,4.466-.209.853-.019,1.789-.177,2.726-.082.476-.38.886-.434,1.383a23.432,23.432,0,0,0-.159,2.809,58.727,58.727,0,0,0,.373,7.917,55.388,55.388,0,0,0,2.5,8.556c.147.433.178.933.339,1.325.144.355.478.657.628,1.009.163.388.148.827.305,1.158.424.889,1.254,1.553,1.6,2.474.154.407.106.821.223,1.175a15.783,15.783,0,0,0,2.16,3.584,25.79,25.79,0,0,0,3.068,3.325c1.067,1.056,2.027,2.518,3.2,3.127a16.939,16.939,0,0,1,2.326,2.163c.212.192.383.135.5.34.149.262.109,1.472.86,1.313.111-.023,0-.567.055-.618.362-.319.709.555,1.1.748.158.077.5-.113.687-.044.142.052.206.338.348.454.416.342,1.214.689,1.582,1,.223.19.4.606.662.743.153.08.431-.075.6-.028.2.054.424.371.7.473.243.094.528.041.719.126.455.2.825.639,1.3.882.4.208.977.228,1.47.417.047.018.072.207.131.236.554.26,1.344.221,1.907.42.4.142.722.431,1.049.5.889.174,1.854.019,2.729.177.451.08.817.409,1.219.464.481.065.964-.166,1.459-.1.238.03.411.221.651.224s.48-.116.755-.144c.29-.028.582.128.8.109.131-.011.339-.251.554-.279.2-.025.451.179.636.139a4.967,4.967,0,0,0,1.1-.64,1.147,1.147,0,0,0-.064-.336c-.137-.34.329-.395.241-.567-.112-.214-.357.073-.621-.055-.418-.2-.177-.577-.6-.407-.206.081-.383.9-.319.146.059-.718-1.717.07-1.727.068a1.8,1.8,0,0,1,0-.435,2.547,2.547,0,0,0-2.006-.489c-.144.047-.427.436-.624.378-.073-.019.068-.316.006-.435-.1-.175-.617-.225-.617-.49,0-.178.426-.206.473-.264.021-.028.035-.061.054-.09l-1.114.211-.163-.854-.73.139c.195.518.324.9.174.844a11.227,11.227,0,0,0-3.161-.616c-.944-.052-2.621-1.082-3.871-1.609a7.1,7.1,0,0,1-1.4-.516c-.17-.134-.2-.36-.347-.456a9.562,9.562,0,0,1-1.535-.751c-.116-.11-.142-.348-.247-.388-.33-.127-.246.2-.42.08-.062-.044-.014-.272-.064-.336-.182-.233-1.047-.722-1.313-.966-.727-.661-2.077-.933-2.765-1.732a8.865,8.865,0,0,0-.83-.711c-.336-.338-.5-.843-.827-1.146-.112-.1-.353-.156-.484-.257-.434-.335-.816-.843-1.161-1.081-.478-.327-.914-.4-1.283-.8-.3-.329-.648-1.027-1.174-1.6-.364-.4-1.069-.715-1.261-1.15a8.647,8.647,0,0,0-1.271-2.1,15.421,15.421,0,0,1-1.62-2.124,14.211,14.211,0,0,1-1.17-2.035c-.106-.293-.061-.6-.176-.922a26.494,26.494,0,0,1-1.13-2.737,10.078,10.078,0,0,0-.155-1.273c-.105-.266-.488-.516-.595-.843s0-.69-.106-1.021c-.155-.482-.452-.66-.476-1.125a13.03,13.03,0,0,0-.4-2.094c-.158-.726.1-1.61-.162-2.227s-.087-.9-.152-1.709c-.062-.762-.355-1.549-.33-2.195.03-.73.142-1.8.158-2.373.011-.417-.159-.859-.155-1.274.017-1.345.257-2.747.342-4.145.032-.5.346-.791.449-1.3.147-.723.119-1.418.289-2.14.156-.654.5-1.271.673-1.951.158-.614.053-1.28.253-1.871.145-.436.541-.81.716-1.264.195-.509.195-1.114.4-1.552.062-.134.293-.2.37-.331.6-.984.77-2.234,1.37-2.864.167-.177.5-.226.624-.378.23-.29.275-1.369.636-1.683.225-.2.448-.014.556-.279.206-.5-.423-.262-.294-.639.137-.406.6.217.423-.515-.064-.261-.25.127-.437,0-.465-.33.093-.652.058-.62.171-.153.217-.174.1-.367.156.269-.47-.037-.2-.135.441-.16,1.7.726,2.377.157.148-.123-.084-.387.026-.785,0-.023.234-.061.3-.232.093-.231-.062-.337,0-.435.054-.081.341-.014.419-.08.235-.193.21-.959.481-1.132.3-.19.709.019.924-.175.2-.179-.145-.106-.012-.519s.756-.432,1.264-.674c.676-.32.613-1.271,1.052-1.328.249-.032.185.442.445.523.048.015.113-.019.187-.069l-.057-.3.856-.161-.1-.544.467-.088.1.544.156-.03-.163-.853,1.4-.266-.006-.029a.218.218,0,0,1-.156-.1c-.194-.266.2-.119.188-.384-.007-.228-.312-.224-.246-.387s.63-.458.607-.462c.33.054-.05.409.247.387.116-.008.163-.284.2-.3.187-.065.148.153.283.122.348-.087.4-.527,1.062-.81.2-.083.877-.371,1.025-.106v.015l.676-.128,0-.015c-.012-.081.64-.451.691-.479.229-.119.733.04.676-.562-.017-.171-.384.079-.535-.072-.113-.11.127-.226.119-.283-.083-.62-.375-.86-.04-1.121.307-.24.65.237,1.408.081.4-.083.337-.276.5-.276-.006.054.624.389.567.42a1.215,1.215,0,0,0-.007-.634.934.934,0,0,1,1.206-.375c-.073-.05.293,1.176.647.658.223-.326-.444-1.1-.458-1.041.09-.378.531-.173.89-.342.194-.092-.057-.273.2-.3a1.53,1.53,0,0,1,1.034.411c.167.544.619-.352.823-.243.29.155-.117.41-.207.734h0l.7-.133a.364.364,0,0,1,.1-.195c.189-.17.217-.029.174.142l.2-.039-.044-.233,1.326-.251c-.064-.077-.115-.142-.113-.173.032-.482.857-.6,1.636-1,.069-.036.123-.262.2-.3.528-.243,1.273-.287,1.463-.537.142-.186-.261-.425.072-.534.271-.088.928.4,1.2.38.536-.033,1.015-.429,1.546-.553a13.49,13.49,0,0,1,2.613.026c1-.028,1.818-.033,2.512-.043,1.56-.022,2.818.421,4.185.509.181.011.369-.127.672-.127a13.941,13.941,0,0,1,2.558.643c.274.072.447-.115.6-.028a11.654,11.654,0,0,0,2.921,1.183,13.054,13.054,0,0,1,1.607.217c.188.087.174.318.347.456a11.883,11.883,0,0,0,2.436.928c.666.291,1.179.973,1.814,1.3.126.065.3-.046.434,0a12.122,12.122,0,0,1,1.8,1.223c.375.224.794.246,1.052.494.626.613,1.6.693,2.263,1.4.093.1.057.242.148.318.507.429,1.127.494,1.567.919.4.391.759,1.106,1.258,1.585.216.21.442.28.614.491.188.23.187.512.394.707.485.451,1.047.529,1.4.95.082.1.011.313.08.42.145.225.5.309.7.475a10.4,10.4,0,0,1,1.991,2.228c.2.344.2.856.406,1.224.42.768,1.448,1.213,1.759,1.924.2.465.061.871.239,1.258.263.578,1.011.9,1.287,1.752a19.3,19.3,0,0,0,1.095,3.005c.12.217.362.305.445.523.169.446.072,1.179.235,1.692.261.826.488,1.888.709,2.818a19.287,19.287,0,0,1,.223,3c.142,1.175.491,2.1.59,3.1.066.681.211,1.712.225,2.562.008.494-.265.972-.2,1.253.048.2.283.145.246.386-.075.512-.781.733-.883,1.3-.033.188.176.565.176.922,0,.22-.159.471-.141.632.062.547.467.843.408,1.227-.03.2-.325.33-.324.581,0,.048.2.381.178.487-.1.562-.971,1.358-.857,1.9.054.246.44.333.365.538-.014.041-.463-.116-.535-.072.022-.014-.326.707-.178.9.018.023.22-.057.253-.047.449.116-.322.272-.371.331-.156.185.072.569-.079.969-.214.572-.567.538-.546,1.231.021.787-.086.623-.413,1.034-.684.86-.409,2.089-.666,2.9-.028.091-.307.11-.386.247-.206.352-.068.9-.2,1.253-.188.514-.528.384-.926.609a2.955,2.955,0,0,0-.564,1.149c-.1.106-.365-.043-.5.1-.122.121-.057.526-.192.819a8.427,8.427,0,0,1-.868,1.379c-.14.171-.435.264-.608.464-.5.584-.843,1.821-1.615,2.477-.14.117-.358.141-.471.262-.071.075-1.215,1.473-1.2,1.444-.152.407.326.07.064.335-.195.195-.51.16-.723.312a4.828,4.828,0,0,0-1.356,1.557c.09-.351.449.084.452.088.094.335-.749.03-.94.092-.545.179-.451,1.171-.987,1.663-.217.2-.682.15-.976.358-.033.023.014.228-.036.268a8.349,8.349,0,0,1-2.648,1.63,30.013,30.013,0,0,0-4.582,2.431c-.624.318-1.268.543-1.282,1.024-.012.453.359.213.164.4.055-.054-.78-.424-.841.16-.032.316.44.137.6.407.054.092-.069.094-.156.1a1.483,1.483,0,0,1,.116.6c-.075.09-.375-.006-.672.128-.1.044-.259.268-.372.33-.213.116-.512.039-.671.127-.337.185-.456.464-.677.562a7.79,7.79,0,0,0-.975.359c-.249.008-.3-.185-.459-.171-.093.023-.879.181-1.337.338-.556.192-1.882,1.02-.679,1,.351-.007,1.186-.634,1.432-.7.142-.043.416.09.535.07.444-.069.57-.447.691-.478.149-.037.494.155.635.139,1-.1,2.021-1.155,3.3-1.407a15.445,15.445,0,0,0,3.748-1.318c.719-.335,1.17-.959,1.687-1.187.144-.064.209.054.353.021a7.89,7.89,0,0,0,2.122-1.184,12.14,12.14,0,0,0,1.912-1.839c.541-.581,1.184-1.081,1.775-1.639.628-.592,1.51-.838,2.006-1.335.191-.191.214-.554.378-.766.3-.4.686-.8,1-1.144,1.374-1.512,2.977-3.671,4.275-5.413a8.756,8.756,0,0,0,1.175-2.044c.053-.206-.091-.359-.011-.519.126-.251.6-.5.8-.846a18.8,18.8,0,0,0,1.2-2.831c.131-.374.456-.7.581-1.066.218-.641.357-1.541.693-2.3a6.434,6.434,0,0,0,.736-1.614,9.191,9.191,0,0,1,.375-2.155c.151-.417.557-.715.581-1.066.008-.141-.238-.306-.264-.471-.077-.465.228-1.019.247-1.436a15.345,15.345,0,0,1,.517-3.223,4.255,4.255,0,0,0,.065-1.488C272.215,323.34,272.61,322.422,272.507,321.339Zm-68.7-31.6c-.212.311-.368-.148-.366-.1C203.434,289.4,203.923,289.562,203.8,289.735Zm5.561.422c-.465-.435.521-.493.675-.563.01,0,.086-.453.34-.5-.007,0,.218-.22.319-.148.123.09.437,1.074.527.943A10.353,10.353,0,0,1,209.364,290.157Zm9.273-6.1c-.109-.076.312-.366.441-.432C219.527,283.394,218.754,284.138,218.637,284.058Zm2.809.6c-.022-.076.1-.092.152-.116C222.3,284.238,221.568,285.041,221.446,284.655Zm34.642,7.5c-.136.01-1.094-.512-.946-.863a5.923,5.923,0,0,1,1.307.012c.52.4-.384.429-.272.4C255.458,291.9,257.88,292.023,256.088,292.153Zm1.011,1.2c-.137-.043.055-.617.055-.617C257.573,292.217,257.439,293.459,257.1,293.35Zm.5-.1c.024-.188.379-.144.42-.079C258.166,293.4,257.58,293.451,257.6,293.255Zm-7.837,64.429c-.135.1-.39-.07-.232-.3C249.726,357.1,249.919,357.575,249.766,357.684Zm20.088-37.493a2.279,2.279,0,0,1,.225-.65C270.828,319.224,270.124,320.807,269.853,320.191Zm0-1.824c.032-.235.646.16.4.272A.306.306,0,0,1,269.855,318.368Zm.625-.378c-.151.349-.885-.284-.715-.559C270.006,317.039,270.585,317.74,270.48,317.99Z" transform="translate(-187.524 -279.819)" fill="#af7a56"/>
      </g>
    </g>
    <g id="Group_435" data-name="Group 435" transform="translate(19.506 23.547)">
      <g id="Group_434" data-name="Group 434">
        <path id="Path_64" data-name="Path 64" d="M206.071,296.9c-.86.018.207.408.344.4a5.31,5.31,0,0,1,.369,1.037c-.035.142-.436.056-.576.2-.154.156.107.313-.173.47-.306.175-.629-.072-.776.061-.217.195-.088.536-.11.807-.056.687-1.113,1.127-1.131,1.878,0,.135.227.242.164.406-.1.262-.473.463-.579.636-.352.572-.537,1.453-.93,2.013a5.75,5.75,0,0,0-.568,1.158c-.21.449-.5.391-.462.788.082.913,1.112.95,1.542.757a4.765,4.765,0,0,0,.906-1.222c.417-1.141,1.16-1.647,1.7-2.6a6.08,6.08,0,0,1,1.638-1.975,2.845,2.845,0,0,0,.668-1.088c.011-.106-.168-.04-.234-.306-.135-.557.607-.243.025-.793-.37-.351-.69.256-.845.16-.185-.114-.362-1.194-.173-1.366a4.61,4.61,0,0,0,.455.088c.952.04.484-.089.41-.6-.045-.309.344-.32.072-.54-.168-.136-.893.181-1.115.125C206.382,297.313,206.194,296.893,206.071,296.9Z" transform="translate(-201.639 -296.896)" fill="#af7a56"/>
      </g>
    </g>
    <g id="Group_437" data-name="Group 437" transform="translate(49.133 82.341)">
      <g id="Group_436" data-name="Group 436">
        <path id="Path_65" data-name="Path 65" d="M223.117,339.982c.109.022,1.482-.316,1.22-.494-.067-.044-1.457.178-1.252.326C223.106,339.829,223.095,339.977,223.117,339.982Z" transform="translate(-223.064 -339.482)" fill="#af7a56"/>
      </g>
    </g>
    <g id="Group_439" data-name="Group 439" transform="translate(25.861 17.342)">
      <g id="Group_438" data-name="Group 438">
        <path id="Path_66" data-name="Path 66" d="M212.029,294.823c.11.756-1.1.11-1.2.141a6.3,6.3,0,0,0-.41.6c-.316.268-.01.442-.225.655-.124.122-.538-.045-.843.16-.207.138-.16.658-.295.757-.1.071-.3-.064-.423.079.028-.029.147.082.117.153a2.6,2.6,0,0,1-.9.783c-.234.145-.447-.008-.593.113-.326.276-.049.786-.174.909-.077.072-.616-.227-.793-.025-.11.127.021.444.1.508.161.138.658-.213.66-.213a7.464,7.464,0,0,0,1.1.753c.154.21-.313.277.064.338.291.046.391-.313.711-.4.193-.052.349.175.557.157a3.159,3.159,0,0,0,1.117-.562c.227-.246-.032-.4.259-.487s.643.241.824.195c.026-.008.2-.341.274-.4.708-.562,1.451-.338,2.286-.871.019-.013.071-.333.1-.369.669-.724,2.133-1.123,2.428-1.513a2.633,2.633,0,0,0-.064-2.175c-.06-.1-.4-.292-.434-.444-.024-.11.47-.914.029-1.23-.384-.274-.441.806-.38.772-.157.085-.86-.626-1.141-.483-.09.046-.046.078-.053.185-.033.476-.454.43-.511.534-.1.185.125.417.1.507-.018.05-.3.024-.338.064-.2.2.289.121-.1.37C213.61,294.552,211.948,294.273,212.029,294.823Zm4.176-1.055c-.085.122-.351-.045-.317-.289C215.924,293.2,216.312,293.608,216.2,293.768Z" transform="translate(-206.246 -292.392)" fill="#af7a56"/>
      </g>
    </g>
    <g id="Group_441" data-name="Group 441" transform="translate(62.114 59.547)">
      <g id="Group_440" data-name="Group 440">
        <path id="Path_67" data-name="Path 67" d="M241.069,330.207l.795-.1.434-.564-.056-.587-.579-.324-.1-.3-1.163-.893-1.009-1.052-.5-.053-.615-.686-1.372-1.091-1.84-1.563-.707.228-.39.474.1.554,1.119.884.1.378.7.21.026.2.939.516v.031l-.124.16-.5-.216-.328.032-1.5-.828-.264.033-.438-.242-.942.028-.28.339-.09.217.035.168.4.724.43-.031.693.534.714-.025.373.307,1.564.619.281-.049.029.182.516.171.022.16.463.493.566,1.085.53.527-.291.351.625.519.18-.218.483.141.306-.38-.1-.612-.39-1.084-.445-.582-.029-.4,1.333,1.048Zm-1.983-1.839v0l.024-.129.164.221Z" transform="translate(-232.487 -322.994)" fill="#af7a56"/>
      </g>
    </g>
    <g id="Group_443" data-name="Group 443" transform="translate(59.189 64.138)">
      <g id="Group_442" data-name="Group 442">
        <path id="Path_68" data-name="Path 68" d="M232.84,336.125l.4.065.441.391,1.1-.1.942-.44,1.724-1.718-.569-.927-.722-.633-.84-1.344-1.254-1.585-2.411-3.362-.872-.07-.26.406-.153.781,2.29,2.912-1.346,1.18-.278,1.016.124.66.355.639-.015.271,1.122,1.209-.168.128Zm.648-4.041.27.195.971,1.23.615.589-.251.2-.23-.032-.534.306-1.43-1.943Z" transform="translate(-230.359 -326.4)" fill="#af7a56"/>
      </g>
    </g>
    <g id="Group_445" data-name="Group 445" transform="translate(49.805 67.552)">
      <g id="Group_444" data-name="Group 444">
        <path id="Path_69" data-name="Path 69" d="M230.289,338.5l.317.413.753-.363-.142-.878-.068-.015-.168-.365.238-.1-.509-1.308.09-.353-.017-.888-.346-.355.042-.181-.17-1.037-.249-.758.132-.831-.807-2.439-.4-.157-.2-.029-.488.09-.365.558.444,1.368-.017.794-.911.413-.41.4-.488.284-.013-.4-.65-.938-.487-.561-.409-.146-1.423.2.692.423-.053.039.122.858.49.015.064.135.718.7.58.231.067.147-.48-.25-.082.719.173.4.34.125.189.441.544.587.289-.384.271.9.654,1.035.562.576.285-.134-.077,1.333.522.111.52-.223-.146-.339.338.118Zm-.607-1.409-.157-.057.038-.07-.682-1.479-.626-.719-.594-.483-.135-.32.128-.308,1.172-.537.466.541-.007.1-.381.4.545,1.739.145.051-.2.085.177.344.175.685Z" transform="translate(-223.57 -328.854)" fill="#af7a56"/>
      </g>
    </g>
    <g id="Group_447" data-name="Group 447" transform="translate(46.405 69.864)">
      <g id="Group_446" data-name="Group 446">
        <path id="Path_70" data-name="Path 70" d="M222.363,337l.446.273.082.659-.325.276.132.65.311.155-.2.3.225,1.03.7.555.415-.107.44-.246.209-.538-.339-1.464-.359-1.983-.242-.389.13-.536-.456-1.555-.175-1.607-.349-1.516-.7-.448-.786.2-.431.675.208.934.313.875.428.293-.1.172.258.475-.231.241.219,1.472.233.172-.216.2Z" transform="translate(-221.098 -330.515)" fill="#af7a56"/>
      </g>
    </g>
    <g id="Group_449" data-name="Group 449" transform="translate(47.577 80.176)">
      <g id="Group_448" data-name="Group 448">
        <path id="Path_71" data-name="Path 71" d="M222.5,339.8l.728.011.435-.677.092-.615-.586-.594-.991.073-.237.471.02.761Z" transform="translate(-221.94 -337.926)" fill="#af7a56"/>
      </g>
    </g>
    <g id="Group_451" data-name="Group 451" transform="translate(49.399 79.704)">
      <g id="Group_450" data-name="Group 450">
        <path id="Path_72" data-name="Path 72" d="M225.279,338.858l-.188-.824-.524-.335-.616-.112-.693.721.176.764.681.521.711-.164Z" transform="translate(-223.258 -337.587)" fill="#af7a56"/>
      </g>
    </g>
    <g id="Group_453" data-name="Group 453" transform="translate(31.601 70.58)">
      <g id="Group_452" data-name="Group 452">
        <path id="Path_73" data-name="Path 73" d="M211.165,340.03l2.109.7.431-.006.406-.193.3-.295.589-2.151.814-3.555.424-2.09-.22-.584-.314-.342-2.342-.48-.779.355-.39.431-.774,2.793.006.783-.23.392-.808,3.047.241.668ZM213.54,333l.07-.152.715.088-.008.651-.309,1.08-.17.281-.274-.007-.448-.245Zm-.925,3.682.031-.05.763.153-.348,1.681-.131.237-.714-.14-.042-.131Z" transform="translate(-210.391 -331.03)" fill="#af7a56"/>
      </g>
    </g>
    <g id="Group_455" data-name="Group 455" transform="translate(25.238 68.474)">
      <g id="Group_454" data-name="Group 454">
        <path id="Path_74" data-name="Path 74" d="M211.048,334.492l.219-.811.423-.537.711-1.675-.191-.508-.651-.315-1.048.984-.278.212-.465.715-.744.676-.838.974,1.612-3.564-.013-.605-.21-.452-.466-.07-.544.36-1.072,2.46-.976,2.036.1.22-.133.457.091.386-.133.583-.11.04-.116.233-.275-.124.039.75-.194.19.233.689.455.2.208-.418.088-.034.569-.766-.006-.009.138-.073.377-.357.435-.183.518-.7.431-.351.173-.238-.576,1.328.037.288-.261.563-.2.9-.122-.054-.233.52-.157,1,.7-.762.264-.5-.289-.129.794-.252-.012-.605.6-.443Z" transform="translate(-205.788 -329.516)" fill="#af7a56"/>
      </g>
    </g>
    <g id="Group_457" data-name="Group 457" transform="translate(18.735 66.829)">
      <g id="Group_456" data-name="Group 456">
        <path id="Path_75" data-name="Path 75" d="M203.468,336.075l.591.017,1.247-1.522.9-1.309,2.343-3.021.584-.859-.015-.547-.52-.5-.754.135-1.042,1.515-.813.918-.154.077-1.163-.7-1.124-.108-.676.511-1.678,2.42-.106.7.342.81Zm.045-3.417.644-.693.3.079.351.241v.021l-1.236,1.812-.666-.569Z" transform="translate(-201.084 -328.334)" fill="#af7a56"/>
      </g>
    </g>
    <g id="Group_459" data-name="Group 459" transform="translate(13.947 61.751)">
      <g id="Group_458" data-name="Group 458">
        <path id="Path_76" data-name="Path 76" d="M198.406,331.784l.391.273,1.475.242.458-.447.452-.134,1.25-1.2.625-1.024.184-.184.508-.2.758-.625.372-.1.564-.81.178-.932-.239-.832-.491-.653-.547-.351-1-.216-.747.238-1.869,1.611-2.961,2.887-.15.914.248.842Zm2.333-3.15,2.292-2.132.506-.242.216.031.285.551-.071.266-1.02.81-.715.7-1.5,1.248-.2.413-.675.462-.227.028-.358-.459,0-.358Z" transform="translate(-197.618 -324.587)" fill="#af7a56"/>
      </g>
    </g>
    <g id="Group_461" data-name="Group 461" transform="translate(9.213 56.866)">
      <g id="Group_460" data-name="Group 460">
        <path id="Path_77" data-name="Path 77" d="M195.083,327.7l.278.21.487.153.349.552.341.051.128-.011.161-.1.057.068L197.8,328l.138-.3.127.024,2.354-1.4,2.13-1.462.974-.526.2-.48-.331-.488-.058-.02-.448-1.156-.611-.676-.932-.465-.483.185-.348-.07-.4.256.107.17-1.009.472-.369.214-.068.228-.447.356-.328.518-.11.95.9,1.583v.01l-.214-.029-.832.621-.146.241-.068.057-.474.09-.017.267-.378.184-.061-.013-.326-.65-.358-.238-.362-.419-.05-.938-.682.131-.671.426.653.974Zm5.932-5.21.239.232.4.486.209.047.22.358-.824.356-1.243.764-.321.3-.365-.994,0-.163Z" transform="translate(-194.145 -321.045)" fill="#af7a56"/>
      </g>
    </g>
    <g id="Group_463" data-name="Group 463" transform="translate(6.321 51.528)">
      <g id="Group_462" data-name="Group 462">
        <path id="Path_78" data-name="Path 78" d="M193.08,323.748l.377.231,2.038-.769,4.019-1.787.758-.029.177.071.161.6.641.328.763-.319.095-.149.071-.435-.434-1.277-1.135-.458-.474.211-1.663.3-.1.289-.115-.067-.362.4-.5.115-.15.349-1.1.437-.518.263-1.947.31-.022-.2.013-.49-.3-.529-.019-.059.106.042.3-.054.607-.289.319-.2,1.133-.424.349-.277.334-.01.608-.177.426-.306,1-.33.292-.7,1.65.378.266-.9-.2-.55-.5-.124-1.711.719-1.711.6-2.68,1.091-.142.075-.373.012-.685.532-.212-.051h-.115l-.154.058-.2.387.26.654.085.022-.266.327.006.458.71.65h.04l-.168.435Zm.633-1.048,0-.022.06.061-.011,0-.505-.036Z" transform="translate(-192.067 -317.172)" fill="#af7a56"/>
      </g>
    </g>
    <g id="Group_465" data-name="Group 465" transform="translate(4.647 46.488)">
      <g id="Group_464" data-name="Group 464">
        <path id="Path_79" data-name="Path 79" d="M191.342,317.738l.81,1.014,1.466-.2.739-.084.854.1.28-.334.019.1.676-.14.327.073,1.831-.387,1.331-.1.863-.45.079-.67-.352-2.548-.54-.5-.7-.1-.477.561.442,2.147-.041.1-.546.189-1.933.4-.139-.573.133-.593-.107-.5-.45-.479-.784.042-.294.473.3,1.441.125.391-.245-.169-1.953.5-.345.507-.113-.089-.075-.635.07-.527-.18-1.352-.542-.352-.458-.088-.432.345-.121.389.159,1.2Z" transform="translate(-190.863 -313.512)" fill="#af7a56"/>
      </g>
    </g>
    <g id="Group_467" data-name="Group 467" transform="translate(4.4 40.82)">
      <g id="Group_466" data-name="Group 466">
        <path id="Path_80" data-name="Path 80" d="M194.177,312.1l-.937-.147-1.2.216,0,.147-.185-.249-.774-.112-.395.4v.928l.694.16.127-.234.12.114.655-.011,0-.012.711.1.7-.013,1.493.085.434-.195.14-.113.41.3,2.416-.023.736.093.5-.373,0-.778-.374-.367-.76-.1-.768.165-.9-.16-.485.177-.778,0-.257-.13-.021-.111.287-.366-.015-.559-.194-.735-1.2-.6-1.265-.2-.268.186-1.194,0-.866.221-.008.377.392.332.962.184.7-.012.517.008.361-.367.126.157.544.164.039.047,0,.376.219.462-.162.28Z" transform="translate(-190.686 -309.401)" fill="#af7a56"/>
      </g>
    </g>
    <g id="Group_469" data-name="Group 469" transform="translate(9.452 40.712)">
      <g id="Group_468" data-name="Group 468">
        <path id="Path_81" data-name="Path 81" d="M197.087,309.5l-2.465-.064-.3.306-.01.574.555.289,3.126.345.237-.247.26-.475-.244-.685-.661-.226Z" transform="translate(-194.317 -309.316)" fill="#af7a56"/>
      </g>
    </g>
    <g id="Group_471" data-name="Group 471" transform="translate(5.461 33.755)">
      <g id="Group_470" data-name="Group 470">
        <path id="Path_82" data-name="Path 82" d="M192.327,304.66l-.6.71-.278.881.011.441.644,1.346.628.122.369.3,1.7.337,1.2-.072.255.044.459.3.946.266.291.25h1.041l.765-.366.6-.694.264-.817-.038-.608-.391-.942-.622-.476-2.392-.612-4.062-.779Zm1.131,1.219,1.92.449,3.058.661.49.278.1.193-.291.55-.259.093-1.247-.371-.984-.189-1.936-.53-.4.09-.762-.291-.153-.171.173-.555Z" transform="translate(-191.449 -304.284)" fill="#af7a56"/>
      </g>
    </g>
    <g id="Group_473" data-name="Group 473" transform="translate(8.027 24.554)">
      <g id="Group_472" data-name="Group 472">
        <path id="Path_83" data-name="Path 83" d="M193.429,299.9l-.136.509.1.384.206.369,1.934,1.113,3.232,1.688,1.915.936.621-.064.412-.217,1.056-2.144-.146-.843-.32-.486-2.475-1.439-.788-.21-.323-.321-2.744-1.551-.705.064-.65.378Zm5.509,1.775.348-.369,1.536.839.128.106-.266.671-.628-.174-.967-.573-.23-.235Zm-3.161-2.219.135-.007,1.581.87.04.042-.341.7-1.538-.762-.2-.186Z" transform="translate(-193.293 -297.619)" fill="#af7a56"/>
      </g>
    </g>
    <g id="Group_475" data-name="Group 475" transform="translate(18.186 23.603)">
      <g id="Group_474" data-name="Group 474">
        <path id="Path_84" data-name="Path 84" d="M200.678,296.917l.126.126.111.081h0Z" transform="translate(-200.678 -296.917)" fill="#af7a56"/>
      </g>
    </g>
    <g id="Group_477" data-name="Group 477" transform="translate(13.591 16.282)">
      <g id="Group_476" data-name="Group 476">
        <path id="Path_85" data-name="Path 85" d="M201.859,293.638l-.058-.3-1.8-1.711-.613.59-.609.369-.355.352-.047.428-.269.1-.744.669.092.623.567.425,1.734,1.73.288.049.263.289,0-.006.121.309,1.134,1.026.161.162.485.457h0l.454.427h0l.46.433-.417-.462-.366-.3.3.222-.006.012.069.068.3.3.116.165.04.056.07.017-.015.136.581.354.652-.66V299.4l-.631-.462-.308.049.1-.107-.679-.958-.853-.62-1.4-1.574v-.006l0,0-1.533-1.729.056-.219.381-.118.407-.37.111-.091.349.385.162,0,.059.079.055.432.9.876.777.51.461.033-.01.011.211.587.4.511,1.587,1.669.405.186.533-.192.283-.669L205.94,297l-.494-.2-1.772-1.717-.427.028-.1.1-.4-.681Z" transform="translate(-197.362 -291.625)" fill="#af7a56"/>
      </g>
    </g>
    <g id="Group_479" data-name="Group 479" transform="translate(18.952 12.11)">
      <g id="Group_478" data-name="Group 478">
        <path id="Path_86" data-name="Path 86" d="M205.28,288.946l-.348-.07-.376-.355-.955.056-.832.36-1.532,1.433.452.794.623.58.718,1.236,1.081,1.467.554.885,1.493,2.18.7.079.216-.319.142-.628-1.993-2.712,1.282-1.067.266-.864-.088-.579-.3-.579.024-.235-.273-.356-.74-.8.163-.12Zm-.029,3.107-.625.541-.3-.232-.836-1.137-.6-.616.339-.249.21.035.5-.259.051,0L205.261,292Z" transform="translate(-201.238 -288.522)" fill="#af7a56"/>
      </g>
    </g>
    <g id="Group_481" data-name="Group 481" transform="translate(25.44 9.025)">
      <g id="Group_480" data-name="Group 480">
        <path id="Path_87" data-name="Path 87" d="M206.576,287.416l-.641-.78.1,1.028.2.531.291-.132-.342.761.461.395-.076.8.948,2.233.46.7.12.674.781,1.644.506.195.666-.279-.036-1.436.029-.393-.229-.778-.01-1-.171-1.271,1.57,3.52.484.443.479.144.359-.3.092-.644-1.125-2.436-.876-2.083-.231-.069-.253-.4-.349-.19-.348-.486,0,0,.046-.105-.1-.241.277-.122-.588-.472-.013-.271-.668-.283-.457.206.176.434-.034.087.2.935.011,0-.047.187.026.483-.153.446.177.852-.025.592.063.251-.61-1.312-.24-.163-.247-.57-.537-.745.12-.055Z" transform="translate(-205.934 -286.305)" fill="#af7a56"/>
      </g>
    </g>
    <g id="Group_483" data-name="Group 483" transform="translate(32.118 7.096)">
      <g id="Group_482" data-name="Group 482">
        <path id="Path_88" data-name="Path 88" d="M211.561,285.045l-.555.147-.242.384.229.54-.1.273.333,1.266.137,1.274.325.31.061.846.38,1.535.441,2.08.562.2.475-.111.205-.385-.312-1.242.132-.306-.384-.539.1-.166-.387-.888.059-.087.271-.069.257.465.256.16.613,1.413.207.121.18.42.64.463.458-.108.05-.1.131-.73-.306-.2-.2-.763-.522-.376-.105-.455-.75-1.258-.283-.148.1-.176-.274-.408.085-.147-.058-.591.2-1.137-.115-.712.071.02.331-.075-.126-.549-.218.052-.267-.367-.337.082-.241.44-.333,1.026.017.619-.217.325.16.315-.21.22-.044-.023-.021-.088.033-.179-.444-1.77.1-.521Z" transform="translate(-210.764 -284.919)" fill="#af7a56"/>
      </g>
    </g>
    <g id="Group_485" data-name="Group 485" transform="translate(38.433 6.31)">
      <g id="Group_484" data-name="Group 484">
        <path id="Path_89" data-name="Path 89" d="M215.865,289.273l-.039.739-.351.605-.142,2.3.253.235.131.065h.065l.326.081.426-.3.071-1.266.3-.724.952-.054.454-.2.653-.1-.157.448.232.963.218.609.218.189,1.064.275-.378-.493.127-.036.146-.644-.385-.164-.014-.185-.369-.789-.419-.377-.022-.424.4.456.235-.448-.011-.333-.246-.217-.015-.465-.221-.551-.426.263.079-1.039-.209-1.01-.26-.611-.362.025.522-1.155-.316-.214-.4.018.017.438-.376-.324-.141-.074-.121-.422-.621.051-.141.667.04.026.029.477-.236.018V286.8l-.181.255-.277.735.178.422-.083.124Zm2.91-.252,0,.039h-.04Zm-1.507-3.076h0Zm-.466,3.017.431-.2.1-1.546-.181-.156v-.022l.267-.032-.043-.391.088-.5-.1-.082.274-.024.214.186-.1.082.088,1.421.281.771.351.615.013.37-.255.264-1.229.075-.093-.1,0-.121-.175-.477Z" transform="translate(-215.333 -284.354)" fill="#af7a56"/>
      </g>
    </g>
    <g id="Group_487" data-name="Group 487" transform="translate(44.544 6.257)">
      <g id="Group_486" data-name="Group 486">
        <path id="Path_90" data-name="Path 90" d="M224.32,284.72l-2.478-.4-.537.249-.44,1.919-.217,1.572L219.9,291.8l-.141,1.03.257.483.69.216.616-.459.255-1.819.319-1.187.1-.136,1.41.114,1-.409.378-.758.423-2.915.007-.06-.225-.614Zm-.994,2.676-.27.909-.306.065-.423-.061-.011-.017.3-2.173.853.213Z" transform="translate(-219.756 -284.316)" fill="#af7a56"/>
      </g>
    </g>
    <g id="Group_489" data-name="Group 489" transform="translate(50.092 7.835)">
      <g id="Group_488" data-name="Group 488">
        <path id="Path_91" data-name="Path 91" d="M229.913,286.456l-.638-.034-.708-.409-.487-.147-.349-.246-.737-.171-.432.392-.157.708-.4.748-.232.895-.462,1-1.534,4.185.02.707.466.307.676-.232.384-.531,2.234-6.105.127-.111.763.171.37.292-1.867,5.206-.689,1.447.278.583.486.288.655-.143.367-.546.372-1.449.194-.357.8-2.425.824-2.211.406-.939-.283-.591Z" transform="translate(-223.774 -285.45)" fill="#af7a56"/>
      </g>
    </g>
    <g id="Group_491" data-name="Group 491" transform="translate(55.013 11.531)">
      <g id="Group_490" data-name="Group 490">
        <path id="Path_92" data-name="Path 92" d="M232.524,289.041l-.193-.118-.669,1.007-.292.11-.641.456-.085.451-.138.054-.7.657-.444.593-.626.308-1.4,1.831.081.338.072.127.282.284.522-.02.763-1.01.651-.437.82.484.49.086.6.277-.381.285-.342.931-.156.628.074.278.73.818-.039-.618.124.04.483-.454-.231-.352.092-.16.138-.91-.143-.5.217-.365.077.6.447-.235.175-.284-.082-.316.245-.4.124-.577-.5-.02.625-.793.409-.982.122-.654-.314-.18,1.08-.669-.148-.352-.338-.212-.234.377-.132-.479-.075-.142.132-.417-.544-.3-.488.476.018.045-.239.413Zm-.18,4.059-.033-.02.053-.012Zm.477-3.426v0Zm.068.252-.033-.122.241.134.074.273-.125.014-.715,1.233-.2.8-.05.705-.2.316-.358.079-1.064-.623-.024-.132.064-.1.12-.493.131-.082.472.074.945-1.229-.064-.231.049-.026.2.124.182-.342Z" transform="translate(-227.337 -288.106)" fill="#af7a56"/>
      </g>
    </g>
    <g id="Group_493" data-name="Group 493" transform="translate(60.575 14.706)">
      <g id="Group_492" data-name="Group 492">
        <path id="Path_93" data-name="Path 93" d="M235.167,293.51l-.653.633-2.942,3.318-.209.57.283.571.711.138.97-.9.383-.671,1.269-1.269.374-.735.171.005.855-.908.021-.247.788-.781.174-.087.6.193.7-.325-.02-.353-.305-.394-.62-.638-1.215-1.147-.886.356-.023.654.612.7-.484.666Z" transform="translate(-231.363 -290.482)" fill="#af7a56"/>
      </g>
    </g>
    <g id="Group_495" data-name="Group 495" transform="translate(63.856 19.61)">
      <g id="Group_494" data-name="Group 494">
        <path id="Path_94" data-name="Path 94" d="M241.462,294.622l-.484-.33-1.57-.257-4.383,3.344-.816.65-.469,1.052.036.838.941,1.013.493.087.166.213,1.014.026.861-.43.151-.741-.261-.338-.283-.1-.862.25-.483-.055-.241-.483v-.217l.118-.424,1.709-1.388.06-.19.605-.044.58-.552.171-.3.271.007.255-.2.106-.15.727-.435.388.01.244.108.253.221-.051.509-.339.8.234.531.424.054.536-.189.529-1.117-.044-.909Z" transform="translate(-233.741 -294.035)" fill="#af7a56"/>
      </g>
    </g>
    <g id="Group_497" data-name="Group 497" transform="translate(66.753 25.139)">
      <g id="Group_496" data-name="Group 496">
        <path id="Path_95" data-name="Path 95" d="M243.606,298.043l-1.294.778-.505.141-.569.321-.575.8-.025-.21-.676.128-.494.3-1.038.416-.948.616-.75.186-.843.519.64,1.915.538.722.879.557.5-.138.417.129.145-.221.287-.1.63-.345.387-.177.093-.22.479-.312.378-.481.2-.934-.591-1.418.25-.127,1.1-.737,1.6-.845.618-.665-.388-.344Zm-3.473,4.876-.409.331-1.234.49-.349-.22-.328-.245-.131-.2-.242-.505.211-.227.608.014.7-.339.529-.4.655-.292.186,1.237Z" transform="translate(-235.889 -298.043)" fill="#af7a56"/>
      </g>
    </g>
    <g id="Group_499" data-name="Group 499" transform="translate(68.988 31.982)">
      <g id="Group_498" data-name="Group 498">
        <path id="Path_96" data-name="Path 96" d="M243.521,304.754l.181.024,1.748-.526.524.074.3-.556-.172-.547-.4-.223-.529.252-.277-.085-1.247.391-1.267.2-.293.339-.844.1-1.515.45-2.056.538-.177.57.133.47.395.185,1.225-.368.312.119.52-.41.172.088.867-.426.092.054.081.268-.454.276-.148.265-1.385.675-.11.214-.41.2-.432.659.128.457.106.045.732.1.189-.316.754-.235.351-.538.45-.126,1.222-.809.134-.288.18.088.394-.294.151.078.588-.085,1.145.149.706-.147-.017.074.09.324.542-.145-.061-.219.351-.283-.093-.334-.453-.222L244.9,305l-.616.045-.338-.2-.305.175-.229-.2.021-.045Z" transform="translate(-237.495 -303)" fill="#af7a56"/>
      </g>
    </g>
    <g id="Group_501" data-name="Group 501" transform="translate(69.832 38.57)">
      <g id="Group_500" data-name="Group 500">
        <path id="Path_97" data-name="Path 97" d="M247.137,308.808l-1.081-.839-.505.27-.025-.192-.326-.275-.1.008-.409.17-.134-.1-1.269.035-.234.195-.575.068-.064.075-.071-.143-.856.092.017.22-.287-.014-.136-.106-.02-.216-.445.04-.786-.065-.849.342-.884,1.1.051,1.276.241.473.661.626.793.335,1.877-.2.27.131,3.693-.31.6-.239.924-.815.248-.747-.2-.3.081-.2-.359-.174.191-.021Zm-1.5,1.418-.416.242-.417-.071-.2-.174-.454.038-.064.086-1.689.281-2.164.071-.44-.309-.056-.493.185-.2.186-.309.143.11,1.275-.129.81-.522.01.082.843.338,1.364-.056.285-.281.114-.014.64.206.484.309.314-.035Zm1.205-.8-.083.007-.218-.05.349-.039Z" transform="translate(-238.102 -307.771)" fill="#af7a56"/>
      </g>
    </g>
    <g id="Group_503" data-name="Group 503" transform="translate(69.971 44.251)">
      <g id="Group_502" data-name="Group 502">
        <path id="Path_98" data-name="Path 98" d="M244.383,314.674l.246-.195.577.135.679-.277,1.07.1.767-.44.017-.377-.328-.5-.781.024-.459.16.026-.214-.282-.358-.188.148-.448.154-.334-.657-1.055.11-.129.12-.461-.37-.338-.019-.181.065-.867-.011-.138-.175-2.226-.206-.68.27-.032.441.081.278.391.239,3.378.351-.587.189-.977-.017-.451.195-.419.832.455.54.523.341.822.175.164.1-3.522-.33-.335.267-.16.616.263.451.367.043.372.2.47-.177.526.365.651-.287,1.411.056.362-.029.277.312.379.042,1-.053.339-.086.232.255.4.306.294-.273,0-.04.356.309.863.085.59-.352.191-.826-.4-.618-.522-.061-.1.085-.3-.191-1.405-.616-.87-.156-.146-.185-.455-.075.438-.152Zm1.425,2.217.013.015-.255.363-.075-.182Z" transform="translate(-238.202 -311.894)" fill="#af7a56"/>
      </g>
    </g>
    <g id="Group_505" data-name="Group 505" transform="translate(68.966 49.745)">
      <g id="Group_504" data-name="Group 504">
        <path id="Path_99" data-name="Path 99" d="M244.045,319.122l.034-.047.057.037,1.289.156.127-.1.386.126.272-.056.215.1.306-.288.111-.363-.559-.6-.254.216-.157,0-.358-.206-.581-.056-.94.218-.487.179-.319-.31-.33-.052-.265-.311-1.107.243-.341.493-.453-.549-.285.063-.193-.076-.11.075-.579-.346-.536-.129-.075-.352.339-.531.031-.726-.441.127-.252-.177-.482.125-.376.279-.251.724.067.46-.058.313.078.367.32.259.263.316,1.5.628.119-.046.219.232,1.145.57.164.2.475.224.513.087.181.395.369.047.821.389.276.233.567.192.358.324.457.005.324-.087.272-.344.06-.424-.123-.412-.363-.276-.828-.268-.254.01-.157.04.025-.151-.3-.425-.241.014-.076-.063-.106-.228-.5-.069-.277-.236-.273-.194,1.016-.015Z" transform="translate(-237.48 -315.878)" fill="#af7a56"/>
      </g>
    </g>
    <g id="Group_507" data-name="Group 507" transform="translate(28.622 27.645)">
      <g id="Group_506" data-name="Group 506">
        <path id="Path_100" data-name="Path 100" d="M208.377,309.086l.484.951.54.589.362.162.753.233.9.091.972-.6.63-1.335-.051-.4.892-2.145-.363-1.228-.875-.666-.4-.873.134-.306.4-1.115.936-.953,1.072.269.078.269.286,1.207.163.063.3-.1.261-.561.305-.114.126-.541-.157-.894-.47-.554-.987-.581-.895-.091-1.107.335-.937.7-1,2.124-.148.867.193.788.442.787,1.335.985.071.284-.062.908-.319.675-.495.818-.788.441-.71-.212-.491-.795.226-.632-.086-.611-.526-.368-.541.121-.58,1.235Z" transform="translate(-208.239 -299.869)" fill="#af7a56"/>
      </g>
    </g>
    <g id="Group_509" data-name="Group 509" transform="translate(35.972 30.371)">
      <g id="Group_508" data-name="Group 508">
        <path id="Path_101" data-name="Path 101" d="M213.558,313.279l.526.368.3-.114.32-.177.912-1.692,3.221-6.927.305-.221.881.4.838-.221.113-.262.049-.348-.213-.354-3.354-1.884-.745.107-.383.555.291.7.726.467.228.469-1.035,1.968-2.973,6.359Z" transform="translate(-213.558 -301.848)" fill="#af7a56"/>
      </g>
    </g>
    <g id="Group_511" data-name="Group 511" transform="translate(40.517 33.539)">
      <g id="Group_510" data-name="Group 510">
        <path id="Path_102" data-name="Path 102" d="M219.286,309.683l-.843,1.265-1.593,3.127.064.369.726.469.844-.307,1.756-3.738.489-.271.419.334.157.432-.58,1.485.071.284-.643,1.9.094,1.092.575.269.54-.191.868-2.53.325-1.505.4-.846.631-.306.37-.525-.207-.334.1-.2.27-.079.377.171.1-.2-.292-.625.077-.157.049-.347.56-.234.412-.612-.1-.512-.455-.333-.39.143-.368.775-.758,1.875-.34.221-1.535-.729-.071-.39.468-.974,1-1.862.3-.1,1.136.531.738-.093.036-.106-.129-.668-.442-.539-1.541-.964-1.016.329-2.217,4.27Z" transform="translate(-216.85 -304.147)" fill="#af7a56"/>
      </g>
    </g>
    <g id="Group_513" data-name="Group 513" transform="translate(48.777 36.846)">
      <g id="Group_512" data-name="Group 512">
        <path id="Path_103" data-name="Path 103" d="M222.94,317.868l.512.36.6-.213,1.345-2.879-.058-.383.554-.683.34-.291.851-1.031,1.134-1.1,1.183-1.556.928-1.436-.114-.3-.248-.248-.76.136-.368.526-.823.8-.369.527-1.382,1.457-.106-.035-.05-.149-.049-.4.508-1.875-.085-.256.311-.909-.088-1.108-.327-.27-.554.116-.114.261-.268.824-.311.91.121.289-.149.3.158.895-.529,1.386-.267,2.564-1.642,3.226Z" transform="translate(-222.825 -306.544)" fill="#af7a56"/>
      </g>
    </g>
    <g id="Group_515" data-name="Group 515" transform="translate(52.437 40.007)">
      <g id="Group_514" data-name="Group 514">
        <path id="Path_104" data-name="Path 104" d="M231.936,312.889l.9-1.663.4-1.612-.158-.646-.305-.135-.724.349-2.372,4.513-2.011,4-.283.106-1.088-.382-.446.149-.37.527.187.66,1.542.715.994-.108.616-.527.7-1.335.68-1.436,1.055-2.436Z" transform="translate(-225.475 -308.833)" fill="#af7a56"/>
      </g>
    </g>
    <g id="Group_517" data-name="Group 517" transform="translate(40.117 23.279)">
      <g id="Group_516" data-name="Group 516">
        <path id="Path_105" data-name="Path 105" d="M219.016,303.2l.2.105.385-.127.477-.847.832-1.809,1.215-2.142-.109-.366-.524-.327-.325.122-.659.655-.305.4-.3.272-.3.393-.143.117.281-1.495.284-.82-.163-.522-.407-.121-.4.105-.641,1.32-.087.38-.126.039-.681,1.257-.438.652-.524,1.057.045.241.235.285.519-.063.078-.177.238-.354.587-1.085-.039.125-.094.573.1.191.517.35.276-.04.571-.519-.764,1.778Z" transform="translate(-216.553 -296.694)" fill="#af7a56"/>
      </g>
    </g>
    <g id="Group_519" data-name="Group 519" transform="translate(44.077 25.376)">
      <g id="Group_518" data-name="Group 518">
        <path id="Path_106" data-name="Path 106" d="M222.894,298.908l-.122-.532-.238-.11-.31-.055-.306.178-.386.791-.562,1.027-.035.263-.249.192-.361.871-.509.792-.4.824.161.484.454.208.465-.157.254-.513.18-.519-.08-.27.1-.035.055-.305.186-.024.452-.768-.037-.141.15-.011.228-.435-.1-.287.187-.3.249-.006.2-.369-.077-.169.177-.058Z" transform="translate(-219.413 -298.212)" fill="#af7a56"/>
      </g>
    </g>
    <g id="Group_521" data-name="Group 521" transform="translate(46.605 26.771)">
      <g id="Group_520" data-name="Group 520">
        <path id="Path_107" data-name="Path 107" d="M224.209,299.223l-.923.311-.887,1.775.081.333.223.419.248.3.561.307-.147.612-.362.523-.414.2-.308-.584.171-.342-.109-.338-.221-.1-.4-.072-.478.955.073.5.226.421.691.453.16-.049.177.084.321-.057.243-.247.315-.2.628-1.255.1-.047.393-.535-.344-.161-.1-.3-.179-.081-.2-.233-.15-.46.036-.45.145-.4.329-.3.206-.065.082.043.254.245.076.217-.181.549.391.29.344-.1.147-.281.137-.9-.093-.072-.249-.491-.534-.3Z" transform="translate(-221.244 -299.223)" fill="#af7a56"/>
      </g>
    </g>
    <g id="Group_523" data-name="Group 523" transform="translate(50.387 28.298)">
      <g id="Group_522" data-name="Group 522">
        <path id="Path_108" data-name="Path 108" d="M225.642,302.493l-.31.507-1.3,2.547-.051.458.319.367.552-.031.484-.758.139-.492.583-.988.113-.492.091-.021.419-.764-.026-.157L227,302.1l.059-.052.4.023.456-.372-.1-.3-.283-.217-1.485-.849-.585.43.112.5.467.313-.168.427Z" transform="translate(-223.979 -300.33)" fill="#af7a56"/>
      </g>
    </g>
    <g id="Group_525" data-name="Group 525" transform="translate(53.073 30.3)">
      <g id="Group_524" data-name="Group 524">
        <path id="Path_109" data-name="Path 109" d="M229.436,301.885l-.374-.1-.974.191-.192.388-.23.167-.533,1.052-.153.739-.065.136-.25.221-.334.548-.216.146-.191.7.1.557.342.523.466.313.477.116.661-.1.42-.316.811-1.41,1.194-2.424-.1-.582-.353-.527Zm-1.791,4.23-.228.23-.07.014-.235-.221-.01-.117.434-.7.281-.573.641-1.08.042-.309.285-.388.071-.036.25.161.057.153Z" transform="translate(-225.924 -301.781)" fill="#af7a56"/>
      </g>
    </g>
    <g id="Group_527" data-name="Group 527" transform="translate(25.838 39.182)">
      <g id="Group_526" data-name="Group 526">
        <path id="Path_110" data-name="Path 110" d="M206.361,308.373c-.469.625,1.025,1.373,1.263,1.5.865.462,2.114.9,2.944,1.3.324.156.548.383.86.564,1.327.767,2.864,1.354,3.9,2.033a33.83,33.83,0,0,0,3.139,1.564A15.423,15.423,0,0,0,220,316.2c.128.032.238.05.345.067.156.09.287.159.344.189.867.463,2.115.9,2.946,1.3.324.156.547.383.86.564,1.326.768,2.864,1.354,3.9,2.034a33.641,33.641,0,0,0,3.139,1.564,14.9,14.9,0,0,0,1.526.86c1.254.32,1.415-.214,1.387-.637-.061-.877-1.912-1.99-2.691-2.191-.156-.039-.519.082-.655.035-.029-.012-.019-.383-.106-.423-.55-.255-.541.2-.85-.23-.238-.333-.388.121-.465.129-.346.032-1.042-.559-1.049-.576.019.049.3-.2.18-.317-.422-.408-1.33-.388-1.894-.64-.216-.1-.4-.461-.769-.64-.274-.131-.619-.11-.945-.235-1.478-.579-2.851-1.642-4.067-2.043a5.548,5.548,0,0,0-2.441-1.638c-.157-.039-.52.082-.655.035-.031-.011-.02-.383-.107-.423-.55-.255-.54.2-.85-.23-.238-.332-.387.123-.465.129-.347.033-1.042-.558-1.048-.576.018.049.3-.2.178-.316-.422-.409-1.33-.39-1.894-.641-.214-.1-.4-.459-.769-.639-.274-.132-.619-.11-.943-.237-1.684-.658-3.232-1.947-4.564-2.169A1.888,1.888,0,0,0,206.361,308.373Z" transform="translate(-206.271 -308.249)" fill="#af7a56"/>
      </g>
    </g>
    <g id="Group_529" data-name="Group 529" transform="translate(40.611 73.868)">
      <g id="Group_528" data-name="Group 528">
        <path id="Path_111" data-name="Path 111" d="M217.4,335.995c.125.025.246.043.366.056a2.809,2.809,0,0,0,1.373-.16.612.612,0,0,0,.328-.359,2.69,2.69,0,0,0-.109-1.9.256.256,0,0,0-.26-.156,3.739,3.739,0,0,1-.764-.039,2.185,2.185,0,0,0-.863,0,.276.276,0,0,0-.11.068,1.932,1.932,0,0,0-.146,2.347A.255.255,0,0,0,217.4,335.995Z" transform="translate(-216.903 -333.393)" fill="#af7a56"/>
      </g>
    </g>
    <g id="Group_531" data-name="Group 531" transform="translate(68.833 57.062)">
      <g id="Group_530" data-name="Group 530">
        <path id="Path_112" data-name="Path 112" d="M237.664,323.3a.914.914,0,0,0,.616.312,2.379,2.379,0,0,0,.792-.089c.111-.026.213-.05.356-.071a.9.9,0,0,0,.6-.667,1.384,1.384,0,0,0-2.24-1.3c-.59.32-.438.942-.177,1.723A.226.226,0,0,0,237.664,323.3Z" transform="translate(-237.384 -321.164)" fill="#af7a56"/>
      </g>
    </g>
    <g id="Group_533" data-name="Group 533" transform="translate(24.167 45.29)">
      <g id="Group_532" data-name="Group 532">
        <path id="Path_113" data-name="Path 113" d="M205.569,318.229a.949.949,0,0,0-.267.291c-.046.077-.085.145-.12.206a.384.384,0,0,0-.168.307.7.7,0,0,0,.047.313.708.708,0,0,0,.067.186.583.583,0,0,0,.262.256l.463.242.024.011a.293.293,0,0,0,.06.015.459.459,0,0,1,.125.031.439.439,0,0,1,.121.07,2.85,2.85,0,0,0,.447.281l.218.114.237.124a.437.437,0,0,0,.068.032.608.608,0,0,0,.49-.02.722.722,0,0,0,.346-.3l.164-.313a.5.5,0,0,0,.05-.385.454.454,0,0,0-.2-.25.929.929,0,0,0-.188-.185,2.18,2.18,0,0,0-.218-.129l-.025-.011a.242.242,0,0,0-.083-.015.17.17,0,0,1-.056-.013.335.335,0,0,1-.081-.047,1.908,1.908,0,0,0-.228-.159.148.148,0,0,1-.008-.061.912.912,0,0,0,.186-.138h0a.332.332,0,0,1,.06-.029.217.217,0,0,0,.074-.047q.138-.127.3-.267a1.407,1.407,0,0,1,.317-.2.226.226,0,0,0,.086-.067,2.12,2.12,0,0,1,.36-.355c.145-.113.3-.225.461-.338a.266.266,0,0,0,.042-.038A1.925,1.925,0,0,1,209.4,317a2.561,2.561,0,0,0,.522-.463.212.212,0,0,0,.032-.046.367.367,0,0,1,.075-.089,1.019,1.019,0,0,0,.195-.264,1.215,1.215,0,0,1,.157-.235.819.819,0,0,0,.184-.416l.043-.081a.777.777,0,0,0,.231-.406c.021-.107.042-.221.067-.344a.222.222,0,0,0,0-.061c-.01-.167-.022-.341-.038-.52a1.4,1.4,0,0,0-.175-.572.232.232,0,0,0-.051-.064.481.481,0,0,0-.167-.27,1.692,1.692,0,0,0-.257-.164l-.3-.159a1.366,1.366,0,0,0-.139-.064,1.086,1.086,0,0,0-.278-.07c-.1-.011-.218-.028-.352-.053a.227.227,0,0,0-.114.008c-.061.018-.12.039-.177.058a.456.456,0,0,0-.213.153c-.142.1-.274.2-.4.288a1.29,1.29,0,0,0-.385.454l-.2.388a.77.77,0,0,0-.1.388.63.63,0,0,0,.1.321.676.676,0,0,0,.231.216.989.989,0,0,0,.122.06.718.718,0,0,0,.159.042.857.857,0,0,0,.38-.06.525.525,0,0,0,.232-.213.809.809,0,0,0,.185-.17,1.344,1.344,0,0,0,.095-.152.233.233,0,0,1,.082-.093.259.259,0,0,1,.11-.045.185.185,0,0,1,.089.008.227.227,0,0,1,.04.072.3.3,0,0,0,.046.157.386.386,0,0,0-.026.054,1.075,1.075,0,0,0-.051.156c-.01.038-.021.075-.033.114a.185.185,0,0,0-.067.072c-.065.124-.129.262-.2.41a.53.53,0,0,1-.213.238,1.649,1.649,0,0,0-.438.3c-.121.114-.256.23-.4.346-.068.046-.166.11-.275.177a.869.869,0,0,0-.292.273c-.057.045-.117.088-.18.131a2.385,2.385,0,0,0-.256.2,8.922,8.922,0,0,0-.725.555A9.3,9.3,0,0,0,205.569,318.229Z" transform="translate(-205.012 -312.654)" fill="#af7a56"/>
      </g>
    </g>
    <g id="Group_535" data-name="Group 535" transform="translate(28.685 47.545)">
      <g id="Group_534" data-name="Group 534">
        <path id="Path_114" data-name="Path 114" d="M211.452,321.24a.466.466,0,0,0,.131-.111,1.076,1.076,0,0,0,.1-.16l.238-.454a.252.252,0,0,0,.089-.09.277.277,0,0,0,.036-.147l.2-.377a1.5,1.5,0,0,1,.145-.216.732.732,0,0,0,.157-.359l.312-.594a.6.6,0,0,0,.191-.312.829.829,0,0,1,.071-.188.246.246,0,0,0,.026-.109c.031-.038.057-.074.085-.106a1.142,1.142,0,0,0,.1-.125.415.415,0,0,0,.053-.124.8.8,0,0,0,.179-.319.994.994,0,0,1,.064-.178,1.026,1.026,0,0,0,.244-.532c.019-.139.043-.285.071-.437l.028-.053a.243.243,0,0,0,.026-.136,2.484,2.484,0,0,0-.122-.533,1.971,1.971,0,0,0-.271-.518.651.651,0,0,0-.223-.331,1.73,1.73,0,0,0-.25-.159.873.873,0,0,0-.106-.049.57.57,0,0,0-.209-.045,1.1,1.1,0,0,0-.256-.15.537.537,0,0,0-.5.046,1.679,1.679,0,0,0-.449.131,3.53,3.53,0,0,0-.452.237,2.227,2.227,0,0,0-.248.191,1,1,0,0,0-.216.273.252.252,0,0,0-.026.09.135.135,0,0,1-.031.089,1.084,1.084,0,0,0-.146.209.327.327,0,0,0-.154.342.2.2,0,0,1-.024.045l-.107.161a1.192,1.192,0,0,0-.116.217.632.632,0,0,0-.036.131.239.239,0,0,0-.079.088,3.228,3.228,0,0,1-.252.4,1.532,1.532,0,0,0-.239.519.335.335,0,0,0-.154.287l0,.018a.412.412,0,0,0-.173.282.481.481,0,0,1-.054.157.28.28,0,0,1-.07.081.4.4,0,0,0-.132.3l-.2.381a2.13,2.13,0,0,0-.387.925,1.82,1.82,0,0,0,.191,1.135,1.215,1.215,0,0,0,.661.675l.237.124a.31.31,0,0,0,.16.139.421.421,0,0,0,.138.021l.022.011a.255.255,0,0,0,.164,0,.222.222,0,0,0,.068-.033.667.667,0,0,0,.1-.014,1.082,1.082,0,0,0,.43-.026.847.847,0,0,0,.348-.192.777.777,0,0,0,.3-.141.616.616,0,0,0,.064-.089.794.794,0,0,0,.21-.217C211.416,321.3,211.436,321.267,211.452,321.24Zm-.164-2.393a.607.607,0,0,0-.186.2.417.417,0,0,0-.04.237q-.027.046-.05.079a.565.565,0,0,1-.115.093.229.229,0,0,0-.078.086l-.084.16a.24.24,0,0,0-.028.12.192.192,0,0,1-.047.132.65.65,0,0,0-.132.317,2.411,2.411,0,0,0-.228.1,1.681,1.681,0,0,1-.27.107l-.032.013a.3.3,0,0,1-.088-.089.678.678,0,0,1-.083-.191.7.7,0,0,1-.024-.2.317.317,0,0,1,.027-.129.839.839,0,0,0,.061-.145.42.42,0,0,0,.013-.2l.046-.089a.565.565,0,0,0,.189-.2.38.38,0,0,0,.04-.237l.035-.067a.4.4,0,0,0,.159-.124,1.241,1.241,0,0,0,.088-.138.229.229,0,0,0,.02-.051,1.883,1.883,0,0,1,.168-.388c.008-.01.021-.015.026-.028s0-.021,0-.032.02-.053.033-.078a2.3,2.3,0,0,0,.281-.635l.181-.345c.011-.021.022-.042.035-.061l.039-.01a.233.233,0,0,0,.135-.12l.079-.152a.232.232,0,0,0,.026-.122.116.116,0,0,1,.022-.085.609.609,0,0,0,.134-.345.734.734,0,0,1,.157-.173.5.5,0,0,1,.26-.1.234.234,0,0,0,.095-.033c.032-.02.043-.017.049-.014l.024.008a2.22,2.22,0,0,1,.246.114l.067.036a.837.837,0,0,1-.022.25c-.015.033-.029.07-.043.109a.4.4,0,0,0-.017.18.579.579,0,0,0-.178.278.081.081,0,0,1-.046.053.243.243,0,0,0-.092.1l-.079.15a4.739,4.739,0,0,0-.245.552,1.033,1.033,0,0,1-.23.374.242.242,0,0,0-.042.057.5.5,0,0,0-.053.264.54.54,0,0,0-.16.288A.714.714,0,0,1,211.288,318.846Z" transform="translate(-208.281 -314.288)" fill="#af7a56"/>
      </g>
    </g>
    <g id="Group_537" data-name="Group 537" transform="translate(32.052 49.662)">
      <g id="Group_536" data-name="Group 536">
        <path id="Path_115" data-name="Path 115" d="M210.86,316.258a.239.239,0,1,0-.136-.309A.237.237,0,0,0,210.86,316.258Z" transform="translate(-210.708 -315.796)" fill="#af7a56"/>
      </g>
    </g>
    <g id="Group_539" data-name="Group 539" transform="translate(38.859 52.872)">
      <g id="Group_538" data-name="Group 538">
        <path id="Path_116" data-name="Path 116" d="M216.52,325.609l.235.124a.32.32,0,0,0,.16.139.42.42,0,0,0,.138.021l.026.013a.231.231,0,0,0,.159.005.2.2,0,0,0,.072-.036.921.921,0,0,0,.095-.014,1.082,1.082,0,0,0,.43-.026.847.847,0,0,0,.346-.191.285.285,0,0,0,.128-.042.279.279,0,0,0,.173-.1.666.666,0,0,0,.064-.091.8.8,0,0,0,.209-.214c.024-.036.043-.068.06-.095a.46.46,0,0,0,.132-.114,1.127,1.127,0,0,0,.1-.159l.238-.454a.265.265,0,0,0,.093-.095.29.29,0,0,0,.032-.143l.2-.377a1.548,1.548,0,0,1,.143-.214.708.708,0,0,0,.159-.36l.312-.594a.592.592,0,0,0,.191-.312.83.83,0,0,1,.071-.188.239.239,0,0,0,.026-.107c.032-.04.058-.077.086-.109a1.162,1.162,0,0,0,.095-.124.415.415,0,0,0,.053-.124.783.783,0,0,0,.18-.32.987.987,0,0,1,.065-.177,1.032,1.032,0,0,0,.244-.531c.018-.139.042-.285.07-.437l.028-.053a.232.232,0,0,0,.026-.136,2.439,2.439,0,0,0-.121-.533,2.02,2.02,0,0,0-.273-.518.642.642,0,0,0-.223-.331,1.713,1.713,0,0,0-.249-.159,1.144,1.144,0,0,0-.107-.049.6.6,0,0,0-.207-.045,1.14,1.14,0,0,0-.257-.15.534.534,0,0,0-.5.047,1.667,1.667,0,0,0-.449.129,3.731,3.731,0,0,0-.452.237,2.364,2.364,0,0,0-.248.191.975.975,0,0,0-.216.273.259.259,0,0,0-.026.092.147.147,0,0,1-.029.088,1.081,1.081,0,0,0-.147.21.326.326,0,0,0-.154.34.15.15,0,0,1-.022.044l-.109.161a1.254,1.254,0,0,0-.116.218.7.7,0,0,0-.036.131.229.229,0,0,0-.079.088,3.45,3.45,0,0,1-.25.4,1.488,1.488,0,0,0-.239.518.33.33,0,0,0-.154.288h0l0,.015a.419.419,0,0,0-.173.285.517.517,0,0,1-.054.157.328.328,0,0,1-.07.081.391.391,0,0,0-.132.3l-.2.381a2.117,2.117,0,0,0-.388.925,1.82,1.82,0,0,0,.191,1.135A1.218,1.218,0,0,0,216.52,325.609Zm.671-1.87a.992.992,0,0,0,.061-.143.417.417,0,0,0,.012-.2l.046-.089a.566.566,0,0,0,.189-.2.38.38,0,0,0,.04-.237l.035-.067a.38.38,0,0,0,.159-.124,1.246,1.246,0,0,0,.088-.138.249.249,0,0,0,.02-.05,1.829,1.829,0,0,1,.228-.526,2.365,2.365,0,0,0,.28-.637l.181-.344.033-.06a.244.244,0,0,0,.175-.131l.079-.152a.248.248,0,0,0,.028-.122.113.113,0,0,1,.021-.085.608.608,0,0,0,.134-.345.769.769,0,0,1,.157-.174.515.515,0,0,1,.26-.1.241.241,0,0,0,.1-.033c.031-.02.042-.017.047-.014l.02.007a2.32,2.32,0,0,1,.252.117l.067.035a.872.872,0,0,1-.022.249,1.06,1.06,0,0,0-.046.113.387.387,0,0,0-.014.177.566.566,0,0,0-.178.277.083.083,0,0,1-.047.054.234.234,0,0,0-.092.1l-.079.15a4.887,4.887,0,0,0-.243.552,1.037,1.037,0,0,1-.231.374.2.2,0,0,0-.04.057.486.486,0,0,0-.053.266.548.548,0,0,0-.161.287.63.63,0,0,1-.04.134.615.615,0,0,0-.185.2.4.4,0,0,0-.04.237q-.027.046-.05.079a.632.632,0,0,1-.117.093.257.257,0,0,0-.078.086l-.084.16a.239.239,0,0,0-.026.12.207.207,0,0,1-.047.132.672.672,0,0,0-.134.317c-.085.033-.16.067-.228.1a1.61,1.61,0,0,1-.27.107l-.031.013a.286.286,0,0,1-.089-.089.715.715,0,0,1-.083-.191.751.751,0,0,1-.024-.206A.326.326,0,0,1,217.19,323.739Z" transform="translate(-215.643 -318.15)" fill="#af7a56"/>
      </g>
    </g>
    <g id="Group_541" data-name="Group 541" transform="translate(43.62 55.172)">
      <g id="Group_540" data-name="Group 540">
        <path id="Path_117" data-name="Path 117" d="M219.344,327.154a1.722,1.722,0,0,0,.253.163l.054.024a.591.591,0,0,0,.384.011.553.553,0,0,0,.356-.277q.24-.455.479-.854a5.451,5.451,0,0,0,.422-.866l.118-.22.566-1.08.526-1,.323-.615.12-.228.288-.548.234-.445.128-.246a.686.686,0,0,0,.06-.516,1.124,1.124,0,0,0-.232-.417.224.224,0,0,0-.07-.056,1.289,1.289,0,0,0-.135-.061,1.692,1.692,0,0,0-.815-.088l-.113.031a.593.593,0,0,1-.064.017.631.631,0,0,0-.095.031.522.522,0,0,0-.064.015.541.541,0,0,0-.12.033c-.029.013-.051.02-.072.026a1.308,1.308,0,0,0-.378.2,1.162,1.162,0,0,0-.271.335.443.443,0,0,0-.17.273.518.518,0,0,1-.035.115.87.87,0,0,0-.058.145.305.305,0,0,0,.154.369.877.877,0,0,0,.1.043l.06.022a.424.424,0,0,0,.277-.01.959.959,0,0,0,.175-.036c-.039.083-.072.166-.1.242a.753.753,0,0,1-.157.256.2.2,0,0,0-.038.053l-.045.085-.079.152-.408.776a1.435,1.435,0,0,0-.117.294.179.179,0,0,1-.063.088.219.219,0,0,0-.058.074l-.775,1.476-.481.918-.12.228a.762.762,0,0,0-.093.3v.015a.316.316,0,0,0-.1.278.367.367,0,0,0,.082.186A.464.464,0,0,0,219.344,327.154Z" transform="translate(-219.085 -319.817)" fill="#af7a56"/>
      </g>
    </g>
    <g id="Group_543" data-name="Group 543" transform="translate(33.96 49.665)">
      <g id="Group_542" data-name="Group 542">
        <path id="Path_118" data-name="Path 118" d="M213.286,324.437c.328-.534.637-1.319.917-1.835a6.544,6.544,0,0,1,.4-.523c.547-.815.959-1.78,1.444-2.413a18.3,18.3,0,0,0,1.11-1.945,8.314,8.314,0,0,0,.614-.938c.217-.8-.177-.941-.487-.95-.644-.021-1.44,1.113-1.578,1.607-.026.1.067.346.033.431-.008.018-.281-.014-.309.04-.181.342.156.367-.159.54-.242.134.095.262.1.313.029.228-.4.643-.41.646.036-.008-.149-.212-.235-.139-.295.248-.268.843-.447,1.2-.068.134-.333.23-.461.459-.093.17-.072.4-.161.6-.462,1.055-1.39,1.979-1.536,2.834a1.155,1.155,0,0,0,.07.8C212.663,325.51,213.195,324.584,213.286,324.437Z" transform="translate(-212.098 -315.832)" fill="#af7a56"/>
      </g>
    </g>
  </g>
</svg>
