<svg xmlns="http://www.w3.org/2000/svg" width="230" height="35" viewBox="0 0 230 35"><g><g><g><g><g><path fill="#fff" d="M15.456 14.208c-.196.127-.394.25-.596.366-.174.102-.138.085-.317.18 1.069.533 2.838 1.114 4.535 1.136.488-.85.94-1.735 1.242-2.686-1.51.653-3.135.922-4.864 1.004z"/></g><g><path fill="#fff" d="M20.932 7.44a14.075 14.075 0 0 1-5.192 6.58c1.685-.18 3.726-.884 4.789-1.582.04-.142.022-.082.058-.226a14.04 14.04 0 0 0 .345-4.772z"/></g><g><path fill="#fff" d="M18.89 16.116c-1.81 0-3.54-.343-5.129-.966a13.988 13.988 0 0 1-2.691-1.413l-.022-.014A14.027 14.027 0 0 1 4.921 3.461a14.013 14.013 0 0 0-.865 6.255c.06.687.17 1.36.326 2.014.03.126-.003.001.03.126.987 1.037 2.501 1.985 3.909 2.542a13.979 13.979 0 0 1-3.68-1.726 13.997 13.997 0 0 0 1.815 3.73c.115.167.049.08.171.242.532.365 2.048.916 3.031 1.097a13.93 13.93 0 0 1-2.58-.5 14.07 14.07 0 0 0 5.83 4.298 14.096 14.096 0 0 0 6.05-5.424z"/></g></g><g/></g><g><g><text dominant-baseline="text-before-edge" style="line-height:15px;font-kerning:normal" fill="#fff" font-family="'Roboto Slab','RobotoSlab-Medium'" font-size="12" letter-spacing=".24" transform="translate(-1007 -8768)"><tspan>Розроблено у VORONIN STUDIO</tspan><tspan> </tspan><tspan>2021</tspan></text></g></g></g></g></svg>