<svg id="Vstudio_link" data-name="Vstudio link" xmlns="http://www.w3.org/2000/svg" width="229" height="35" viewBox="0 0 229 35">
  <g id="Group_2956" data-name="Group 2956">
    <g id="Group_2955" data-name="Group 2955" transform="translate(4 3.461)">
      <path id="Path_3395" data-name="Path 3395" d="M15.456,14.208c-.2.127-.394.249-.6.366-.174.1-.138.085-.317.179a11.276,11.276,0,0,0,4.535,1.137A13.887,13.887,0,0,0,20.32,13.2,13.735,13.735,0,0,1,15.456,14.208Z" transform="translate(-4 -3.461)" fill="#fff"/>
      <path id="Path_3396" data-name="Path 3396" d="M20.932,7.44a14.075,14.075,0,0,1-5.192,6.579,12.406,12.406,0,0,0,4.789-1.581c.04-.142.022-.082.058-.226A14.04,14.04,0,0,0,21,8.821Q21,8.122,20.932,7.44Z" transform="translate(-4 -3.461)" fill="#fff"/>
      <path id="Path_3397" data-name="Path 3397" d="M18.89,16.116a14.022,14.022,0,0,1-5.129-.966,13.988,13.988,0,0,1-2.691-1.413l-.022-.014A14.027,14.027,0,0,1,4.921,3.461,14.013,14.013,0,0,0,4,8.469q0,.369.019.734c.009.172.022.343.037.513a13.91,13.91,0,0,0,.326,2.014c.03.126,0,0,.03.126A11.585,11.585,0,0,0,8.321,14.4a13.979,13.979,0,0,1-3.68-1.726A14,14,0,0,0,6.456,16.4c.115.167.049.08.171.242a10.6,10.6,0,0,0,3.031,1.1,13.931,13.931,0,0,1-2.58-.5,14.07,14.07,0,0,0,5.577,4.2c.084.035.168.07.253.1q.617-.289,1.2-.635a14.1,14.1,0,0,0,4.85-4.789Z" transform="translate(-4 -3.461)" fill="#fff"/>
    </g>
    <rect id="Rectangle_1262" data-name="Rectangle 1262" width="25" height="25" fill="none"/>
  </g>
  <text id="Розроблено_у_VORONIN_STUDIO_2021" data-name="Розроблено у VORONIN STUDIO
2021" transform="translate(35 17)" fill="#fff" font-size="12" font-family="RobotoSlab-Regular, Roboto Slab" letter-spacing="0.02em"><tspan x="0" y="0">Розроблено у VORONIN STUDIO</tspan><tspan x="0" y="15">2021</tspan></text>
</svg>
