<svg xmlns="http://www.w3.org/2000/svg" width="50" height="50" viewBox="0 0 50 50">
  <g id="Group_8196" data-name="Group 8196" transform="translate(-215 -1880)">
    <g id="researcher" transform="translate(222.208 1884.534)">
      <path id="Path_15904" data-name="Path 15904" d="M33.97,31.392l-6.736-2.756a1.962,1.962,0,0,1-1.224-1.823v-.471A12.153,12.153,0,0,0,30.448,20.7h.158a3.287,3.287,0,0,0,3.283-3.283,3.253,3.253,0,0,0-.223-1.161l.28-.271a5.78,5.78,0,0,0,1.108-1.531,5.118,5.118,0,0,0,.538-4.384,5.28,5.28,0,0,0-2.748-3.081A5.215,5.215,0,0,0,30.671,3.5a5.491,5.491,0,0,0-4.084-.919,5.5,5.5,0,0,0-7.721,0,5.505,5.505,0,0,0-4.083.919A5.216,5.216,0,0,0,12.61,6.987a5.287,5.287,0,0,0-2.748,3.081,5.122,5.122,0,0,0,.538,4.385,5.8,5.8,0,0,0,1.073,1.5l.332.245a3.273,3.273,0,0,0,3.043,4.5h.158a12.15,12.15,0,0,0,4.438,5.644v.471a1.961,1.961,0,0,1-1.224,1.823l-6.736,2.756A10.4,10.4,0,0,0,5,41.051v.657H40.455v-.657a10.4,10.4,0,0,0-6.485-9.66Zm-5.39,2.151-2.669,2,1.769-5.307.374.153ZM17.4,30.39l.374-.153,1.769,5.307-2.669-2Zm2.21,5.357,1.55,4.647H21.03l-2.71-2.71Zm-.626-6.029a3.317,3.317,0,0,0,.417-.257l3.326,3.326,3.326-3.326a3.269,3.269,0,0,0,.417.257L22.911,40.395h-.368Zm6.859,6.029,1.291,1.938-2.71,2.71h-.131Zm3.979-17.775c-.047.309-.11.62-.191.949a1.3,1.3,0,0,1-1,.463H25.915a1.307,1.307,0,0,1-1.175-.726l-.293-.588H21.009l-.293.588a1.307,1.307,0,0,1-1.175.726H16.818a1.3,1.3,0,0,1-1-.463c-.081-.328-.144-.64-.191-.949h0a10.945,10.945,0,0,1-.125-1.641V14.788H29.95v1.544a10.854,10.854,0,0,1-.126,1.641Zm.127-4.5H25.626l1.8-1.8L29.95,13.19Zm-14.445,0V13.19l2.525-1.515,1.8,1.8Zm4.815,0,2.408-1.806,2.408,1.806Zm10.558,5.882c.039-.151.072-.3.1-.458q.036-.168.067-.335a12.193,12.193,0,0,0,.213-2.232v-.766a1.959,1.959,0,0,1-.385,3.79ZM12.355,14.975a4.542,4.542,0,0,1-.784-1.119l-.043-.079a3.815,3.815,0,0,1-.42-3.291A3.992,3.992,0,0,1,13.46,8.048l.385-.15.03-.413A3.9,3.9,0,0,1,15.54,4.576a4.2,4.2,0,0,1,3.4-.638l.389.093.261-.3a4.178,4.178,0,0,1,6.27,0l.261.3.389-.093a4.2,4.2,0,0,1,3.4.638A3.9,3.9,0,0,1,31.58,7.484l.03.413.385.15a3.992,3.992,0,0,1,2.352,2.438,3.814,3.814,0,0,1-.42,3.291l-.043.079a4.494,4.494,0,0,1-.844,1.179l-.091.087a3.275,3.275,0,0,0-1.687-.924V12.447l-4.041-2.424-1.929,1.929-2.565-1.924-2.565,1.924-1.929-1.929-4.042,2.424V14.2a3.281,3.281,0,0,0-1.668.9Zm.524,2.439a1.967,1.967,0,0,1,1.313-1.849v.766a12.244,12.244,0,0,0,.213,2.232c.021.111.043.223.068.336.033.153.066.306.1.457a1.965,1.965,0,0,1-1.7-1.941Zm3.53,3.246a2.576,2.576,0,0,0,.41.037h2.722a2.612,2.612,0,0,0,2.275-1.313H23.64A2.612,2.612,0,0,0,25.915,20.7h2.722a2.576,2.576,0,0,0,.41-.037,10.842,10.842,0,0,1-6.319,5.908A10.84,10.84,0,0,1,16.409,20.66Zm6.111,7.225.207.07.207-.069a12.272,12.272,0,0,0,1.785-.756,3.265,3.265,0,0,0,.445,1.363l-2.438,2.438-2.439-2.439a3.265,3.265,0,0,0,.445-1.363,12.207,12.207,0,0,0,1.786.756ZM11.983,32.608l3.989-1.632-.523,3.14L17.9,35.951l-1.268,1.9,2.544,2.542H12.879V36.455H11.566v3.939H6.336A9.086,9.086,0,0,1,11.983,32.608Zm21.907,7.787V36.455H32.576v3.939H26.282l2.543-2.543-1.268-1.9,2.448-1.836-.523-3.14,3.989,1.632a9.087,9.087,0,0,1,5.647,7.787H33.889Z" transform="translate(-5 -1)" fill="#f9a46a" stroke="#f9a46a" stroke-linecap="round" stroke-linejoin="round" stroke-width="0.4"/>
      <path id="Path_15905" data-name="Path 15905" d="M33.253,32H31.939a1.313,1.313,0,0,1-2.626,0H28a2.626,2.626,0,1,0,5.253,0Z" transform="translate(-12.899 -11.646)" fill="#f9a46a" stroke="#f9a46a" stroke-linecap="round" stroke-linejoin="round" stroke-width="0.4"/>
    </g>
    <rect id="Rectangle_4072" data-name="Rectangle 4072" width="50" height="50" transform="translate(215 1880)" fill="none"/>
  </g>
</svg>
