<svg xmlns="http://www.w3.org/2000/svg" width="50" height="50" viewBox="0 0 50 50">
  <g id="Group_8196" data-name="Group 8196" transform="translate(-215 -1880)">
    <rect id="Rectangle_4072" data-name="Rectangle 4072" width="50" height="50" transform="translate(215 1880)" fill="none"/>
    <g id="shoe-shop" transform="translate(219.541 1884.553)">
      <g id="Group_3022" data-name="Group 3022" transform="translate(0 0)">
        <path id="Path_17202" data-name="Path 17202" d="M3.836,16.807V29.13a.6.6,0,0,0,1.2,0V16.807A3.43,3.43,0,0,0,7.26,15.368a3.421,3.421,0,0,0,5.651,0,3.421,3.421,0,0,0,5.651,0,3.421,3.421,0,0,0,5.651,0,3.421,3.421,0,0,0,5.651,0,3.421,3.421,0,0,0,5.651,0,3.431,3.431,0,0,0,2.226,1.439V19.06a.6.6,0,0,0,1.2,0V16.807a3.43,3.43,0,0,0,2.826-3.371V11.9h0a.6.6,0,0,0-.064-.271L36.418,1.213A2.2,2.2,0,0,0,34.443,0H8.333A2.2,2.2,0,0,0,6.358,1.213L1.075,11.63a.6.6,0,0,0-.064.271h0v1.534a3.43,3.43,0,0,0,2.826,3.371Zm.6-1.145a2.229,2.229,0,0,1-2.226-2.226V12.5H6.661v.934A2.229,2.229,0,0,1,4.435,15.661ZM14.667,1.2,12.43,11.3H8.117L11.8,1.2Zm4.135,0-.794,10.1h-4.35L15.9,1.2Zm3.969,0,.794,10.1H19.211L20,1.2Zm4.109,0,2.237,10.1h-4.35L23.974,1.2Zm4.1,0,3.68,10.1H30.346L28.109,1.2ZM10.086,15.661A2.229,2.229,0,0,1,7.86,13.435V12.5h4.452v.934A2.229,2.229,0,0,1,10.086,15.661Zm5.651,0a2.229,2.229,0,0,1-2.226-2.226V12.5h4.452v.934A2.229,2.229,0,0,1,15.737,15.661Zm5.651,0a2.229,2.229,0,0,1-2.226-2.226V12.5h4.452v.934A2.229,2.229,0,0,1,21.388,15.661Zm5.651,0a2.229,2.229,0,0,1-2.226-2.226V12.5h4.452v.934A2.229,2.229,0,0,1,27.039,15.661Zm5.651,0a2.229,2.229,0,0,1-2.226-2.226V12.5h4.452v.934A2.229,2.229,0,0,1,32.69,15.661Zm5.651,0a2.229,2.229,0,0,1-2.226-2.226V12.5h4.452v.934A2.229,2.229,0,0,1,38.341,15.661ZM35.349,1.755,40.191,11.3H35.935L32.255,1.2h2.189A1.01,1.01,0,0,1,35.349,1.755Zm-27.922,0A1.01,1.01,0,0,1,8.333,1.2h2.189L6.841,11.3H2.585Z" transform="translate(-0.929 0)" fill="#f9a46a"/>
        <path id="Path_17203" data-name="Path 17203" d="M222.835,252.541a.6.6,0,0,0-.6.6v13.885a.6.6,0,0,0,.6.6H239.3a.6.6,0,0,0,.6-.6V253.14a.6.6,0,0,0-.6-.6Zm.6,1.2H238.7v10.1h-15.27Zm15.27,12.687h-15.27v-1.385H238.7Z" transform="translate(-204.476 -232.382)" fill="#f9a46a"/>
        <path id="Path_17204" data-name="Path 17204" d="M158.184,334.364a.6.6,0,0,0-.6.6v3.229a.6.6,0,0,0,1.2,0v-3.229A.6.6,0,0,0,158.184,334.364Z" transform="translate(-144.991 -307.66)" fill="#f9a46a"/>
        <path id="Path_17205" data-name="Path 17205" d="M39.511,269.494h-1.5V254.216a.6.6,0,1,0-1.2,0v15.278H16.376V253.14a.6.6,0,0,0-.6-.6H6.089a.6.6,0,0,0-.6.6v16.353H4.105v-5.208a.6.6,0,1,0-1.2,0v5.208h-1.5A1.409,1.409,0,0,0,0,270.9v.969a1.408,1.408,0,0,0,1.407,1.407H32.461a.6.6,0,1,0,0-1.2H1.407a.208.208,0,0,1-.208-.208V270.9a.208.208,0,0,1,.208-.209h38.1a.208.208,0,0,1,.208.209v.969a.208.208,0,0,1-.208.208H35.259a.6.6,0,1,0,0,1.2h4.252a1.408,1.408,0,0,0,1.407-1.407V270.9A1.409,1.409,0,0,0,39.511,269.494ZM6.688,253.74h8.489v15.754H6.688Z" transform="translate(0 -232.382)" fill="#f9a46a"/>
        <path id="Path_17206" data-name="Path 17206" d="M285.787,293.112l-2.745-1.13a.6.6,0,0,0-.683.164l-.789.921h-1.258a3.025,3.025,0,0,0-3.021,3.021v1.453a.6.6,0,0,0,.6.6h7.669a.6.6,0,0,0,.6-.6v-3.875A.6.6,0,0,0,285.787,293.112Zm-.828,3.83h-6.471v-.854a1.825,1.825,0,0,1,1.823-1.822h1.534a.6.6,0,0,0,.455-.209l.686-.8,1.973.812Z" transform="translate(-255.13 -268.621)" fill="#f9a46a"/>
      </g>
    </g>
  </g>
</svg>
