<svg xmlns="http://www.w3.org/2000/svg" width="50" height="50" viewBox="0 0 50 50">
  <g id="Group_8196" data-name="Group 8196" transform="translate(-215 -1880)">
    <rect id="Rectangle_4072" data-name="Rectangle 4072" width="50" height="50" transform="translate(215 1880)" fill="none"/>
    <g id="meat" transform="translate(217 1830.957)">
      <g id="Group_8204" data-name="Group 8204" transform="translate(0 56.043)">
        <g id="Group_8203" data-name="Group 8203">
          <path id="Path_38264" data-name="Path 38264" d="M43,62.436a25.137,25.137,0,0,0-8.991-4.156,77.195,77.195,0,0,0-18.866-2.237A15.164,15.164,0,0,0,0,71.19v6.418A15.164,15.164,0,0,0,15.147,92.754c3.851,0,6.743-1.206,9.805-2.484,3.167-1.321,6.441-2.687,11.046-2.687a11.014,11.014,0,0,0,11-11V70.164A9.619,9.619,0,0,0,43,62.436Zm-.773,15.693a.918.918,0,0,0,1.3.039,11.026,11.026,0,0,0,1.636-1.943v.356A9.176,9.176,0,0,1,36,85.748c-4.973,0-8.419,1.438-11.753,2.828-2.888,1.2-5.615,2.342-9.1,2.342A13.327,13.327,0,0,1,1.864,78.463a15.159,15.159,0,0,0,13.282,7.873c3.851,0,6.743-1.206,9.805-2.484,3.167-1.321,6.441-2.687,11.046-2.687.342,0,.688-.016,1.027-.048a.918.918,0,1,0-.171-1.828c-.283.026-.571.04-.856.04-4.973,0-8.419,1.438-11.753,2.828-2.888,1.2-5.615,2.342-9.1,2.342a13.311,13.311,0,1,1,0-26.621,75.3,75.3,0,0,1,18.38,2.171c7.722,2.121,11.637,5.523,11.637,10.114a9.2,9.2,0,0,1-2.894,6.667A.918.918,0,0,0,42.231,78.129Z" transform="translate(0 -56.043)" fill="#f9a46a"/>
        </g>
      </g>
      <g id="Group_8206" data-name="Group 8206" transform="translate(39.725 78.188)">
        <g id="Group_8205" data-name="Group 8205">
          <path id="Path_38265" data-name="Path 38265" d="M434.5,297.808a.918.918,0,0,0-1.221-.44l-.022.011a.918.918,0,1,0,1.243.429Z" transform="translate(-432.75 -297.281)" fill="#f9a46a"/>
        </g>
      </g>
      <g id="Group_8208" data-name="Group 8208" transform="translate(20.735 59.967)">
        <g id="Group_8207" data-name="Group 8207">
          <path id="Path_38266" data-name="Path 38266" d="M226.915,98.8l-.047,0a.918.918,0,0,0-.146,1.83l.047,0q.037,0,.074,0a.918.918,0,0,0,.072-1.833Z" transform="translate(-225.877 -98.789)" fill="#f9a46a"/>
        </g>
      </g>
      <g id="Group_8210" data-name="Group 8210" transform="translate(3.672 59.715)">
        <g id="Group_8209" data-name="Group 8209">
          <path id="Path_38267" data-name="Path 38267" d="M79.081,104.018c-.911-1.8-2.936-3.355-6.022-4.622a39.28,39.28,0,0,0-7.077-2.037c-1.109-.217-2.272-.412-3.455-.577a.918.918,0,1,0-.254,1.818c1.15.161,2.279.349,3.356.561,6.306,1.237,10.612,3.309,11.814,5.686a3.558,3.558,0,0,1,.375,1.644,5.5,5.5,0,0,1-5.494,5.494,28.063,28.063,0,0,0-9.093,1.53c-1.316.444-2.594.974-3.83,1.487-.817.339-1.663.69-2.5,1.008a14.765,14.765,0,0,1-5.426,1.145,9.639,9.639,0,1,1,0-19.278c1.037,0,2.089.02,3.128.058l.529.021a.918.918,0,0,0,.081-1.834L54.67,96.1c-1.062-.04-2.137-.06-3.2-.06a11.475,11.475,0,1,0,0,22.949,16.472,16.472,0,0,0,6.077-1.264c.866-.328,1.724-.684,2.555-1.029,1.207-.5,2.456-1.019,3.713-1.443a26.257,26.257,0,0,1,8.507-1.434,7.338,7.338,0,0,0,7.33-7.33A5.352,5.352,0,0,0,79.081,104.018Z" transform="translate(-39.998 -96.042)" fill="#f9a46a"/>
        </g>
      </g>
      <g id="Group_8212" data-name="Group 8212" transform="translate(11.372 63.366)">
        <g id="Group_8211" data-name="Group 8211">
          <path id="Path_38268" data-name="Path 38268" d="M128.531,135.82a4.241,4.241,0,1,0,4.654,4.221A4.458,4.458,0,0,0,128.531,135.82Zm0,6.605a2.418,2.418,0,1,1,2.818-2.385A2.632,2.632,0,0,1,128.531,142.425Z" transform="translate(-123.877 -135.82)" fill="#f9a46a"/>
        </g>
      </g>
    </g>
  </g>
</svg>
