<svg xmlns="http://www.w3.org/2000/svg" width="50" height="50" viewBox="0 0 50 50">
  <g id="Group_8196" data-name="Group 8196" transform="translate(-215 -1880)">
    <rect id="Rectangle_4072" data-name="Rectangle 4072" width="50" height="50" transform="translate(215 1880)" fill="none"/>
    <g id="production" transform="translate(217.59 1882.59)">
      <path id="Path_38269" data-name="Path 38269" d="M41.327,239.537v-6.79A.747.747,0,0,0,40.58,232H33.11a.747.747,0,0,0-.747.747v6.723H27.134v-6.723a.747.747,0,0,0-.747-.747h-7.47a.747.747,0,0,0-.747.747v6.723H4.724a4.482,4.482,0,0,0-.747,8.9v5.3H2.483v1.494H6.965v-1.494H5.471v-5.229H39.833v5.229H38.339v1.494h4.482v-1.494H41.327v-5.3a4.477,4.477,0,0,0,0-8.83Zm-7.47-6.043h5.976v5.976H33.857Zm-14.193,0H25.64v5.976H19.664ZM4.724,246.94a2.988,2.988,0,1,1,2.988-2.988A2.988,2.988,0,0,1,4.724,246.94Zm32.525,0H8.055a4.456,4.456,0,0,0,0-5.976H37.249A4.456,4.456,0,0,0,37.249,246.94Zm3.332,0a2.988,2.988,0,1,1,2.988-2.988A2.988,2.988,0,0,1,40.58,246.94Zm0,0" transform="translate(-0.242 -210.337)" fill="#f9a46a"/>
      <path id="Path_38270" data-name="Path 38270" d="M34.98,345.494A1.494,1.494,0,1,1,33.486,344,1.494,1.494,0,0,1,34.98,345.494Zm0,0" transform="translate(-29.004 -311.878)" fill="#f9a46a"/>
      <path id="Path_38271" data-name="Path 38271" d="M114.98,345.494A1.494,1.494,0,1,1,113.486,344,1.494,1.494,0,0,1,114.98,345.494Zm0,0" transform="translate(-101.534 -311.878)" fill="#f9a46a"/>
      <path id="Path_38272" data-name="Path 38272" d="M170.98,345.494A1.494,1.494,0,1,1,169.486,344,1.494,1.494,0,0,1,170.98,345.494Zm0,0" transform="translate(-152.305 -311.878)" fill="#f9a46a"/>
      <path id="Path_38273" data-name="Path 38273" d="M226.98,345.494A1.494,1.494,0,1,1,225.486,344,1.494,1.494,0,0,1,226.98,345.494Zm0,0" transform="translate(-203.076 -311.878)" fill="#f9a46a"/>
      <path id="Path_38274" data-name="Path 38274" d="M282.98,345.494A1.494,1.494,0,1,1,281.486,344,1.494,1.494,0,0,1,282.98,345.494Zm0,0" transform="translate(-253.847 -311.878)" fill="#f9a46a"/>
      <path id="Path_38275" data-name="Path 38275" d="M338.98,345.494A1.494,1.494,0,1,1,337.486,344,1.494,1.494,0,0,1,338.98,345.494Zm0,0" transform="translate(-304.618 -311.878)" fill="#f9a46a"/>
      <path id="Path_38276" data-name="Path 38276" d="M418.98,345.494A1.494,1.494,0,1,1,417.486,344,1.494,1.494,0,0,1,418.98,345.494Zm0,0" transform="translate(-377.148 -311.878)" fill="#f9a46a"/>
      <path id="Path_38277" data-name="Path 38277" d="M40.739,200a.747.747,0,0,0-.747.747v7.47a.747.747,0,0,0,.747.747h7.47a.747.747,0,0,0,.747-.747v-7.47a.747.747,0,0,0-.747-.747Zm6.723,7.47H41.486v-5.976h5.976Zm0,0" transform="translate(-36.257 -181.325)" fill="#f9a46a"/>
      <path id="Path_38278" data-name="Path 38278" d="M3.735,0V10.966L.139,16a.747.747,0,0,0,.607,1.181h14.94A.747.747,0,0,0,16.294,16l-3.6-5.034V0H11.2V1.494H5.229V0ZM5.229,5.976H11.2V7.47H5.229Zm0,2.988H11.2v1.494H5.229Zm6.338,2.988,2.669,3.735H2.2l2.669-3.735ZM11.2,2.988V4.482H5.229V2.988Zm0,0" transform="translate(0)" fill="#f9a46a"/>
    </g>
  </g>
</svg>
