<svg xmlns="http://www.w3.org/2000/svg" width="50" height="50" viewBox="0 0 50 50">
  <g id="Group_8196" data-name="Group 8196" transform="translate(-215 -1880)">
    <g id="XMLID_1266_" transform="translate(219.125 1884.013)">
      <g id="XMLID_820_">
        <path id="XMLID_1431_" d="M40.934,2.772H30.567a.815.815,0,1,0,0,1.631h9.551V6.034H24.859V4.705a2.771,2.771,0,0,0-3.5-2.674A2.777,2.777,0,0,0,18.683,0H15a2.776,2.776,0,0,0-2.772,2.772H.815A.816.816,0,0,0,0,3.588V6.85a.816.816,0,0,0,.815.815h3.2v.294a.815.815,0,0,0,1.631,0V7.665h6.585V9.548a2.764,2.764,0,0,0,.811,1.957,2.764,2.764,0,0,0-.811,1.957v5.871a2.764,2.764,0,0,0,.83,1.976,2.764,2.764,0,0,0-.83,1.976v5.871a2.764,2.764,0,0,0,.83,1.976,2.764,2.764,0,0,0-.83,1.976v5.871a2.773,2.773,0,0,0,5.507.461.815.815,0,1,0-1.608-.27,1.142,1.142,0,0,1-2.267-.191V33.106a1.142,1.142,0,0,1,2.267-.191.815.815,0,0,0,1.608-.27,2.763,2.763,0,0,0-.788-1.518,2.764,2.764,0,0,0,.827-1.973V23.284a2.764,2.764,0,0,0-.83-1.976,2.764,2.764,0,0,0,.83-1.975V13.462a2.764,2.764,0,0,0-.811-1.957,2.764,2.764,0,0,0,.811-1.957V7.665h1.538v2.911a2.764,2.764,0,0,0,.823,1.969,2.764,2.764,0,0,0-.823,1.969v5.871a2.772,2.772,0,1,0,5.545,0V14.514a2.764,2.764,0,0,0-.823-1.969,2.764,2.764,0,0,0,.823-1.969V7.665H33.6v.779a.815.815,0,1,0,1.631,0V7.665h5.708a.816.816,0,0,0,.815-.815V3.588A.816.816,0,0,0,40.934,2.772ZM23.228,4.705v5.871a1.142,1.142,0,0,1-2.283,0V4.705a1.142,1.142,0,0,1,2.283,0ZM15,1.631h3.68a1.142,1.142,0,0,1,0,2.283H15a1.142,1.142,0,0,1,0-2.283Zm1.142,11.831v5.871a1.142,1.142,0,1,1-2.283,0V13.462a1.142,1.142,0,0,1,2.283,0ZM15,22.142a1.143,1.143,0,0,1,1.142,1.142v5.871a1.142,1.142,0,1,1-2.283,0V23.284A1.143,1.143,0,0,1,15,22.142ZM16.145,9.548a1.142,1.142,0,1,1-2.283,0V7.665h2.283ZM1.631,6.034V4.4H12.764A2.77,2.77,0,0,0,15,5.545h3.68a2.772,2.772,0,0,0,.631-.073v.563Zm21.6,14.351a1.142,1.142,0,0,1-2.283,0V14.514a1.142,1.142,0,0,1,2.283,0Z" fill="#f9a46a"/>
        <path id="XMLID_1493_" d="M341.614,140.394a1.555,1.555,0,0,0-1.46-1.55v-1.028a.815.815,0,0,0-1.631,0v1.028a1.555,1.555,0,0,0-1.46,1.55v4.194A19.828,19.828,0,0,0,332,157.843v2.036s0,0,0,0c0,2.486,3.224,4.434,7.339,4.434s7.339-1.947,7.339-4.434h0v-2.04a19.828,19.828,0,0,0-5.063-13.256Zm-2.92,3.694V140.47h1.29v3.618Zm.645,18.6c-3.363,0-5.707-1.477-5.708-2.8h0v0c0-1.325,2.345-2.8,5.708-2.8s5.708,1.477,5.708,2.8S342.7,162.686,339.339,162.686Zm5.69-5.633a10.9,10.9,0,0,0-11.381,0,18.194,18.194,0,0,1,4.592-11.334h2.2A18.2,18.2,0,0,1,345.029,157.053Z" transform="translate(-304.928 -125.829)" fill="#f9a46a"/>
        <path id="XMLID_1528_" d="M410.08,400h-.6a.815.815,0,0,0,0,1.631h.6a.815.815,0,0,0,0-1.631Z" transform="translate(-375.343 -367.383)" fill="#f9a46a"/>
        <path id="XMLID_1549_" d="M5.647,126.62v-.8a.815.815,0,1,0-1.631,0v.8A4.838,4.838,0,0,0,0,131.381v13.781a4.831,4.831,0,0,0,9.663,0V131.381A4.838,4.838,0,0,0,5.647,126.62ZM1.631,144.346v-2.963h6.4v2.963Zm6.4-12.15v2.963h-6.4V132.2Zm-6.4,4.594h6.4v2.963h-6.4Zm3.2-8.609a3.206,3.206,0,0,1,3.095,2.385H1.736A3.206,3.206,0,0,1,4.831,128.18Zm0,20.182a3.206,3.206,0,0,1-3.095-2.385h6.19A3.206,3.206,0,0,1,4.831,148.362Z" transform="translate(0 -114.807)" fill="#f9a46a"/>
        <path id="XMLID_1554_" d="M325.675,35.631a.816.816,0,1,0-.577-.239A.822.822,0,0,0,325.675,35.631Z" transform="translate(-298.369 -31.228)" fill="#f9a46a"/>
        <path id="XMLID_1555_" d="M198.815,432a.816.816,0,1,0,.576.239A.821.821,0,0,0,198.815,432Z" transform="translate(-181.855 -396.774)" fill="#f9a46a"/>
      </g>
    </g>
    <rect id="Rectangle_4072" data-name="Rectangle 4072" width="50" height="50" transform="translate(215 1880)" fill="none"/>
  </g>
</svg>
