<svg xmlns="http://www.w3.org/2000/svg" width="50" height="50" viewBox="0 0 50 50">
  <g id="Group_8196" data-name="Group 8196" transform="translate(-215 -1880)">
    <rect id="Rectangle_4072" data-name="Rectangle 4072" width="50" height="50" transform="translate(215 1880)" fill="none"/>
    <g id="medal" transform="translate(222.96 1881.924)">
      <path id="Path_38260" data-name="Path 38260" d="M40.5,53.308A13.308,13.308,0,1,0,53.808,40,13.323,13.323,0,0,0,40.5,53.308ZM53.808,41.774A11.534,11.534,0,1,1,42.274,53.308,11.547,11.547,0,0,1,53.808,41.774Zm0,0" transform="translate(-36.451 -36.451)" fill="#f9a46a"/>
      <path id="Path_38261" data-name="Path 38261" d="M95.173,99.9l3.439,3.388-.791,4.762a.887.887,0,0,0,1.284.933l4.285-2.225,4.284,2.225a.887.887,0,0,0,1.284-.933l-.791-4.762,3.439-3.388a.887.887,0,0,0-.491-1.509l-4.773-.718-2.159-4.319a.887.887,0,0,0-1.587,0l-2.159,4.319-4.773.718a.887.887,0,0,0-.491,1.509Zm5.983-.542a.888.888,0,0,0,.662-.48l1.572-3.144,1.572,3.144a.888.888,0,0,0,.662.48l3.474.523-2.5,2.466a.889.889,0,0,0-.253.778l.576,3.466-3.118-1.619a.887.887,0,0,0-.818,0l-3.118,1.619.576-3.466a.887.887,0,0,0-.253-.778l-2.5-2.466Zm0,0" transform="translate(-86.032 -84.621)" fill="#f9a46a"/>
      <path id="Path_38262" data-name="Path 38262" d="M182.274.887A.887.887,0,1,1,181.387,0,.887.887,0,0,1,182.274.887Zm0,0" transform="translate(-164.03)" fill="#f9a46a"/>
      <path id="Path_38263" data-name="Path 38263" d="M13.176,5.609A16.858,16.858,0,0,0,6.049,34.442L.7,43.862a.887.887,0,0,0,.952,1.307l6.07-1.26L9.86,49.92a.887.887,0,0,0,1.607.142l5.89-10.355,5.89,10.355a.887.887,0,0,0,.771.448c.026,0,.052,0,.078,0a.888.888,0,0,0,.758-.587l2.133-6.012,6.07,1.26a.887.887,0,0,0,.952-1.307l-5.345-9.42A16.858,16.858,0,0,0,21.538,5.609.887.887,0,0,0,21.1,7.328a15.082,15.082,0,1,1-7.485,0,.887.887,0,1,0-.439-1.719ZM10.883,47.5,9.14,42.586a.887.887,0,0,0-1.016-.572L3.215,43.033l4.23-7.455a16.893,16.893,0,0,0,8.424,3.156ZM26.59,42.014a.887.887,0,0,0-1.016.572L23.83,47.5l-4.986-8.766a16.894,16.894,0,0,0,8.424-3.156l4.23,7.455Zm0,0" transform="translate(0 -5.086)" fill="#f9a46a"/>
    </g>
  </g>
</svg>
