<svg xmlns="http://www.w3.org/2000/svg" width="18" height="18" viewBox="0 0 18 18">
  <g id="Group_8471" data-name="Group 8471" transform="translate(-92.294 -1266)">
    <g id="Group_7842" data-name="Group 7842" transform="translate(92.61 1267.829)">
      <g id="Group_7803" data-name="Group 7803" transform="translate(5.614 10.311)">
        <path id="Path_17558" data-name="Path 17558" d="M1913.108-1318.6l-.11-.14-1.694,2.147-1.693-2.148-.1.131a5.254,5.254,0,0,1-1.15,1.074l2.946,3.729,2.945-3.727A5.254,5.254,0,0,1,1913.108-1318.6Z" transform="translate(-1908.357 1318.74)" fill="#f9a46a"/>
      </g>
      <g id="Group_7804" data-name="Group 7804" transform="translate(2.663 4.3)">
        <path id="Path_17559" data-name="Path 17559" d="M1907.951-1331.572l-4.794,6.058-1.1,1.394a4.556,4.556,0,0,0,3.574-1.73l2.323-2.938,2.331,2.947a4.557,4.557,0,0,0,3.567,1.73h0l-1.1-1.4Z" transform="translate(-1902.054 1331.572)" fill="#f9a46a"/>
      </g>
      <g id="Group_7805" data-name="Group 7805">
        <path id="Path_17560" data-name="Path 17560" d="M1901.77-1333.667c-.892,0-3.386-1.579-3.386-2.992,0-2.125,4.061-4.089,4.061-4.089s-6.07,1-6.07,4.3c0,2.158,3.15,5.108,3.607,5.108Z" transform="translate(-1896.375 1340.748)" fill="#f9a46a"/>
      </g>
      <g id="Group_7806" data-name="Group 7806" transform="translate(11.05)">
        <path id="Path_17561" data-name="Path 17561" d="M1919.959-1340.748s4.061,1.964,4.061,4.089c0,1.413-2.494,2.992-3.386,2.992l1.788,2.323c.458,0,3.607-2.949,3.607-5.108C1926.029-1339.745,1919.959-1340.748,1919.959-1340.748Z" transform="translate(-1919.959 1340.748)" fill="#f9a46a"/>
      </g>
    </g>
    <rect id="Rectangle_3528" data-name="Rectangle 3528" width="18" height="18" transform="translate(92.294 1266)" fill="none"/>
  </g>
</svg>
