<svg xmlns="http://www.w3.org/2000/svg" width="36" height="36" viewBox="0 0 36 36"><g><g><g/><g><g><g><path fill="#fff" d="M24.755 12.192c1.077 0 1.954.876 1.954 1.953v8.264a1.955 1.955 0 0 1-1.954 1.952h-13.51a1.955 1.955 0 0 1-1.953-1.952v-8.264c0-1.077.876-1.953 1.953-1.953zM28.05 22.41v-8.264a3.297 3.297 0 0 0-3.294-3.293h-13.51a3.297 3.297 0 0 0-3.293 3.293v8.264a3.297 3.297 0 0 0 3.293 3.292h13.51a3.297 3.297 0 0 0 3.294-3.292z"/></g></g><g><g><path fill="#fff" d="M19.411 18.066l-2.659 1.419v-2.826zm-3.292 3.107a.63.63 0 0 0 .299-.075l4.64-2.478a.633.633 0 1 0-.002-1.118l-4.64-2.452a.634.634 0 0 0-.929.56v4.93a.633.633 0 0 0 .632.633z"/></g></g></g></g></g></svg>